<svg width="49" height="49" viewBox="0 0 49 49" fill="none" xmlns="http://www.w3.org/2000/svg">
<rect x="0.25" y="0.25" width="48" height="48" rx="8.57143" fill="white"/>
<rect x="0.25" y="0.25" width="48" height="48" rx="8.57143" stroke="#EBECF0" stroke-width="0.5"/>
<path fill-rule="evenodd" clip-rule="evenodd" d="M25.3088 9.42932C23.4873 9.94911 22.1613 11.0447 21.3811 12.675C20.8585 13.7668 20.7536 14.493 20.6925 17.4424L20.634 20.2573L18.442 20.2571L16.25 20.257L16.2838 22.9792L16.3175 25.7014H18.4896H20.6618V32.4757L20.6616 39.25L23.3358 39.227L26.0099 39.2041L25.9938 32.4527L25.9776 25.7014H28.1765H30.3753L30.6984 23.0722C30.8761 21.6261 31.02 20.401 31.0181 20.3501C31.0162 20.2991 29.8688 20.2573 28.4685 20.2573H25.9221L25.9829 18.061C26.0511 15.5968 26.1569 15.1558 26.7955 14.6769C27.1701 14.3959 27.2992 14.3778 29.2206 14.3388L31.25 14.2978V11.8515V9.40519L30.3499 9.32526C28.8089 9.18829 25.9466 9.24731 25.3088 9.42932Z" fill="#1777F6"/>
</svg>
