<svg width="49" height="49" viewBox="0 0 49 49" fill="none" xmlns="http://www.w3.org/2000/svg">
<rect x="0.25" y="0.25" width="48" height="48" rx="8.57143" fill="white"/>
<rect x="0.25" y="0.25" width="48" height="48" rx="8.57143" stroke="#EBECF0" stroke-width="0.5"/>
<path fill-rule="evenodd" clip-rule="evenodd" d="M23.2885 9.27514C23.1482 9.2838 22.783 9.32234 22.4769 9.3608C19.6023 9.72202 17.1835 10.8381 15.3413 12.6533C13.3454 14.6199 12.25 17.1241 12.25 19.7205C12.25 21.768 12.8766 23.6104 13.9786 24.8032C14.5889 25.4638 15.5667 26.059 16.0416 26.059C16.2691 26.059 16.3058 26.0438 16.4395 25.8952C16.5659 25.7547 16.6186 25.6075 16.8121 24.8541C16.9747 24.2207 17.0291 23.932 17.0075 23.8159C16.9891 23.7171 16.852 23.4964 16.6516 23.2432C15.7984 22.1647 15.46 20.8265 15.6367 19.2293C15.8775 17.0529 16.9492 15.115 18.6273 13.8215C20.2408 12.5778 22.4712 11.9592 24.7145 12.1335C27.2717 12.3322 29.1327 13.3469 30.1797 15.1136C31.0181 16.5282 31.2415 18.1875 30.9153 20.5748C30.6933 22.1983 30.1 23.9027 29.3726 25.0064C28.3934 26.4923 27.1033 27.2969 25.7003 27.2969C24.8454 27.2969 24.1786 27.0348 23.6321 26.4841C23.1314 25.9794 22.9206 25.4734 22.9189 24.7725C22.9178 24.2657 23.0206 23.8596 23.6881 21.7342C24.442 19.3338 24.6051 18.4072 24.4249 17.5494C24.329 17.0928 24.1208 16.6742 23.8416 16.3765C23.3896 15.8944 22.9597 15.723 22.1986 15.7217C21.5735 15.7207 21.1692 15.8381 20.6738 16.1647C19.5634 16.8968 18.8867 18.347 18.8833 20.0023C18.8817 20.8118 19.0453 21.7116 19.3182 22.393L19.4287 22.6689L19.3136 23.1243C19.1966 23.5872 18.9268 24.6993 17.7959 29.3802C16.9414 32.9174 16.9604 32.7951 16.9589 34.7598C16.9577 36.2858 16.9765 36.6114 17.1291 37.7068C17.2246 38.3924 17.3899 38.4219 17.8509 37.8354C19.0592 36.2987 20.111 34.4606 20.5745 33.0757C20.6602 32.8197 21.0577 31.3327 21.5542 29.4106L21.8727 28.1779L21.9893 28.3339C22.3841 28.8621 22.8411 29.2369 23.5127 29.5835C24.3338 30.0071 25.1549 30.199 26.1409 30.1977C30.47 30.1921 33.9501 26.9138 34.9536 21.8964C35.2275 20.5265 35.3256 18.7993 35.1886 17.7569C34.9214 15.7236 34.038 13.927 32.58 12.4517C30.4839 10.3307 27.5992 9.21438 24.3089 9.25087C23.888 9.25554 23.4288 9.26644 23.2885 9.27514Z" fill="#E90101"/>
</svg>
