<svg width="49" height="49" viewBox="0 0 49 49" fill="none" xmlns="http://www.w3.org/2000/svg">
<rect x="0.25" y="0.25" width="48" height="48" rx="8.57143" fill="white"/>
<rect x="0.25" y="0.25" width="48" height="48" rx="8.57143" stroke="#EBECF0" stroke-width="0.5"/>
<path d="M13.6232 10.7148C13.9124 10.5294 14.1579 10.4229 14.5145 10.3282C14.9053 10.2245 15.552 10.2238 15.9537 10.3268C17.9199 10.8309 18.8379 13.1023 17.7657 14.8097C17.5033 15.2275 17.0397 15.6944 16.9453 15.6359C16.9255 15.6237 16.9144 15.6372 16.9205 15.6659C16.9389 15.7527 16.2898 16.0528 15.8765 16.1485C15.4409 16.2494 14.8922 16.2407 14.4749 16.1262C14.1501 16.0371 13.6113 15.7663 13.4332 15.6027C13.3534 15.5294 13.2807 15.4769 13.2716 15.4859C13.2407 15.5169 12.8789 15.0748 12.6957 14.7823C12.1309 13.88 12.1006 12.7239 12.6177 11.8036C12.6926 11.6704 12.7732 11.5656 12.7969 11.5709C12.8205 11.5762 12.8306 11.5563 12.8192 11.5266C12.7907 11.4521 13.3427 10.8947 13.6232 10.7148Z" fill="#2967B0"/>
<path d="M27.2138 19.5539C28.1871 18.7009 29.2471 18.2474 30.4467 18.1706C31.2653 18.1183 32.203 18.1778 32.9442 18.3292C34.015 18.5479 34.8744 19.0028 35.5416 19.7042C36.4534 20.6627 36.885 21.7676 37.18 23.898C37.2139 24.1429 37.2319 25.801 37.2428 29.6871C37.2574 34.887 37.2549 35.1354 37.1858 35.1878C37.0806 35.2679 32.2511 35.272 32.1849 35.1921C32.1538 35.1545 32.1366 33.7558 32.1264 30.417C32.1106 25.2733 32.1135 25.3424 31.8764 24.5254C31.7336 24.0331 31.5255 23.653 31.2344 23.3528C30.7801 22.8842 30.2643 22.6866 29.496 22.6866C27.8718 22.6866 26.8893 23.3651 26.4966 24.7584C26.2851 25.5087 26.2834 25.5519 26.2696 30.5167C26.2604 33.8441 26.2442 35.1518 26.2118 35.191C26.1749 35.2355 25.7181 35.2454 23.6971 35.2454C21.501 35.2454 21.2205 35.2383 21.1639 35.1816C21.1063 35.1239 21.1013 34.3399 21.1107 26.8816C21.1198 19.6122 21.1281 18.6409 21.1815 18.6068C21.2182 18.5833 22.1696 18.5685 23.6078 18.5691C25.8922 18.57 25.9751 18.5727 26.0147 18.6469C26.0395 18.6934 26.0558 19.1323 26.0558 19.7562C26.0558 20.324 26.0693 20.7878 26.086 20.7867C26.1026 20.7856 26.2399 20.6309 26.3911 20.4429C26.5587 20.2344 26.6845 20.1116 26.7133 20.1282C26.7394 20.1432 26.7477 20.141 26.7317 20.1232C26.6835 20.0698 26.8514 19.8715 27.2138 19.5539Z" fill="#2967B0"/>
<path d="M12.6414 26.9211C12.6414 21.3477 12.6547 18.6988 12.6831 18.6457C12.7236 18.5698 12.7938 18.5676 15.1833 18.5676C16.801 18.5676 17.6685 18.5819 17.7197 18.6094C17.7964 18.6505 17.7976 18.7858 17.7976 26.8848C17.7976 34.2496 17.7911 35.125 17.7355 35.1807C17.6809 35.2354 17.3754 35.2432 15.2212 35.2447C13.035 35.2463 12.7622 35.2395 12.7052 35.1825C12.6474 35.1244 12.6414 34.35 12.6414 26.9211Z" fill="#2967B0"/>
</svg>
