<svg width="56" height="56" viewBox="0 0 56 56" fill="none" xmlns="http://www.w3.org/2000/svg">
<rect width="56" height="56" rx="28" fill="#2863E4"/>
<path d="M27.5731 42.0858C27.6708 41.9714 27.8292 41.9714 27.9268 42.0858C28.0244 42.2002 28.0244 42.3856 27.9268 42.5C27.7028 42.7624 27.2972 42.7624 27.0732 42.5C26.9756 42.3856 26.9756 42.2002 27.0732 42.0858C27.1709 41.9714 27.3291 41.9714 27.4268 42.0858L27.4999 42.1714L27.5731 42.0858Z" fill="#FAFBFC"/>
<path d="M27.8028 29.7588C28.6003 29.7801 29.3855 29.8486 29.8624 29.9522C35.0522 31.0793 38.7333 35.3461 39.003 40.5361C39.0296 41.0489 39.0173 41.3845 38.9581 41.6348C38.9013 41.8744 38.7995 42.0426 38.627 42.2158C38.2572 42.587 37.5294 42.7169 36.9698 42.4844C36.6518 42.3523 36.4799 42.2125 36.3624 41.9649C36.2348 41.696 36.1641 41.2855 36.1104 40.584C35.9772 38.8432 35.4171 37.2798 34.46 35.9961C34.276 35.7494 33.9356 35.3881 33.585 35.0479C33.234 34.7073 32.8579 34.374 32.5967 34.1885C31.7688 33.6003 30.7508 33.1283 29.6983 32.8438C29.1221 32.688 28.8037 32.6652 27.5108 32.6631C26.1822 32.661 25.9097 32.6803 25.2901 32.8486C22.7562 33.537 20.8012 35.1296 19.709 37.4024C19.1603 38.5443 18.8421 39.893 18.8301 41.1348C18.8257 41.5966 18.679 41.9586 18.4395 42.2041C18.2007 42.4489 17.8527 42.5957 17.4122 42.5957C16.7304 42.5957 16.2866 42.3055 16.0909 41.7959C15.9981 41.5543 15.9797 41.363 16.0206 40.457C16.1413 37.7816 17.2283 35.2674 19.1143 33.3057C20.9161 31.4317 23.1534 30.261 25.7364 29.8418C26.2173 29.7638 27.0051 29.7375 27.8028 29.7588Z" fill="#FAFBFC"/>
<path fill-rule="evenodd" clip-rule="evenodd" d="M26.8441 13.0245C29.3149 12.8224 31.5358 13.8782 32.8792 15.8858C33.6831 17.0874 34.0264 18.3228 33.9525 19.7452C33.9001 20.7524 33.7701 21.2633 33.3324 22.1837C32.5378 23.8543 30.9209 25.1963 29.1146 25.6827C28.7958 25.7686 28.3216 25.8284 27.8304 25.8507C27.3399 25.8729 26.849 25.857 26.4984 25.8009C23.9148 25.3868 21.799 23.4226 21.1849 20.8663C21.0801 20.4297 21.0359 19.8196 21.0521 19.211C21.0684 18.6015 21.1443 18.0152 21.2699 17.6241C21.6077 16.572 22.0895 15.7728 22.8714 14.9689C23.964 13.8455 25.4078 13.1421 26.8441 13.0245ZM26.6712 15.9483C28.2919 15.5569 29.9886 16.3646 30.7376 17.8771C30.8537 18.1115 30.9287 18.2838 30.9749 18.4884C31.0203 18.689 31.0366 18.9126 31.0501 19.2472C31.0739 19.8351 31.0041 20.3488 30.8226 20.8106C30.6408 21.2733 30.3509 21.6738 29.9486 22.0411C29.5563 22.3993 29.1831 22.6462 28.7582 22.795C28.3341 22.9435 27.8726 22.9893 27.3109 22.9669C26.9765 22.9535 26.7513 22.9368 26.5511 22.8927C26.347 22.8476 26.1763 22.7751 25.9476 22.6632C24.5192 21.9637 23.6844 20.4039 23.9457 18.8888C24.0834 18.0903 24.4074 17.452 24.9574 16.9064C25.4532 16.4144 25.9958 16.1115 26.6712 15.9483Z" fill="#FAFBFC"/>
</svg>
