<svg width="56" height="56" viewBox="0 0 56 56" fill="none" xmlns="http://www.w3.org/2000/svg">
<g clip-path="url(#clip0_167_10090)">
<rect width="56" height="56" rx="28" fill="#2863E4"/>
<path fill-rule="evenodd" clip-rule="evenodd" d="M35.5048 13.4007C29.1617 10.334 21.947 11.5627 17.4304 16.4787C16.9962 16.9514 16.6771 17.4299 14.3102 21.1575L11.6737 25.3097L11.5815 25.763C11.3263 27.0174 11.6562 28.3089 12.4973 29.348C12.7544 29.6657 12.9183 29.7982 13.5472 30.1975C14.176 30.5968 14.3657 30.6888 14.7626 30.7864C16.0607 31.1056 17.3699 30.8548 18.3967 30.0903C18.7662 29.8151 18.7741 29.8038 20.4956 27.0927C22.2171 24.3815 22.2239 24.3695 22.3158 23.918C22.5716 22.6609 22.2368 21.3549 21.3976 20.3368C20.9935 19.8464 20.0942 19.2141 19.5326 19.0254C19.3146 18.9522 19.1491 18.8719 19.165 18.847C19.2797 18.6662 20.3219 17.6043 20.6962 17.2868C23.4842 14.9214 27.3998 13.9716 31.1548 14.7498C32.8125 15.0934 34.0931 15.6225 35.612 16.5911C37.1855 17.5945 38.222 18.5638 39.2753 20.0165C41.8725 23.5985 42.3911 28.3302 40.6059 32.1574L40.4742 32.4396L40.1868 32.1393C39.779 31.7131 38.8228 31.1678 38.2084 31.0109C36.93 30.6845 35.6057 30.937 34.5767 31.7032C34.2072 31.9783 34.1992 31.9897 32.4778 34.7008C30.7563 37.412 30.7494 37.424 30.6576 37.8755C30.4021 39.1309 30.734 40.428 31.5743 41.4591C31.8234 41.7648 32.0063 41.9149 32.564 42.2716C32.9403 42.5122 33.3494 42.7438 33.4732 42.7863L33.6982 42.8634C34.6403 43.2436 37.159 43.005 39.6964 39.0088C42.8158 34.096 43.1406 33.5638 43.3875 32.9603C45.821 27.0126 44.1093 20.2485 39.0322 15.7495C38.4314 15.2172 36.23 13.7513 35.5048 13.4007ZM17.2955 21.8029C17.5583 21.5732 18.1374 21.4454 18.5028 21.5365C18.8578 21.625 18.9774 21.696 19.2316 21.9692C19.491 22.2479 19.6521 22.8791 19.5526 23.2266C19.448 23.5917 16.8815 27.6336 16.5956 27.8836C16.1464 28.2762 15.2503 28.2572 14.8 27.8456C14.4022 27.4819 14.2163 26.9028 14.3489 26.4397C14.4476 26.095 17.0247 22.0395 17.2955 21.8029ZM36.3715 33.9154C36.6343 33.6857 37.2135 33.5579 37.5789 33.649C37.9339 33.7375 38.0535 33.8085 38.3077 34.0817C38.5671 34.3604 38.7282 34.9916 38.6286 35.3391C38.5241 35.7042 35.9576 39.7461 35.6717 39.9961C35.2225 40.3887 34.3264 40.3697 33.8761 39.9581C33.4783 39.5944 33.2924 39.0153 33.425 38.5522C33.5237 38.2075 36.1008 34.152 36.3715 33.9154Z" fill="#FAFBFC"/>
<path fill-rule="evenodd" clip-rule="evenodd" d="M39.4774 60.1572C39.0658 60.4962 38.3805 60.8531 37.8031 61.0291C37.467 61.1315 37.0662 61.151 34.8242 61.1734L32.2337 61.1994L32.0477 60.8292C31.4979 59.7354 30.4494 58.9293 29.1775 58.6226C28.5652 58.475 27.4756 58.523 26.8578 58.7247C25.6031 59.1347 24.6182 60.0601 24.164 61.2558C24.0256 61.6204 24 61.8175 24 62.5187C24 63.2199 24.0256 63.417 24.164 63.7816C24.6182 64.9773 25.6031 65.9028 26.8578 66.3127C27.4869 66.5182 28.5575 66.5618 29.1881 66.4076C30.4659 66.0951 31.4968 65.3043 32.0428 64.2179L32.224 63.8574L35.0665 63.8303C38.0981 63.8015 38.1168 63.7996 39.2019 63.4246C41.0008 62.8029 42.6288 61.2516 43.3074 59.5125C43.328 59.4596 43.3475 59.4104 43.366 59.3638C43.6771 58.581 43.6988 58.5263 43.6996 54C43.6996 57.2 41.1997 59 39.4774 60.1572ZM26.8228 62.7098C26.7147 62.1672 27.1562 61.4838 27.7405 61.2893C27.8959 61.2376 28.0865 61.1941 28.1642 61.1926C28.6168 61.1845 29.2198 61.5284 29.4328 61.9161C29.9745 62.902 28.9883 64.071 27.8568 63.7842C27.3407 63.6534 26.9248 63.2211 26.8228 62.7098Z" fill="#FAFBFC"/>
</g>
<defs>
<clipPath id="clip0_167_10090">
<rect width="56" height="56" rx="28" fill="white"/>
</clipPath>
</defs>
</svg>
