<svg width="56" height="56" viewBox="0 0 56 56" fill="none" xmlns="http://www.w3.org/2000/svg">
<g clip-path="url(#clip0_167_10083)">
<rect width="56" height="56" rx="28" fill="#2863E4"/>
<path d="M29.9932 13.6963C32.7082 13.7006 34.1613 13.7049 34.959 13.7197C35.3546 13.7271 35.6021 13.736 35.7656 13.752C35.9343 13.7684 36.0474 13.7938 36.1572 13.8477C36.5764 14.0533 36.8353 14.4608 36.835 14.9287C36.8347 15.0789 36.7841 15.2231 36.7061 15.3877C36.625 15.5586 36.488 15.8036 36.2734 16.1719C35.8412 16.9135 35.0563 18.202 33.6484 20.5029L30.8887 25.0108L34.2441 25.0352C36.1056 25.0482 37.1307 25.0566 37.7129 25.0742C38.2625 25.0909 38.4932 25.1122 38.6807 25.2041C39.2068 25.4626 39.5311 26.0887 39.3066 26.6651C39.2887 26.7109 39.264 26.7516 39.2568 26.7627C39.2443 26.7822 39.228 26.8049 39.2158 26.8223C39.1858 26.865 39.1442 26.9214 39.0938 26.9893C38.993 27.125 38.8493 27.3132 38.6709 27.5459C38.3129 28.0128 37.8087 28.6646 37.2061 29.4365C36.0003 30.9811 34.3997 33.0161 32.7969 35.0449C31.1942 37.0734 29.5871 39.098 28.3662 40.625C27.756 41.3883 27.2406 42.0285 26.8711 42.4824C26.687 42.7086 26.5372 42.8907 26.4297 43.0186C26.3769 43.0814 26.3323 43.1351 26.2979 43.1738C26.281 43.1928 26.2639 43.2111 26.249 43.2266C26.2444 43.2313 26.2052 43.2722 26.1563 43.3037C25.96 43.4294 25.7178 43.484 25.5 43.4932C25.2799 43.5023 25.0374 43.4678 24.8271 43.3701C24.4277 43.1843 24.1605 42.7599 24.1602 42.3203C24.1602 42.276 24.1684 42.2262 24.1709 42.21C24.175 42.1831 24.1802 42.1425 24.1885 42.0967C24.2044 42.0086 24.2291 41.8885 24.2578 41.7442C24.3159 41.4521 24.3989 41.046 24.502 40.5567C24.7083 39.5774 24.9929 38.2594 25.3057 36.8399L26.1084 33.1836C26.2061 32.7368 26.2856 32.3686 26.3428 32.1045C26.1212 32.0997 25.8284 32.0951 25.4795 32.0908C24.6482 32.0806 23.5 32.0718 22.2373 32.0674C20.0968 32.06 18.9365 32.054 18.29 32.0381C17.6799 32.0231 17.4501 32.0034 17.2578 31.9092C16.859 31.7135 16.5797 31.306 16.5791 30.8545C16.5791 30.7844 16.5977 30.7159 16.6035 30.6943C16.6136 30.6566 16.628 30.6096 16.6445 30.5586C16.6773 30.4577 16.725 30.3199 16.7881 30.1465C16.9146 29.7986 17.1046 29.2934 17.3643 28.6211C17.8842 27.275 18.6841 25.2486 19.7969 22.4483C20.6739 20.2411 21.4815 18.2194 22.0771 16.7402C22.375 16.0006 22.6201 15.395 22.7939 14.9707C22.8807 14.7589 22.9513 14.5904 23.001 14.4727C23.0255 14.4146 23.0453 14.3674 23.0605 14.333L23.0615 14.3311L23.083 14.2852L23.085 14.2803C23.0872 14.2752 23.0907 14.2676 23.0947 14.2598C23.1022 14.2453 23.1139 14.2248 23.1289 14.2041L23.1318 14.2002L23.1357 14.1953L23.1367 14.1943L23.1973 14.1211L23.2002 14.1172L23.208 14.1074L23.2783 14.1797L23.209 14.1084L23.2754 14.044L23.2793 14.0401C23.4594 13.8831 23.69 13.7927 23.9365 13.7383L23.9473 13.7363L24.0459 13.7256L24.0518 13.7256C24.0798 13.7241 24.1194 13.7221 24.167 13.7207C24.2598 13.718 24.3893 13.7161 24.5469 13.7139C24.8645 13.7093 25.3109 13.7051 25.8516 13.7022C26.9347 13.6962 28.4031 13.6938 29.9932 13.6963ZM29.3955 16.1797C27.5895 16.1797 26.4443 16.1827 25.748 16.1934C25.4277 16.1983 25.2064 16.2052 25.0625 16.2129C24.7347 17.0346 23.5345 20.063 22.3398 23.0742C21.6558 24.7983 20.9742 26.5168 20.4619 27.8096C20.2059 28.4556 19.9917 28.9965 19.8408 29.3779C19.8119 29.451 19.7854 29.5159 19.7617 29.5752L23.6875 29.5899C25.7838 29.5973 26.9209 29.6032 27.5557 29.6192C28.1554 29.6342 28.3843 29.654 28.5762 29.7481C28.9798 29.9461 29.2533 30.3543 29.2539 30.8086C29.2539 30.8659 29.2414 30.946 29.2324 30.999C29.2208 31.068 29.2048 31.1602 29.1836 31.2705C29.1413 31.4909 29.0797 31.7939 29.0049 32.1543C28.8552 32.8755 28.6485 33.8363 28.4219 34.8633C28.2118 35.8154 28.0551 36.543 27.9385 37.0918C28.0917 36.8985 28.2604 36.6873 28.4404 36.459C29.2859 35.3867 30.4008 33.9716 31.5107 32.5606C32.6204 31.1498 33.7248 29.7426 34.5527 28.6875C34.9083 28.2344 35.2127 27.8449 35.4443 27.5488C35.335 27.5472 35.2159 27.5454 35.0879 27.544C34.3765 27.536 33.394 27.5289 32.3135 27.5244C30.4933 27.5169 29.499 27.5112 28.9375 27.4951C28.4042 27.4799 28.1861 27.459 27.9971 27.3662C27.5817 27.1622 27.3197 26.7547 27.3193 26.2901C27.3193 26.1381 27.3749 25.992 27.4521 25.8301C27.5338 25.659 27.6691 25.413 27.8838 25.0449C28.3159 24.3043 29.097 23.0231 30.4893 20.749C31.3448 19.3517 32.1247 18.0751 32.6924 17.1455C32.9219 16.7697 33.1158 16.45 33.2666 16.2022C33.084 16.1991 32.8684 16.1959 32.625 16.1934C31.7991 16.1848 30.656 16.1797 29.3955 16.1797Z" fill="#FAFBFC"/>
<line x1="54.6713" y1="41.3548" x2="60.2376" y2="33.4029" stroke="#2863E4" stroke-width="2.5" stroke-linecap="round"/>
</g>
<defs>
<clipPath id="clip0_167_10083">
<rect width="56" height="56" rx="28" fill="white"/>
</clipPath>
</defs>
</svg>
