<svg width="56" height="56" viewBox="0 0 56 56" fill="none" xmlns="http://www.w3.org/2000/svg">
<rect width="56" height="56" rx="28" fill="#2863E4"/>
<path d="M24.7612 30.5797C25.5983 30.2679 26.5163 30.9499 26.5107 31.8366C26.5098 31.9684 26.4889 32.1048 26.4576 32.2221L26.4595 32.2239L26.4439 32.2769L26.4402 32.2897L26.4375 32.2998L26.4348 32.308L26.4027 32.3875L26.4 32.3948L26.3981 32.3939L26.3972 32.4003C26.3938 32.4091 26.3872 32.4203 26.3862 32.4222L26.345 32.4998L26.3038 32.5784L26.2755 32.5647C26.2697 32.5712 26.2643 32.5787 26.2581 32.5857C26.2022 32.6474 26.1225 32.7302 26.0273 32.8305C25.8346 33.0336 25.5627 33.3149 25.2327 33.6527C24.5714 34.3294 23.6717 35.2379 22.6948 36.2141L19.5921 39.3127L20.536 39.3145C21.4101 39.3151 21.904 39.3162 22.2123 39.3711C22.3761 39.4004 22.5093 39.4485 22.6271 39.5292C22.7386 39.6058 22.8219 39.703 22.8972 39.7941C23.5713 40.6105 23.1042 41.7633 22.0686 41.9545C21.9983 41.9673 21.8735 41.9742 21.7216 41.9801C21.5609 41.9863 21.3463 41.9914 21.0826 41.9947C20.5554 42.0013 19.8247 42.0015 18.9164 41.9965C17.6076 41.9893 16.8971 41.9842 16.494 41.9691C16.1021 41.9545 15.9518 41.9313 15.8064 41.854C15.5091 41.6957 15.3177 41.5115 15.1628 41.2246C15.1301 41.1639 15.0963 41.0959 15.0731 40.9844C15.0527 40.8862 15.0391 40.7559 15.031 40.5623C15.0146 40.1738 15.011 39.4657 15.0035 38.0941C14.9985 37.1883 14.9987 36.4596 15.0053 35.9337C15.0087 35.6703 15.0137 35.4556 15.02 35.2951C15.0259 35.1427 15.0347 35.0196 15.0474 34.9498L15.0483 34.9453L15.0493 34.9379L15.0895 34.7753L15.0905 34.7717L15.0923 34.7653L15.095 34.7571L15.1536 34.6045L15.1555 34.6C15.5123 33.8171 16.4961 33.5338 17.2127 34.1231C17.3039 34.1982 17.4013 34.281 17.4782 34.3926C17.5587 34.5097 17.6071 34.6414 17.6365 34.8055C17.6916 35.113 17.6936 35.6057 17.6942 36.4781V37.4144L20.8262 34.293C21.8118 33.3103 22.7126 32.4152 23.3668 31.7672C23.6935 31.4436 23.9598 31.1808 24.145 30.999C24.2367 30.9089 24.3108 30.8356 24.3611 30.787C24.3799 30.7689 24.4042 30.745 24.4188 30.7313L24.4673 30.6856L24.4847 30.6692L24.5067 30.6628L24.5295 30.6564L24.5735 30.6445C24.5872 30.6405 24.6008 30.6367 24.6156 30.6317C24.6543 30.6187 24.7065 30.6001 24.7612 30.5797ZM31.9371 30.5175C31.9974 30.5244 32.0589 30.5352 32.1183 30.5486L32.1238 30.5495L32.2877 30.5979L32.2969 30.5998L32.3015 30.6025L32.3033 30.6034L32.3939 30.6418L32.4113 30.6491L32.4141 30.65L32.426 30.6555L32.4388 30.6619L32.4489 30.671L32.4525 30.6747L32.4662 30.6847L32.4672 30.6856L32.4946 30.7075L32.4965 30.7094C32.5159 30.7257 32.5437 30.7485 32.5752 30.777C32.6363 30.8322 32.7183 30.9112 32.8178 31.0053C33.0196 31.1964 33.3003 31.4665 33.6381 31.7955C34.3139 32.4536 35.2232 33.3495 36.2016 34.3241L39.3052 37.4144L39.3062 36.479C39.3068 35.6058 39.3106 35.113 39.3657 34.8055L39.3666 34.8018L39.3904 34.6922L39.3913 34.6886C39.4208 34.5767 39.4619 34.4803 39.5222 34.3926C39.5993 34.2807 39.6986 34.1979 39.7896 34.1231C40.5987 33.4581 41.7346 33.9049 41.9447 34.9151L41.9493 34.9197L41.9548 34.9489C41.9675 35.019 41.9745 35.1437 41.9804 35.2951C41.9867 35.4562 41.9908 35.6714 41.9941 35.9337C42.0008 36.4594 42.0019 37.188 41.9969 38.0941C41.9897 39.4001 41.9845 40.109 41.9694 40.5112C41.9547 40.9029 41.9314 41.0524 41.8541 41.1972C41.6954 41.4939 41.5096 41.6847 41.2214 41.8394C41.1611 41.8718 41.0941 41.9058 40.9825 41.9289C40.8838 41.9493 40.7531 41.961 40.5595 41.9691C40.1702 41.9854 39.4597 41.989 38.0839 41.9965C37.1763 42.0015 36.4466 42.0013 35.9196 41.9947C35.656 41.9914 35.4413 41.9863 35.2806 41.9801C35.128 41.9742 35.002 41.9674 34.9318 41.9545C33.8961 41.7632 33.4307 40.6104 34.105 39.7941C34.1803 39.7029 34.2634 39.6059 34.3751 39.5292C34.4929 39.4485 34.6259 39.4004 34.7899 39.3711C35.0982 39.3163 35.5926 39.3151 36.4662 39.3145L37.4055 39.3127L34.3055 36.2141C33.329 35.2382 32.4289 34.3293 31.7677 33.6527C31.4378 33.3151 31.1655 33.0334 30.973 32.8305C30.8779 32.7302 30.7998 32.6472 30.7441 32.5857C30.7398 32.5809 30.7355 32.5757 30.7313 32.5711L30.6883 32.5957L30.6471 32.5007L30.6077 32.4076L30.6032 32.3966L30.6004 32.3911L30.5977 32.3847L30.5958 32.3783L30.5949 32.3765C30.5288 32.2251 30.4909 32.0171 30.4896 31.8366C30.4858 31.239 30.8808 30.7319 31.461 30.5468C31.6049 30.5012 31.7828 30.5002 31.9371 30.5175ZM21.0377 15.074C21.3086 15.0779 21.5427 15.0829 21.7189 15.0886C21.8093 15.0916 21.8846 15.0945 21.9413 15.0977H21.9487L22.0732 15.1096H22.0759L22.0833 15.1105L22.0897 15.1114L22.097 15.1142L22.0997 15.1151L22.2572 15.1553L22.4431 15.1818L22.4101 15.2138C23.1986 15.5633 23.4858 16.5552 22.8972 17.2682C22.8218 17.3594 22.7385 17.4565 22.6271 17.5331C22.5106 17.613 22.3782 17.6625 22.2123 17.6921C21.904 17.747 21.4091 17.7481 20.5351 17.7487H19.593L22.6948 20.8491C23.6718 21.8254 24.5714 22.7338 25.2327 23.4105C25.5628 23.7484 25.8347 24.0296 26.0273 24.2327C26.1226 24.3331 26.2022 24.4158 26.2581 24.4775C26.263 24.4829 26.2672 24.4888 26.2718 24.494L26.3533 24.5625L26.3926 24.652L26.4302 24.7379L26.4329 24.7424L26.4366 24.7497L26.4393 24.757C26.6625 25.3374 26.4049 26.0468 25.8543 26.3694C25.6824 26.4699 25.4794 26.5272 25.2748 26.542L25.2958 26.553L25.2464 26.5448C25.0621 26.5544 24.8784 26.5262 24.7136 26.4634L24.5552 26.3949L23.9207 25.8039C23.761 25.6507 23.5739 25.4718 23.3668 25.2704C22.6886 24.6107 21.777 23.7127 20.7988 22.7382L17.6942 19.646V20.5842C17.6936 21.4568 17.6916 21.9493 17.6365 22.2568C17.6146 22.3793 17.5819 22.4846 17.5331 22.5793L17.5303 22.5838L17.4818 22.6651L17.4782 22.6706C17.4013 22.782 17.3041 22.8649 17.2127 22.9401C16.4228 23.5895 15.3089 23.1794 15.0667 22.2084L15.052 22.1499L15.0538 22.1472L15.0511 22.1326L15.0474 22.1198L15.0456 22.1052C15.0338 22.0339 15.0256 21.9127 15.02 21.7672C15.0137 21.6068 15.0086 21.3927 15.0053 21.1296C14.9987 20.6037 14.9985 19.875 15.0035 18.9691C15.0107 17.6633 15.0159 16.9543 15.031 16.552C15.0456 16.1625 15.0681 16.011 15.1454 15.866C15.3688 15.4482 15.688 15.1993 16.1378 15.1087L16.1561 15.1051L16.277 15.0932L16.2861 15.0923C16.3446 15.0889 16.4205 15.0876 16.504 15.085C16.678 15.0795 16.9098 15.0748 17.1788 15.0713C17.7179 15.0642 18.4129 15.0607 19.1069 15.0612C19.8007 15.0617 20.496 15.0662 21.0377 15.074ZM35.4124 15.0886C35.5577 15.0855 35.7297 15.0827 35.9214 15.0804C36.2032 15.077 36.5302 15.0743 36.8855 15.0731H38.0198L39.6678 15.0795C40.0753 15.0823 40.356 15.0864 40.554 15.0941C40.6535 15.098 40.7353 15.1024 40.804 15.1087H40.8067L40.814 15.1096L40.9706 15.1325L40.9889 15.1352L41.1042 15.169L41.1125 15.1699L41.1207 15.1736C41.1621 15.1901 41.1981 15.2113 41.2214 15.2238C41.5099 15.3787 41.6954 15.5693 41.8541 15.866C41.9314 16.0107 41.9547 16.1602 41.9694 16.552C41.9845 16.9543 41.9897 17.6633 41.9969 18.9691C42.0019 19.8753 42.0008 20.6039 41.9941 21.1296C41.9908 21.3916 41.9866 21.6061 41.9804 21.7672C41.9779 21.8316 41.9742 21.8887 41.9713 21.9371L41.9731 21.9389L41.9694 21.9828L41.9594 22.0842L41.9584 22.0951L41.9575 22.0969L41.9566 22.1043L41.9557 22.117L41.9511 22.1289L41.9484 22.1362C41.7447 23.1543 40.6019 23.6076 39.7896 22.9401C39.7211 22.8838 39.6474 22.8227 39.5836 22.7492L39.5808 22.7455L39.5259 22.6752L39.5222 22.6706C39.4615 22.5823 39.4205 22.4853 39.3913 22.3737L39.3657 22.2568C39.3106 21.9493 39.3068 21.4571 39.3062 20.5842L39.3052 19.646L36.2016 22.7382C35.2231 23.713 34.3119 24.6106 33.6335 25.2704C33.2948 25.6 33.0132 25.8711 32.8096 26.0633C32.7078 26.1595 32.6238 26.2373 32.5624 26.2926C32.538 26.3146 32.5076 26.3447 32.4846 26.3639L32.48 26.3666L32.4855 26.3758L32.426 26.4077L32.3683 26.4497L32.3619 26.4406L32.3152 26.4653L32.2374 26.5055L32.2236 26.4835C31.8794 26.5921 31.4637 26.5539 31.1479 26.3694C30.562 26.0265 30.3049 25.2418 30.6141 24.6419L30.6572 24.5588L30.6993 24.4766L30.7304 24.4921C30.7348 24.4873 30.7397 24.4824 30.7441 24.4775C30.7998 24.416 30.8778 24.333 30.973 24.2327C31.1655 24.0298 31.4378 23.7482 31.7677 23.4105C32.4289 22.7339 33.3289 21.8251 34.3055 20.8491L37.4064 17.7487H36.4671C35.7592 17.7482 35.3498 17.746 35.0956 17.7323C34.907 17.7221 34.7847 17.7045 34.6772 17.6701L34.669 17.6692L34.6608 17.6656L34.5829 17.6345L34.5775 17.6327L34.5683 17.63C34.3007 17.5084 34.0894 17.2875 33.9549 17.0407C33.8201 16.7932 33.7516 16.4966 33.8002 16.2095C33.8451 15.9453 33.9897 15.6989 34.1737 15.5097C34.3579 15.3209 34.6025 15.1683 34.8668 15.1151L35.1487 15.0585L35.2907 15.0292L35.4335 15L35.4124 15.0886Z" fill="#FAFBFC"/>
<circle cx="28" cy="28" r="1" fill="#2863E4"/>
</svg>
