<svg width="23" height="20" viewBox="0 0 23 20" fill="none" xmlns="http://www.w3.org/2000/svg">
<path d="M3.32135 4.55875C8.75453 4.64851 20.5113 12.5618 22.2145 13.7276C22.288 13.7779 22.3727 13.707 22.34 13.6242C21.1364 10.5702 12.4886 5.53266 8.01961 3.24456C7.94439 3.20605 7.95581 3.10011 8.03718 3.07736C8.77743 2.87044 10.4784 2.55404 12.8453 2.55404C15.4157 2.55404 17.5736 3.10138 18.3963 3.39594C18.4338 3.40938 18.458 3.44495 18.458 3.48486V7.21716C18.458 7.24959 18.4744 7.2798 18.5016 7.29742L20.9796 8.90259C21.0431 8.94374 21.1269 8.89809 21.1269 8.82233V1.67135C21.1269 1.6345 21.1073 1.60158 21.0739 1.58613C19.8957 1.04157 16.4523 0 11.6285 0C6.81173 0 4.07976 1.03854 3.26852 1.58376C3.24278 1.60106 3.22896 1.62948 3.22896 1.66052V4.46238C3.22896 4.51518 3.26862 4.55787 3.32135 4.55875Z" fill="#091E42"/>
<path fill-rule="evenodd" clip-rule="evenodd" d="M18.8085 13.4985C18.9281 13.2264 18.9977 12.9719 19.0065 12.7413C19.0077 12.7095 18.9931 12.6819 18.9668 12.6641M2.0302 5.33024C1.37105 5.22512 0.724388 5.15459 0.0963051 5.12453C-0.0141451 5.11924 -0.0367692 5.26878 0.0689065 5.30137M14.6436 12.5298C15.1815 12.8952 15.5712 13.174 15.7879 13.3317C15.9179 13.4264 15.9856 13.4774 15.9856 13.4774M15.9856 13.4774L15.9062 13.5552L15.9856 13.4774ZM12.2726 17.1167L12.2714 17.1179C12.2399 17.1488 12.1909 17.1534 12.1543 17.1286C12.1917 17.1539 12.2403 17.1483 12.2726 17.1167Z" fill="#091E42"/>
<path fill-rule="evenodd" clip-rule="evenodd" d="M3.78048 8.87613C3.91778 14.4479 11.4891 19.5239 12.1686 19.9684C12.2013 19.9898 12.2368 19.986 12.2684 19.9632C14.261 18.5271 17.9188 15.5239 18.8085 13.4985C18.9281 13.2264 18.9977 12.9719 19.0065 12.7413C19.0077 12.7095 18.9931 12.6819 18.9668 12.6641C15.6723 10.4456 8.28845 6.32836 2.0302 5.33024C1.37105 5.22512 0.724388 5.15459 0.0963051 5.12453C-0.0141451 5.11924 -0.0367692 5.26878 0.0689065 5.30137C6.45459 7.27068 12.146 10.8333 14.6436 12.5298C15.1815 12.8952 15.5712 13.174 15.7879 13.3317C15.9179 13.4264 15.9856 13.4774 15.9856 13.4774L15.9062 13.5552L12.2726 17.1167L12.2714 17.1179C12.2399 17.1488 12.1909 17.1534 12.1543 17.1286C10.382 15.9299 6.97003 12.9714 6.91948 10.315C6.91879 10.2784 6.89809 10.2452 6.86526 10.2292L3.91592 8.79001C3.85249 8.75906 3.77874 8.80551 3.78048 8.87613ZM15.8965 13.4112C15.9436 13.4459 15.948 13.5143 15.9062 13.5552L15.9856 13.4774C15.9856 13.4774 15.9554 13.4546 15.8965 13.4112ZM15.9856 13.4774C15.9856 13.4774 15.9179 13.4264 15.7879 13.3317C15.831 13.3631 15.8673 13.3897 15.8965 13.4112C15.9554 13.4546 15.9856 13.4774 15.9856 13.4774Z" fill="#091E42"/>
</svg>
