<svg width="37" height="37" viewBox="0 0 37 37" fill="none" xmlns="http://www.w3.org/2000/svg">
<g clip-path="url(#clip0_171_10556)">
<path d="M30.054 3.61746C26.7951 1.9698 22.8071 1.00061 18.5 1.00061C14.1929 1.00061 10.2049 1.9698 6.94589 3.61746C5.3477 4.42547 4.5486 4.82947 3.77431 6.09973C3 7.37 3 8.59995 3 11.0599V17.1655C3 27.1115 10.823 32.6413 15.3535 35.0098C16.6171 35.6704 17.2488 36.0006 18.5 36.0006C19.7512 36.0006 20.3829 35.6704 21.6463 35.0098C26.177 32.6413 34 27.1115 34 17.1655V11.0599C34 8.59997 34 7.37002 33.2257 6.09973C32.4514 4.82945 31.6523 4.42547 30.054 3.61746Z" stroke="black" stroke-width="2.5" stroke-linecap="round" stroke-linejoin="round"/>
<path d="M12 23.0006C12 19.6494 14.9101 16.9326 18.5 16.9326C22.0899 16.9326 25 19.6494 25 23.0006M22.2143 13.468C22.2143 15.3831 20.5514 16.9354 18.5 16.9354C16.4486 16.9354 14.7857 15.3831 14.7857 13.468C14.7857 11.553 16.4486 10.0006 18.5 10.0006C20.5514 10.0006 22.2143 11.553 22.2143 13.468Z" stroke="black" stroke-width="2.5" stroke-linecap="round" stroke-linejoin="round"/>
</g>
<defs>
<clipPath id="clip0_171_10556">
<rect width="37" height="37" fill="white"/>
</clipPath>
</defs>
</svg>
