<svg width="13" height="13" viewBox="0 0 13 13" fill="none" xmlns="http://www.w3.org/2000/svg">
<path fill-rule="evenodd" clip-rule="evenodd" d="M5.7221 0.176517C5.55816 0.27353 5.23028 0.5217 4.99358 0.72787L4.56314 1.10278V3.82701V6.55124L2.89754 6.87113C1.98142 7.04704 1.19473 7.21852 1.14922 7.25207C1.05594 7.32097 0.764818 8.1794 0.730458 8.48701C0.710396 8.66642 0.728287 8.68621 0.895072 8.66937C1.10266 8.6483 4.22463 8.06669 4.43214 8.01033C4.55221 7.97773 4.56314 8.0475 4.56314 8.84676V9.71867L4.13271 9.79864C3.896 9.84259 2.96117 10.0208 2.05538 10.1948L0.408492 10.5111L0.28243 10.8153C0.122757 11.2007 -0.0461993 11.926 0.0115915 11.9778C0.0487214 12.0112 4.10291 11.2768 4.51531 11.1621C4.77754 11.0891 5.2597 10.6339 5.67868 10.0637L6.09774 9.49338L6.13517 8.59181L6.1726 7.69017L6.77147 7.57075C7.72749 7.38008 7.63234 7.24167 7.63234 8.82247C7.63234 9.57892 7.64357 10.1978 7.65735 10.1978C7.77375 10.1978 12.3474 9.31042 12.4663 9.26473C12.5771 9.22213 12.6667 9.064 12.7795 8.7119C13.0264 7.94143 13.0514 7.78256 12.9265 7.78256C12.8674 7.78256 12.0312 7.93351 11.0684 8.11801C10.1056 8.30251 9.29233 8.45347 9.26112 8.45347C9.2299 8.45347 9.20437 8.15216 9.20437 7.78383C9.20437 7.14439 9.21193 7.11265 9.3728 7.07965C9.46548 7.06066 10.1981 6.92077 11.001 6.76888C11.8038 6.61699 12.5026 6.46241 12.5537 6.42537C12.717 6.30723 13.0993 4.96433 12.9694 4.96507C12.9367 4.96527 12.1182 5.11603 11.1507 5.30019C10.1831 5.48436 9.34945 5.63511 9.29795 5.63531C9.22473 5.63558 9.20437 5.09462 9.20437 3.15328C9.20437 1.78798 9.17847 0.67091 9.14688 0.67091C9.02464 0.67091 8.47398 1.04065 8.06278 1.39878L7.63234 1.77369V3.86706V5.96037L7.12705 6.06033C6.8491 6.11535 6.51223 6.18056 6.37846 6.20525L6.13517 6.25013V3.12503C6.13517 1.40629 6.10927 0 6.07768 0C6.04609 0 5.88604 0.0794358 5.7221 0.176517ZM10.4064 11.0405C9.19412 11.2757 8.16017 11.4826 8.10867 11.5003C8.00155 11.5372 7.74605 12.2347 7.6673 12.705C7.61565 13.014 7.61887 13.0213 7.79172 12.9849C7.88933 12.9644 8.99507 12.751 10.2489 12.5106C11.5028 12.2702 12.5559 12.0365 12.589 11.9911C12.6642 11.8884 12.9212 11.1116 12.9769 10.8184C13.0155 10.6157 13.0041 10.6008 12.8144 10.6066C12.7022 10.61 11.6186 10.8053 10.4064 11.0405Z" fill="#0CBA65"/>
</svg>
