<svg width="20" height="20" viewBox="0 0 20 20" fill="none" xmlns="http://www.w3.org/2000/svg">
<path d="M2.5 9.16504C2.5 6.04026 2.5 4.47787 3.29576 3.3826C3.55276 3.02887 3.86383 2.7178 4.21756 2.4608C5.31283 1.66504 6.87522 1.66504 10 1.66504C13.1247 1.66504 14.6872 1.66504 15.7824 2.4608C16.1362 2.7178 16.4472 3.02887 16.7042 3.3826C17.5 4.47787 17.5 6.04026 17.5 9.16504V10.8317C17.5 13.9565 17.5 15.5189 16.7042 16.6141C16.4472 16.9679 16.1362 17.279 15.7824 17.536C14.6872 18.3317 13.1247 18.3317 10 18.3317C6.87522 18.3317 5.31283 18.3317 4.21756 17.536C3.86383 17.279 3.55276 16.9679 3.29576 16.6141C2.5 15.5189 2.5 13.9565 2.5 10.8317V9.16504Z" stroke="#8993A4" stroke-width="1.75" stroke-linecap="round"/>
<path d="M12.5026 10.5322H5.83594M8.33594 14.6989H5.83594" stroke="#8993A4" stroke-width="1.75" stroke-linecap="round"/>
<path d="M7.84375 6.1377H5.34375M5.86458 7.3877L7.32292 4.8877M7.32292 7.3877L5.86458 4.8877" stroke="#8993A4" stroke-width="0.875" stroke-linecap="round"/>
</svg>
