<svg width="20" height="20" viewBox="0 0 20 20" fill="none" xmlns="http://www.w3.org/2000/svg">
<path d="M1.72273 9.92758C1.81892 9.40283 2.24206 8.86633 2.92491 8.40325C4.15443 7.56937 5.5587 7.5728 6.96428 7.52076C7.43075 7.50347 8.6833 7.49777 10.0013 7.50076C11.3193 7.49777 12.5719 7.50347 13.0383 7.52076C14.4439 7.5728 15.8481 7.56937 17.0777 8.40325C17.7606 8.86633 18.1837 9.40283 18.2799 9.92758C18.3625 10.378 18.3497 11.9237 18.2545 13.0144C18.2042 13.5894 18.1531 13.8693 18.0768 13.987C17.8466 14.3419 17.1818 14.6404 16.204 14.8278C15.2863 15.0038 15.4227 15 10.0013 15C4.57985 15 4.71631 15.0038 3.79866 14.8278C2.82079 14.6404 2.15608 14.3419 1.9258 13.987C1.8495 13.8693 1.79838 13.5894 1.74813 13.0144C1.65287 11.9237 1.64013 10.378 1.72273 9.92758Z" stroke="#172B4D" stroke-width="1.6" stroke-linecap="round"/>
<path d="M3.75 7.5L4.84438 3.74176C4.94489 3.49174 5.14025 3.28292 5.41557 3.1893C8.11805 2.27023 11.8819 2.27023 14.5844 3.1893C14.8598 3.28292 15.0551 3.49174 15.1557 3.74176L16.25 7.5" stroke="#172B4D" stroke-width="1.6" stroke-linecap="round"/>
<path d="M2.08203 10L3.33203 10.4167" stroke="#172B4D" stroke-width="1.6" stroke-linecap="round"/>
<path d="M17.918 10L16.668 10.4167" stroke="#172B4D" stroke-width="1.6" stroke-linecap="round"/>
<path d="M6.66797 14.5833L6.87269 14.0715C7.17714 13.3104 7.32937 12.9298 7.64681 12.7149C7.96424 12.5 8.37414 12.5 9.19389 12.5H10.8087C11.6285 12.5 12.0384 12.5 12.3558 12.7149C12.6732 12.9298 12.8255 13.3104 13.1299 14.0715L13.3346 14.5833" stroke="#172B4D" stroke-width="1.6" stroke-linecap="round"/>
<path d="M5.83272 15.4686V16.137C5.83277 16.8657 5.80086 17.0022 5.58089 17.2149C5.51653 17.2771 5.38571 17.3668 5.29023 17.4141C5.12304 17.4968 5.06696 17.5 3.77111 17.5C2.44614 17.5 2.42244 17.4986 2.21828 17.4063C2.10421 17.3547 1.96033 17.2518 1.89853 17.1773C1.68038 16.9148 1.67 16.8374 1.66797 15.4549L1.66853 12.5" stroke="#172B4D" stroke-width="1.6" stroke-linecap="round"/>
<path d="M14.1641 15.4686V16.137C14.164 16.8657 14.1959 17.0022 14.4159 17.2149C14.4802 17.2771 14.6111 17.3668 14.7066 17.4141C14.8737 17.4968 14.9298 17.5 16.2256 17.5C17.5506 17.5 17.5743 17.4986 17.7785 17.4063C17.8926 17.3547 18.0365 17.2518 18.0982 17.1773C18.3164 16.9148 18.3267 16.8374 18.3288 15.4549L18.3282 12.5" stroke="#172B4D" stroke-width="1.6" stroke-linecap="round"/>
<path d="M16.668 7.4987L17.918 7.08203" stroke="#172B4D" stroke-width="1.6" stroke-linecap="round"/>
<path d="M3.33203 7.4987L2.08203 7.08203" stroke="#172B4D" stroke-width="1.6" stroke-linecap="round"/>
</svg>
