<svg width="28" height="28" viewBox="0 0 28 28" fill="none" xmlns="http://www.w3.org/2000/svg">
<path d="M21.8269 4.07659C19.6192 2.97815 16.9177 2.33203 14 2.33203C11.0823 2.33203 8.38075 2.97815 6.17302 4.07659C5.09038 4.61527 4.54905 4.88461 4.02453 5.73144C3.5 6.57829 3.5 7.39826 3.5 9.03819V13.1086C3.5 19.7393 8.79942 23.4258 11.8685 25.0048C12.7245 25.4452 13.1524 25.6654 14 25.6654C14.8476 25.6654 15.2755 25.4452 16.1314 25.0048C19.2005 23.4258 24.5 19.7393 24.5 13.1086V9.03819C24.5 7.39827 24.5 6.5783 23.9755 5.73144C23.4509 4.88459 22.9096 4.61527 21.8269 4.07659Z" stroke="#18C92F" stroke-width="2.5" stroke-linecap="round" stroke-linejoin="round"/>
<path d="M17.5 12.832C17.5 14.765 15.933 16.332 14 16.332C12.0669 16.332 10.5 14.765 10.5 12.832C10.5 10.899 12.0669 9.33203 14 9.33203C15.933 9.33203 17.5 10.899 17.5 12.832Z" stroke="#18C92F" stroke-width="2.5" stroke-linecap="round" stroke-linejoin="round"/>
</svg>
