<svg width="29" height="25" viewBox="0 0 29 25" fill="none" xmlns="http://www.w3.org/2000/svg">
<g opacity="0.6">
<path d="M4.18626 5.69843C11.0368 5.81063 25.8606 15.7023 28.0081 17.1595C28.1007 17.2223 28.2075 17.1338 28.1663 17.0302C26.6487 13.2128 15.7449 6.91583 10.1102 4.0557C10.0153 4.00756 10.0297 3.87513 10.1323 3.8467C11.0657 3.58805 13.2104 3.19256 16.1947 3.19256C19.4357 3.19256 22.1565 3.87672 23.1938 4.24492C23.2411 4.26173 23.2716 4.30619 23.2716 4.35608V9.02145C23.2716 9.06199 23.2923 9.09975 23.3265 9.12177L26.451 11.1282C26.5311 11.1797 26.6368 11.1226 26.6368 11.0279V2.08919C26.6368 2.04312 26.6121 2.00198 26.5699 1.98267C25.0843 1.30196 20.7427 0 14.6605 0C8.58718 0 5.14252 1.29818 4.11965 1.9797C4.08719 2.00132 4.06977 2.03685 4.06977 2.07565V5.57798C4.06977 5.64397 4.11977 5.69734 4.18626 5.69843Z" fill="#FAFBFC"/>
<path fill-rule="evenodd" clip-rule="evenodd" d="M23.7136 16.8732C23.8643 16.533 23.952 16.2149 23.9632 15.9266C23.9647 15.8869 23.9463 15.8523 23.9131 15.8302M2.55829 6.6628C1.72719 6.53139 0.91183 6.44324 0.1199 6.40566C-0.0193637 6.39905 -0.0478898 6.58597 0.0853536 6.62671M18.4622 15.6623C19.1403 16.119 19.6317 16.4675 19.9049 16.6647C20.0688 16.783 20.1542 16.8468 20.1542 16.8468M20.1542 16.8468L20.0542 16.944L20.1542 16.8468ZM15.4726 21.3959L15.4712 21.3972C15.4313 21.436 15.3697 21.4418 15.3235 21.4108C15.3707 21.4424 15.432 21.4354 15.4726 21.3959Z" fill="#FAFBFC"/>
<path fill-rule="evenodd" clip-rule="evenodd" d="M4.76516 11.0952C4.93828 18.0599 14.4847 24.4049 15.3415 24.9606C15.3827 24.9873 15.4274 24.9825 15.4674 24.954C17.9797 23.1588 22.5917 19.4049 23.7136 16.8732C23.8643 16.533 23.952 16.2149 23.9632 15.9266C23.9647 15.8869 23.9463 15.8523 23.9131 15.8302C19.7592 13.057 10.4491 7.91045 2.55829 6.6628C1.72719 6.53139 0.91183 6.44324 0.1199 6.40566C-0.0193637 6.39905 -0.0478898 6.58597 0.0853536 6.62671C8.13686 9.08835 15.313 13.5416 18.4622 15.6623C19.1403 16.119 19.6317 16.4675 19.9049 16.6647C20.0688 16.783 20.1542 16.8468 20.1542 16.8468L20.0542 16.944L15.4726 21.3959L15.4712 21.3972C15.4313 21.436 15.3697 21.4418 15.3235 21.4108C13.0888 19.9124 8.78677 16.2142 8.72304 12.8937C8.72216 12.848 8.69606 12.8066 8.65467 12.7865L4.93593 10.9875C4.85595 10.9488 4.76297 11.0069 4.76516 11.0952ZM20.0419 16.7641C20.1012 16.8074 20.1068 16.8928 20.0542 16.944L20.1542 16.8468C20.1542 16.8468 20.1161 16.8183 20.0419 16.7641ZM20.1542 16.8468C20.1542 16.8468 20.0688 16.783 19.9049 16.6647C19.9593 16.7039 20.005 16.7371 20.0419 16.7641C20.1161 16.8183 20.1542 16.8468 20.1542 16.8468Z" fill="#FAFBFC"/>
</g>
</svg>
