<svg width="462" height="403" viewBox="0 0 462 403" fill="none" xmlns="http://www.w3.org/2000/svg">
<g opacity="0.06">
<path d="M68.5834 91.8587C180.79 93.6674 423.594 253.121 458.768 276.611C460.286 277.624 462.035 276.197 461.36 274.527C436.503 212.99 257.906 111.483 165.613 65.3779C164.059 64.6018 164.295 62.4671 165.976 62.0088C181.263 57.8394 216.393 51.464 265.273 51.464C318.358 51.464 362.924 62.4928 379.913 68.4282C380.689 68.699 381.187 69.4157 381.187 70.22V145.426C381.187 146.079 381.526 146.688 382.088 147.043L433.264 179.387C434.576 180.216 436.308 179.297 436.308 177.77V33.6777C436.308 32.9351 435.903 32.2719 435.213 31.9606C410.879 20.9876 339.766 0 240.145 0C140.667 0 84.2463 20.9267 67.4924 31.9127C66.9608 32.2613 66.6753 32.834 66.6753 33.4594V89.917C66.6753 90.9808 67.4944 91.8412 68.5834 91.8587Z" fill="#FAFBFC"/>
<path fill-rule="evenodd" clip-rule="evenodd" d="M388.427 271.995C390.896 266.512 392.333 261.384 392.516 256.736C392.541 256.096 392.24 255.54 391.696 255.182M41.9183 107.404C28.3055 105.286 14.9505 103.865 1.97923 103.259C-0.301808 103.153 -0.769045 106.166 1.41339 106.823M302.413 252.476C313.521 259.838 321.57 265.456 326.044 268.634C328.729 270.541 330.127 271.57 330.127 271.57M330.127 271.57L328.489 273.137L330.127 271.57ZM253.446 344.901L252.483 345.822C252.378 345.923 252.217 345.938 252.095 345.858C251.735 345.623 251.371 345.385 251.004 345.142C251.776 345.652 252.78 345.538 253.446 344.901Z" fill="#FAFBFC"/>
<path fill-rule="evenodd" clip-rule="evenodd" d="M78.0654 178.854C80.901 291.126 237.265 393.407 251.299 402.364C251.973 402.795 252.706 402.718 253.36 402.259C294.511 373.32 370.052 312.806 388.427 271.995C390.896 266.512 392.333 261.384 392.516 256.736C392.541 256.096 392.24 255.54 391.696 255.182C323.657 210.479 171.165 127.516 41.9183 107.404C28.3055 105.286 14.9505 103.865 1.97923 103.259C-0.301808 103.153 -0.769045 106.166 1.41339 106.823C133.292 146.504 250.832 218.29 302.413 252.476C313.521 259.838 321.57 265.456 326.044 268.634C328.729 270.541 330.127 271.57 330.127 271.57L328.489 273.137L253.446 344.901L252.483 345.822C252.378 345.923 252.217 345.938 252.095 345.858C251.735 345.623 251.371 345.385 251.004 345.142C214.4 320.988 143.937 261.373 142.893 207.846C142.878 207.11 142.451 206.442 141.773 206.119L80.8625 177.119C79.5525 176.495 78.0295 177.431 78.0654 178.854ZM328.288 270.237C329.26 270.935 329.351 272.312 328.489 273.137L330.127 271.57C330.127 271.57 329.503 271.111 328.288 270.237ZM330.127 271.57C330.127 271.57 328.729 270.541 326.044 268.634C326.935 269.267 327.684 269.803 328.288 270.237C329.503 271.111 330.127 271.57 330.127 271.57Z" fill="#FAFBFC"/>
</g>
</svg>
