<svg width="40" height="40" viewBox="0 0 40 40" fill="none" xmlns="http://www.w3.org/2000/svg">
<path d="M20 0.357422C30.8485 0.357422 39.6426 9.15155 39.6426 20C39.6426 30.8485 30.8485 39.6426 20 39.6426C9.15155 39.6426 0.357422 30.8485 0.357422 20C0.357422 9.15155 9.15155 0.357422 20 0.357422Z" fill="#FAFBFF"/>
<path d="M20 0.357422C30.8485 0.357422 39.6426 9.15155 39.6426 20C39.6426 30.8485 30.8485 39.6426 20 39.6426C9.15155 39.6426 0.357422 30.8485 0.357422 20C0.357422 9.15155 9.15155 0.357422 20 0.357422Z" stroke="#E6E6E6" stroke-width="0.714286"/>
<rect x="9.67969" y="10.2734" width="21.4885" height="8.74842" fill="#50BEF6"/>
<rect x="9.67969" y="21.8594" width="21.4885" height="8.74842" fill="#88C535"/>
</svg>
