<svg width="93" height="63" viewBox="0 0 93 63" fill="none" xmlns="http://www.w3.org/2000/svg">
<path d="M5.11224 26H0.645047L7.45174 6.28274H12.8239L19.621 26H15.1538L10.2148 10.7884H10.0608L5.11224 26ZM4.83304 18.2498H15.3849V21.5039H4.83304V18.2498ZM21.9942 6.28274H27.1353L32.5652 19.5303H32.7963L38.2263 6.28274H43.3674V26H39.3238V13.1665H39.1601L34.0575 25.9037H31.304L26.2014 13.1183H26.0378V26H21.9942V6.28274ZM46.802 6.28274H51.9431L57.3731 19.5303H57.6041L63.0341 6.28274H68.1752V26H64.1316V13.1665H63.968L58.8654 25.9037H56.1119L51.0093 13.1183H50.8456V26H46.802V6.28274ZM88.1019 6.28274V26H84.5012L75.923 13.5901H75.7786V26H71.6098V6.28274H75.2683L83.7791 18.683H83.9524V6.28274H88.1019Z" fill="black"/>
<path d="M18.0135 45.4764V53.9357H67.5882C66.8788 52.7384 66.4876 51.3665 66.4876 49.9513V49.5645C66.4877 48.4447 66.7842 47.3443 67.3442 46.3745L67.5207 46.0682C68.5511 44.284 70.4544 43.1848 72.5147 43.1844C74.3749 43.1844 76.1217 44.0812 77.2051 45.5932L77.6256 46.1824C78.3787 47.2341 78.7857 48.4942 78.7859 49.7878C78.7859 52.0014 77.6037 54.0488 75.6866 55.1556L75.5958 55.2075C74.6257 55.7676 73.5233 56.0641 72.4031 56.0641H17.5645L16.5807 57.7643C15.292 59.9963 12.9102 61.3722 10.3329 61.3722C7.7556 61.3722 5.37381 59.9963 4.08515 57.7643L3.76848 57.214C3.03865 55.9499 2.65234 54.5154 2.65234 53.0557V49.5957H4.78079V53.0557C4.78079 54.1421 5.06561 55.2115 5.60881 56.1524L5.92808 56.7026C6.83705 58.2761 8.51573 59.2464 10.3329 59.2464C12.1501 59.2464 13.8288 58.2761 14.7378 56.7026L15.8851 54.7144V45.4764H18.0135ZM88.4054 40.5861V56.4145H86.2796V40.5861H88.4054ZM10.4705 45.1883V47.3167H7.81253V45.1883H10.4705ZM86.4872 35.6206C86.4872 33.5655 88.1543 31.8984 90.2094 31.8984V34.0269C89.3286 34.0269 88.6157 34.7399 88.6157 35.6206V35.8854H90.2094V38.0138H84.8935V35.8854H86.4872V35.6206ZM68.6134 49.9513C68.6134 51.4424 69.2014 52.8714 70.2435 53.9357H72.4031C73.15 53.9357 73.8848 53.7406 74.5316 53.3672L74.625 53.3127C75.8836 52.5856 76.66 51.2414 76.66 49.7878C76.6598 48.9384 76.3914 48.1112 75.8969 47.4205L75.4764 46.8313C74.7923 45.8768 73.6891 45.3103 72.5147 45.3103C71.2138 45.3107 70.0115 46.0058 69.361 47.1324L69.1845 47.4387C68.8114 48.0851 68.6136 48.8182 68.6134 49.5645V49.9513Z" fill="black" stroke="black" stroke-width="1.32898"/>
</svg>
