<svg width="147" height="147" viewBox="0 0 147 147" fill="none" xmlns="http://www.w3.org/2000/svg">
<g filter="url(#filter0_d_3_25440)">
<rect x="9.85596" y="1.23193" width="127.059" height="127.059" rx="10.9534" fill="url(#paint0_linear_3_25440)" shape-rendering="crispEdges"/>
<g filter="url(#filter1_d_3_25440)">
<path fill-rule="evenodd" clip-rule="evenodd" d="M98.6508 42.9409C96.0909 43.339 94.6015 44.1924 93.9299 45.6458L93.6207 46.3146L93.5634 50.4699C93.5318 52.7554 93.4651 54.7114 93.415 54.8166C93.3307 54.9936 93.0268 55.008 89.3444 55.008H85.3648L85.3642 52.5749C85.3637 50.9968 85.3072 49.7681 85.2032 49.0781C84.739 45.9985 83.0602 44.0093 80.28 43.2449C79.5426 43.0421 74.488 42.8749 74.3211 43.0477C74.2704 43.1004 74.1491 43.7094 74.0519 44.401C73.9546 45.0927 73.8483 45.7939 73.8157 45.9593L73.7563 46.26H76.1492C78.5146 46.26 78.5488 46.2633 79.1198 46.5479C79.8299 46.9016 80.3532 47.5756 80.6796 48.5563C80.8927 49.1969 80.9209 49.5626 80.9651 52.2579L81.0141 55.2488L80.7564 55.1557C80.6147 55.1045 78.7783 55.0626 76.6755 55.0626H72.8523L72.6634 56.3202C72.5594 57.0118 72.4481 57.7129 72.416 57.8784L72.3576 58.1791L82.9345 58.1802C92.3132 58.1812 93.6428 58.1604 94.6714 57.9975C95.8136 57.8164 95.8428 57.8172 96.585 58.0483C97.799 58.4266 98.6657 58.5458 100.236 58.5509C101.968 58.5566 102.672 58.4044 104.057 57.7254C105.766 56.8878 106.993 55.3503 107.584 53.3081C107.918 52.1548 107.945 49.4604 107.635 48.3376C106.927 45.7736 105.223 43.9583 102.806 43.1942C102.199 43.0024 101.724 42.9458 100.51 42.9211C99.6678 42.9039 98.8312 42.9129 98.6508 42.9409ZM60.1562 43.092C56.9031 43.3599 54.987 44.7945 54.6075 47.246C54.4642 48.1722 54.6157 49.4858 54.9542 50.251C55.2365 50.8894 56.0947 51.7958 56.713 52.1089C57.8502 52.6847 58.2111 52.7367 61.5812 52.8083C64.6354 52.8731 64.7672 52.8848 65.1547 53.1258C65.6859 53.4561 66.0104 54.1331 66.0081 54.9058C66.0055 55.7424 65.6763 56.2956 64.9711 56.6482C64.4445 56.9115 64.3354 56.9227 62.0186 56.9519C60.6955 56.9686 56.4882 56.9428 52.6692 56.8946C45.8319 56.8082 45.7186 56.8033 45.2754 56.5687C44.0581 55.9249 43.6439 55.1823 43.4611 53.3171C43.3726 52.4136 43.3714 51.6858 43.4568 50.6692C43.6069 48.8833 43.8555 48.1843 44.6189 47.4015C45.4375 46.562 45.8059 46.4787 48.6978 46.4787C50.1891 46.4787 51.029 46.439 51.029 46.3686C51.029 46.2501 51.3148 44.2482 51.4153 43.6629L51.4763 43.3075H48.1536C45.2027 43.3075 44.7365 43.3317 43.9864 43.5235C42.7874 43.8302 41.9119 44.3315 41.0229 45.2206C40.1417 46.1017 39.6862 46.8938 39.26 48.2859C38.9698 49.2335 38.9593 49.355 38.9527 51.8368C38.9463 54.2063 38.9654 54.4743 39.1976 55.2764C39.9042 57.7169 41.3654 59.1698 43.7961 59.8491C44.615 60.078 44.8259 60.0835 54.2001 60.1227C60.5803 60.1494 64.1786 60.1229 64.9998 60.0434C68.6753 59.6877 70.2844 58.1403 70.2929 54.9533C70.2951 54.1254 70.2417 53.7076 70.073 53.2329C69.5524 51.7681 68.4893 50.7616 66.8977 50.2263C66.5096 50.0959 65.658 50.0411 63.2215 49.9899C60.2974 49.9284 60.0208 49.9058 59.6714 49.7007C59.1062 49.3686 58.8487 48.8507 58.848 48.0449C58.8474 47.2768 59.0536 46.9017 59.6791 46.5333C60.0341 46.3242 60.2774 46.3133 65.2593 46.2834L70.4684 46.252L70.6525 45.0258C70.7539 44.3514 70.8641 43.6151 70.8977 43.3895L70.9586 42.9795L66.0512 42.9951C63.3521 43.0036 60.6993 43.0473 60.1562 43.092ZM98.8695 46.6991C98.629 46.747 98.2258 46.8689 97.9736 46.9699C97.5514 47.139 97.5233 47.1749 97.6182 47.4247C97.675 47.5738 97.7214 49.263 97.7214 51.1799V54.6642L98.3501 54.7541C98.6959 54.8035 99.5447 54.8439 100.236 54.8439C101.317 54.8439 101.556 54.8107 101.931 54.608C102.75 54.166 103.263 53.408 103.517 52.2644C103.709 51.4037 103.607 49.0022 103.35 48.2903C103.105 47.6123 102.405 46.9005 101.809 46.7225C101.316 46.5751 99.5621 46.5611 98.8695 46.6991ZM89.6841 65.114L87.7158 65.4619L87.6869 68.6876L87.658 71.9133L86.7027 71.6675C85.5439 71.3694 83.8053 71.3302 82.7517 71.5785C80.5768 72.0913 79.1238 73.6145 78.4578 76.0801C78.1445 77.24 78.1099 80.1758 78.3967 81.2519C78.9276 83.2431 80.0858 84.7429 81.6876 85.5133C83.0216 86.155 84.0341 86.3204 86.2301 86.2555C89.2457 86.1663 91.2537 85.5468 91.7818 84.5426L92.0351 84.0606V74.4004C92.0351 65.268 92.0247 64.7408 91.8438 64.753C91.7385 64.7601 90.7667 64.9226 89.6841 65.114ZM43.2213 71.4666C40.4937 71.9102 39.3018 72.5059 39.0053 73.5735C38.9339 73.8308 38.8921 76.221 38.8918 80.0787L38.8911 86.1772L41.1054 86.1476L43.3198 86.118L43.3481 80.6893L43.3765 75.2608L44.1441 75.0727C45.1213 74.8332 46.2051 74.8854 46.6154 75.1917C46.7752 75.3111 46.9972 75.5786 47.1086 75.7863C47.2972 76.1379 47.3111 76.5065 47.3111 81.1682V86.1727H49.5011H51.6913L51.6542 81.0059C51.6339 78.1641 51.5956 75.7435 51.5691 75.6268C51.502 75.3305 52.3625 75.0161 53.4514 74.9391C54.1583 74.8891 54.3624 74.9158 54.766 75.1112C55.7021 75.5643 55.6721 75.3727 55.7078 81.1152L55.7393 86.1727H57.9286H60.1179L60.0767 80.6778C60.0327 74.8132 60.0248 74.7231 59.461 73.6203C58.8885 72.5003 57.6713 71.7393 55.98 71.4435C54.3143 71.1522 52.0892 71.4153 50.3942 72.104L49.7502 72.3656L49.3234 72.1051C48.4554 71.5751 47.5996 71.3892 45.8348 71.3473C44.746 71.3214 43.8674 71.3616 43.2213 71.4666ZM67.2582 71.5131C66.3722 71.6693 63.0905 72.5487 62.9739 72.6614C62.9328 72.7011 63.3801 75.7061 63.4354 75.7614C63.4604 75.7865 63.8654 75.6801 64.3354 75.525C65.6451 75.0925 66.9319 74.8138 68.2161 74.6848C70.6601 74.4392 71.5483 74.9491 71.6714 76.6681L71.7255 77.4247L69.6604 77.4256C67.3409 77.4264 66.548 77.5198 65.3342 77.9352C64.333 78.2778 63.5694 78.8239 63.0863 79.5428C62.5923 80.2777 62.4603 80.8105 62.4595 82.0721C62.459 83.02 62.4966 83.2463 62.7419 83.772C63.8121 86.0652 66.5769 86.848 70.6412 86.0085C71.4409 85.8433 71.473 85.8457 73.5464 86.2258C74.6995 86.4371 75.6899 86.6101 75.7472 86.6101C75.8936 86.6101 75.8828 76.1543 75.7355 75.2377C75.4094 73.2091 74.1 71.9269 71.892 71.474C70.7782 71.2455 68.6773 71.2633 67.2582 71.5131ZM99.2522 71.5227C98.2046 71.709 95.1428 72.5311 95.0128 72.6611C94.9453 72.7285 95.3344 75.5285 95.4335 75.6889C95.4809 75.7654 95.9094 75.6756 96.6953 75.4243C98.2698 74.9209 99.7081 74.6693 101.111 74.6518C102.147 74.639 102.308 74.6644 102.751 74.9108C103.397 75.2695 103.626 75.7309 103.626 76.6747L103.626 77.401L101.193 77.452C97.9909 77.5193 96.862 77.8027 95.7326 78.8231C94.8544 79.6164 94.4409 80.6216 94.4409 81.9627C94.4409 84.9931 96.9351 86.6952 100.771 86.2826C101.409 86.214 102.272 86.0863 102.688 85.9988C103.425 85.8439 103.501 85.8499 105.564 86.2248C106.729 86.4368 107.733 86.6101 107.795 86.6101C107.87 86.6101 107.893 84.7443 107.865 80.8965C107.828 75.7897 107.803 75.1192 107.629 74.5816C107.088 72.9086 105.855 71.8813 103.89 71.465C102.841 71.2428 100.676 71.2698 99.2522 71.5227ZM84.5798 74.8435C83.1737 75.2221 82.5217 76.4763 82.5217 78.8027C82.5217 82.0916 83.9348 83.4759 86.7864 82.9801L87.6065 82.8375L87.6352 78.9976L87.6639 75.1575L87.1978 75.0316C86.5619 74.8598 85.6032 74.6894 85.3226 74.6983C85.1954 74.7024 84.8611 74.7677 84.5798 74.8435ZM67.694 80.2574C67.0338 80.5572 66.7283 81.0475 66.724 81.8134C66.7156 83.3609 67.9914 83.8295 70.5752 83.2279L71.6961 82.967V81.508V80.0491L69.9191 80.0515C68.4231 80.0535 68.0713 80.086 67.694 80.2574ZM99.6918 80.2951C98.974 80.662 98.7602 81.0193 98.7602 81.8526C98.7602 82.4419 98.8014 82.5906 99.0335 82.839C99.7079 83.5609 100.715 83.6702 102.615 83.2279L103.736 82.967V81.508V80.0491H101.955C100.323 80.0491 100.133 80.0697 99.6918 80.2951Z" fill="#FAFBFF"/>
</g>
</g>
<defs>
<filter id="filter0_d_3_25440" x="-4.29153e-05" y="-6.58035e-05" width="146.771" height="146.771" filterUnits="userSpaceOnUse" color-interpolation-filters="sRGB">
<feFlood flood-opacity="0" result="BackgroundImageFix"/>
<feColorMatrix in="SourceAlpha" type="matrix" values="0 0 0 0 0 0 0 0 0 0 0 0 0 0 0 0 0 0 127 0" result="hardAlpha"/>
<feOffset dy="8.624"/>
<feGaussianBlur stdDeviation="4.928"/>
<feComposite in2="hardAlpha" operator="out"/>
<feColorMatrix type="matrix" values="0 0 0 0 0 0 0 0 0 0 0 0 0 0 0 0 0 0 0.12 0"/>
<feBlend mode="normal" in2="BackgroundImageFix" result="effect1_dropShadow_3_25440"/>
<feBlend mode="normal" in="SourceGraphic" in2="effect1_dropShadow_3_25440" result="shape"/>
</filter>
<filter id="filter1_d_3_25440" x="37.6591" y="42.9124" width="71.4494" height="46.1618" filterUnits="userSpaceOnUse" color-interpolation-filters="sRGB">
<feFlood flood-opacity="0" result="BackgroundImageFix"/>
<feColorMatrix in="SourceAlpha" type="matrix" values="0 0 0 0 0 0 0 0 0 0 0 0 0 0 0 0 0 0 127 0" result="hardAlpha"/>
<feOffset dy="1.232"/>
<feGaussianBlur stdDeviation="0.616"/>
<feComposite in2="hardAlpha" operator="out"/>
<feColorMatrix type="matrix" values="0 0 0 0 0 0 0 0 0 0 0 0 0 0 0 0 0 0 0.32 0"/>
<feBlend mode="normal" in2="BackgroundImageFix" result="effect1_dropShadow_3_25440"/>
<feBlend mode="normal" in="SourceGraphic" in2="effect1_dropShadow_3_25440" result="shape"/>
</filter>
<linearGradient id="paint0_linear_3_25440" x1="73.3855" y1="1.23194" x2="73.3855" y2="128.291" gradientUnits="userSpaceOnUse">
<stop stop-color="#61C8FB"/>
<stop offset="0.5" stop-color="#2AA9E9"/>
<stop offset="0.502847" stop-color="#8CCA39"/>
<stop offset="1" stop-color="#80BE2F"/>
</linearGradient>
</defs>
</svg>
