<svg width="147" height="147" viewBox="0 0 147 147" fill="none" xmlns="http://www.w3.org/2000/svg">
<g filter="url(#filter0_d_3_25451)">
<path d="M9.85596 18.7573C9.85596 12.6229 9.85596 9.55563 11.0498 7.21258C12.0999 5.15157 13.7756 3.47592 15.8366 2.42578C18.1797 1.23193 21.2469 1.23193 27.3813 1.23193L119.39 1.23193C125.524 1.23193 128.591 1.23193 130.934 2.42578C132.995 3.47592 134.671 5.15157 135.721 7.21258C136.915 9.55563 136.915 12.6229 136.915 18.7573V110.766C136.915 116.9 136.915 119.967 135.721 122.31C134.671 124.371 132.995 126.047 130.934 127.097C128.591 128.291 125.524 128.291 119.39 128.291H27.3813C21.2469 128.291 18.1797 128.291 15.8366 127.097C13.7756 126.047 12.0999 124.371 11.0498 122.31C9.85596 119.967 9.85596 116.9 9.85596 110.766L9.85596 18.7573Z" fill="url(#paint0_linear_3_25451)" shape-rendering="crispEdges"/>
<path fill-rule="evenodd" clip-rule="evenodd" d="M73.9149 22.0228C73.1017 22.2361 73.1353 23.1558 73.9992 24.3485C74.4509 24.9722 74.7822 25.5897 74.735 25.7207C74.6878 25.8516 73.0263 27.2416 71.0426 28.8094C66.5176 32.3858 64.883 34.046 63.8293 36.1368C63.055 37.6729 62.997 38.0008 62.997 40.8398C62.997 43.6963 63.0536 44.0112 63.8828 45.7618C64.9315 47.9755 66.8752 50.0244 68.8231 50.9693C69.5861 51.3391 71.5054 52.0349 73.0882 52.5155L75.966 53.3888L73.8408 55.16L71.7157 56.9311L73.6028 57.0829C75.9235 57.2696 77.7341 58.1044 79.1019 59.6184C81.0286 61.751 81.7561 64.4574 81.0827 66.9882C80.8697 67.7894 80.7498 68.4447 80.8164 68.4447C81.1319 68.4447 89.8886 61.3057 90.7703 60.3297C93.0031 57.8583 94.0501 54.0733 93.3859 50.8739C92.3472 45.8712 89.8791 43.4197 83.9531 41.5051L80.3978 40.3566L81.9625 39.0998C82.8231 38.4087 83.6918 37.7148 83.8929 37.5578C84.1673 37.3439 84.5163 37.5717 85.2898 38.4697C86.1149 39.4274 86.4409 39.6286 86.9214 39.4763C87.2515 39.3714 87.5842 39.0734 87.6605 38.8143C88.3355 36.5229 90.8638 23.8882 90.7311 23.4699C90.356 22.2888 89.7121 22.1851 81.8626 22.0405C77.7427 21.9648 74.1663 21.9567 73.9149 22.0228ZM42.3241 82.3967C40.7255 83.2421 40.0591 84.2025 39.8965 85.8957C39.7711 87.1989 39.8272 87.3614 40.698 88.2256C41.4269 88.9486 42.0345 89.2338 43.4377 89.5116C46.6302 90.1433 47.3069 90.3708 47.5946 90.9082C48.3076 92.2407 46.7298 93.518 44.4143 93.4831C43.0141 93.462 42.1368 93.073 41.3262 92.1139L40.7408 91.4211L39.5889 92.0088C38.46 92.5847 38.445 92.6111 38.8303 93.3518C39.823 95.2598 41.2058 95.9109 44.265 95.9109C47.7219 95.9109 49.5807 94.8453 50.3875 92.4008C51.2587 89.7615 49.4409 87.8306 45.6875 87.4083C42.985 87.1042 42.0342 86.2556 42.9672 84.9796C43.4979 84.2539 45.7527 83.8976 46.8674 84.3635C47.3582 84.5685 47.9694 84.9458 48.2252 85.2016C48.6602 85.6366 48.7626 85.6297 49.8146 85.0931C51.0486 84.4636 51.0425 84.1412 49.7749 82.9594C48.8011 82.0516 47.7774 81.7617 45.544 81.7617C43.9748 81.7617 43.2574 81.9032 42.3241 82.3967ZM58.0514 82.2472C57.0945 83.8621 50.6511 95.4004 50.6511 95.4989C50.6511 95.573 51.3202 95.6335 52.1384 95.6335C53.6182 95.6335 53.6291 95.6271 54.288 94.385L54.9505 93.1365H58.4651H61.9796L62.3716 94.3156L62.7634 95.4947L64.3298 95.5777L65.8959 95.6606L64.964 93.0808C64.4516 91.662 63.505 89.0027 62.8605 87.1717C60.9245 81.6701 61.1617 82.0391 59.5595 82.0391C58.7977 82.0391 58.1191 82.1329 58.0514 82.2472ZM68.407 82.2128C68.407 82.7313 67.2906 93.581 67.133 94.5931L66.971 95.6335L70.8101 95.6307C74.2531 95.6282 74.7935 95.5608 76.0478 94.9768C78.5589 93.8074 80.1594 91.1956 80.1506 88.2814C80.1422 85.507 78.82 83.4551 76.527 82.6581C75.2541 82.2155 68.407 81.8399 68.407 82.2128ZM83.4268 88.7894C81.4221 92.3494 79.7818 95.3458 79.7818 95.4479C79.7818 95.5499 80.4374 95.6335 81.2389 95.6335C82.6827 95.6335 82.7019 95.6221 83.3583 94.385L84.0205 93.1365H87.5398H91.0593L91.4672 94.4544L91.8753 95.7722L93.3193 95.856C94.3289 95.9148 94.7634 95.8363 94.7634 95.5957C94.7634 95.4065 93.7333 92.3431 92.4745 88.788L90.1857 82.3243L88.6287 82.3204L87.0715 82.3165L83.4268 88.7894ZM97.4157 83.2182C97.2428 84.278 96.1506 94.9288 96.1506 95.5549C96.1506 95.9259 96.6425 95.9661 99.8266 95.8557C102.837 95.7511 103.753 95.6165 104.886 95.1122C107.543 93.93 108.913 91.9533 109.124 88.9936C109.279 86.831 108.92 85.4713 107.86 84.212C106.567 82.6761 105.35 82.3296 101.226 82.3226L97.563 82.3165L97.4157 83.2182ZM70.9017 85.299C70.8989 85.8525 70.4417 90.1744 70.1937 91.9877L70.0286 93.1973L72.2509 93.0963C74.7075 92.9848 75.5324 92.5778 76.6607 90.9198C77.4067 89.8237 77.5035 87.7055 76.8641 86.4689C76.2479 85.2776 75.1254 84.8135 72.8598 84.8135C71.1827 84.8135 70.9036 84.8828 70.9017 85.299ZM100.029 85.0215C100.026 85.1358 99.8402 86.8526 99.6157 88.8363C99.3916 90.8199 99.2065 92.5991 99.2051 92.7897C99.2032 93.0361 99.7939 93.1365 101.242 93.1365C102.904 93.1365 103.455 93.0197 104.218 92.5056C105.708 91.5013 106.416 90.2298 106.416 88.5552C106.416 86.8665 105.743 85.8 104.297 85.196C103.34 84.796 100.039 84.6611 100.029 85.0215ZM86.9258 87.8553C86.2009 89.2178 85.608 90.4016 85.608 90.4859C85.608 90.5705 86.6201 90.6396 87.8572 90.6396C89.5396 90.6396 90.0742 90.5522 89.9787 90.2928C89.9083 90.1022 89.5101 88.9162 89.094 87.6572C88.6776 86.3982 88.3158 85.3705 88.2903 85.3733C88.2647 85.3761 87.6508 86.493 86.9258 87.8553ZM57.8486 87.9299C57.1705 89.1861 56.5743 90.3097 56.5236 90.4268C56.4725 90.5439 57.4402 90.6396 58.6737 90.6396C59.9069 90.6396 60.9162 90.5533 60.9162 90.4482C60.9162 90.0079 59.4008 85.6458 59.2477 85.6458C59.1561 85.6458 58.5264 86.6737 57.8486 87.9299ZM47.8767 97.9453C47.8767 97.9964 47.4397 99.9884 46.9057 102.372C46.3716 104.756 45.9347 106.837 45.9347 106.996C45.9347 107.487 46.9978 107.316 47.1545 106.8C47.4514 105.825 48.9865 98.6772 48.9865 98.271C48.9865 98.038 48.7409 97.8529 48.4316 97.8529C48.1264 97.8529 47.8767 97.8946 47.8767 97.9453ZM40.3859 101.124C40.3859 101.533 40.624 101.745 41.2304 101.879C42.5932 102.178 43.1603 103.007 43.1603 104.703V106.176H40.3859C37.7966 106.176 37.6116 106.213 37.6116 106.731C37.6116 107.255 37.7966 107.286 40.9136 107.286H44.2157L44.4074 105.634C44.7395 102.772 43.7013 100.999 41.5229 100.707C40.5116 100.571 40.3859 100.617 40.3859 101.124ZM51.1136 100.812C50.6733 101.253 50.9981 101.688 51.8915 101.856C53.1813 102.098 53.7029 102.92 53.7029 104.712V106.176H50.9285C48.3392 106.176 48.1541 106.213 48.1541 106.731C48.1541 107.282 48.3392 107.286 77.2694 107.286H106.385L107.118 106.655C107.693 106.16 107.991 105.437 108.489 103.325L109.125 100.627H108.477C107.891 100.627 107.783 100.843 107.34 102.907C106.764 105.586 106.296 106.176 104.741 106.176C103.72 106.176 103.647 106.129 103.909 105.639C104.17 105.152 105.029 101.507 105.029 100.887C105.029 100.744 104.787 100.627 104.493 100.627C104.049 100.627 103.876 100.998 103.491 102.777C102.86 105.688 102.523 106.176 101.138 106.176C100.531 106.176 100.035 106.129 100.035 106.073C100.035 106.015 100.282 104.986 100.585 103.784C101.281 101.024 101.283 100.627 100.608 100.627C100.168 100.627 99.9906 100.996 99.6102 102.705C99.3561 103.848 98.9014 105.097 98.6001 105.48L98.0524 106.176L76.5017 106.175L54.9513 106.173L54.938 104.441C54.9289 103.267 54.7663 102.468 54.4342 101.966C53.783 100.981 51.6767 100.249 51.1136 100.812Z" fill="white"/>
<path d="M65.6083 60.8851C66.6095 59.7449 68.3316 58.8254 70.1083 58.4825C71.84 58.1482 73.2902 58.3854 75.2636 59.3254C78.2915 60.7672 79.9481 63.6464 79.7123 67.0572C79.406 71.4871 75.9968 74.6851 71.6075 74.6604C69.0304 74.6457 67.1416 73.825 65.5114 72.0117C62.6563 68.8364 62.6968 64.201 65.6083 60.8851Z" fill="url(#paint1_linear_3_25451)"/>
</g>
<defs>
<filter id="filter0_d_3_25451" x="-4.29153e-05" y="-6.58035e-05" width="146.771" height="146.771" filterUnits="userSpaceOnUse" color-interpolation-filters="sRGB">
<feFlood flood-opacity="0" result="BackgroundImageFix"/>
<feColorMatrix in="SourceAlpha" type="matrix" values="0 0 0 0 0 0 0 0 0 0 0 0 0 0 0 0 0 0 127 0" result="hardAlpha"/>
<feOffset dy="8.624"/>
<feGaussianBlur stdDeviation="4.928"/>
<feComposite in2="hardAlpha" operator="out"/>
<feColorMatrix type="matrix" values="0 0 0 0 0 0 0 0 0 0 0 0 0 0 0 0 0 0 0.12 0"/>
<feBlend mode="normal" in2="BackgroundImageFix" result="effect1_dropShadow_3_25451"/>
<feBlend mode="normal" in="SourceGraphic" in2="effect1_dropShadow_3_25451" result="shape"/>
</filter>
<linearGradient id="paint0_linear_3_25451" x1="73.3855" y1="1.23194" x2="73.3855" y2="128.291" gradientUnits="userSpaceOnUse">
<stop stop-color="#61C8FB"/>
<stop offset="0.5" stop-color="#2AA9E9"/>
</linearGradient>
<linearGradient id="paint1_linear_3_25451" x1="66.7364" y1="74.6605" x2="82.6707" y2="58.339" gradientUnits="userSpaceOnUse">
<stop offset="0.517166" stop-color="#00ED85"/>
<stop offset="1" stop-color="#00874C"/>
</linearGradient>
</defs>
</svg>
