<svg width="147" height="147" viewBox="0 0 147 147" fill="none" xmlns="http://www.w3.org/2000/svg">
<g filter="url(#filter0_d_3_25444)">
<rect x="9.85596" y="1.23193" width="127.059" height="127.059" rx="10.9534" fill="white"/>
<circle cx="58.6243" cy="55.5642" r="24.8894" fill="#EA001B"/>
<circle cx="88.1477" cy="55.5641" r="24.8894" fill="#F79F1A"/>
<path d="M73.3853 35.524C79.5282 40.0563 83.5141 47.3443 83.5142 55.5641C83.5142 63.7834 79.5286 71.0708 73.3862 75.6031C67.2437 71.0708 63.2583 63.7835 63.2583 55.5641C63.2583 47.3447 67.2428 40.0564 73.3853 35.524Z" fill="#FF5F01" fill-opacity="0.5"/>
<path d="M64.9802 91.4778L65.0242 90.4688L65.0683 89.4597L65.7658 89.5047L66.4634 89.5496L66.5072 90.5449L66.5509 91.5402L67.7679 91.5831L68.9849 91.6261L69.0301 92.2504L69.0755 92.8745L67.8435 92.9178L66.6117 92.961L66.5769 94.8892C66.5364 97.1339 66.6368 97.3953 67.5399 97.3976C67.8452 97.3983 68.2679 97.347 68.4794 97.2834C68.8153 97.1824 68.893 97.228 69.0958 97.6469C69.2235 97.9105 69.2996 98.1988 69.265 98.2875C69.0344 98.8786 66.6666 99.0374 65.9278 98.5113C65.166 97.9689 65.0543 97.5581 65.0543 95.2971C65.0543 93.8971 64.9977 93.1862 64.8764 93.0648C64.7785 92.9669 64.4409 92.8868 64.1263 92.8868H63.5541L63.5998 92.2565C63.6452 91.6277 63.6469 91.626 64.3127 91.552L64.9802 91.4778Z" fill="black"/>
<path d="M36.4034 91.949C36.6614 91.7032 37.0058 91.5555 37.3925 91.5248C38.547 91.4333 39.0561 91.5616 39.6899 92.1042C40.2997 92.6261 40.3012 92.6265 40.6265 92.3392C41.3822 91.6721 41.7333 91.552 42.9284 91.552C44.0812 91.552 44.1097 91.5611 44.766 92.1389C45.6387 92.907 45.8056 93.6672 45.7439 96.5949L45.6985 98.7455H44.8827H44.0669L44.0311 96.5207C43.9885 93.892 43.9627 93.7501 43.4364 93.2621C42.9195 92.7827 41.9845 92.7479 41.4262 93.1872C40.6953 93.7621 40.5814 94.2257 40.5814 96.6257V98.836L39.8769 98.7908L39.1724 98.7455L39.1365 96.5207C39.0939 93.892 39.0681 93.7501 38.5418 93.2621C38.0562 92.8118 37.2098 92.759 36.567 93.1387C35.8586 93.5571 35.6646 94.3021 35.6883 96.5109C35.6997 97.5768 35.7042 98.5324 35.6979 98.6343C35.6908 98.7535 35.4485 98.8197 35.0194 98.8197C34.5872 98.8197 34.35 98.7543 34.3466 98.6343C34.3418 98.4707 34.345 91.9468 34.35 91.6632C34.351 91.6019 34.6523 91.552 35.0194 91.552C35.5812 91.552 35.6868 91.5975 35.6868 91.8398C35.6868 92.3076 35.9799 92.3523 36.4034 91.949Z" fill="black"/>
<path d="M81.1203 91.9348C81.3799 91.7378 81.7924 91.5545 82.0371 91.5272C82.6046 91.4641 83.2806 91.5524 83.3729 91.7016C83.412 91.7651 83.3416 92.0626 83.2161 92.3628C83.015 92.8444 82.9322 92.9048 82.5126 92.8762C81.6302 92.8159 81.3689 92.8855 81.0349 93.2691C80.7253 93.6247 80.697 93.8279 80.628 96.1984L80.5539 98.7455H79.8123H79.0707V95.1858V91.6261H79.8123C80.4683 91.6261 80.5594 91.6647 80.6012 91.9595L80.6487 92.293L81.1203 91.9348Z" fill="black"/>
<path d="M102.833 91.9365C103.067 91.7391 103.457 91.5552 103.698 91.5278C104.221 91.4682 105.101 91.5525 105.101 91.6622C105.101 91.705 105.024 91.9975 104.93 92.3122L104.758 92.8843L103.952 92.8658C103.263 92.8499 103.087 92.9048 102.751 93.2407C102.362 93.6295 102.356 93.6657 102.283 96.19L102.209 98.7455H101.467H100.726V95.1858V91.6261H101.467C102.078 91.6261 102.201 91.6699 102.168 91.8745C102.099 92.2891 102.382 92.3155 102.833 91.9365Z" fill="black"/>
<path d="M56.4565 93.7119C56.4617 92.7106 56.5713 92.5054 57.4019 91.9417C57.9244 91.5873 58.1054 91.5521 59.4018 91.5542C60.8526 91.5564 61.9493 91.8034 62.0661 92.1541C62.1502 92.4064 61.6424 93.3318 61.4199 93.3318C61.3229 93.3318 61.0288 93.2247 60.7662 93.0937C60.0844 92.7535 58.6153 92.7621 58.2326 93.1084C57.6153 93.6672 58.1074 94.3693 59.1175 94.3709C60.3185 94.3727 61.5696 94.9046 62.0612 95.6222C62.7202 96.584 62.2815 97.8329 61.055 98.486C59.973 99.0622 57.2685 98.8882 56.3405 98.1826C56.087 97.99 56.1122 97.7715 56.4371 97.3491L56.7123 96.991L57.7719 97.3317C59.0215 97.7335 60.0147 97.6727 60.5592 97.1612C60.9795 96.7665 60.9856 96.6287 60.5983 96.2926C60.3308 96.0608 58.8673 95.7049 58.1804 95.7049C57.8661 95.7049 57.3847 95.438 56.8596 94.9727C56.4979 94.6522 56.4523 94.5095 56.4565 93.7119Z" fill="black"/>
<path d="M84.4076 93.5734C84.8077 92.7275 85.1665 92.3366 85.9676 91.8732C86.736 91.4288 88.9948 91.4229 89.7413 91.8633C90.3483 92.2213 90.3586 92.2602 90.0093 92.8739C89.7146 93.3917 89.5233 93.4333 89.0028 93.0923C88.4566 92.7342 87.2862 92.7811 86.629 93.1872C85.751 93.7297 85.2656 95.2115 85.6939 96.0407C85.7883 96.2232 85.9114 96.4725 85.9674 96.5949C86.0237 96.7172 86.29 96.9676 86.5597 97.1511C87.1355 97.5432 88.3435 97.5999 88.934 97.2623C89.5047 96.936 89.7811 96.9976 90.0356 97.5076C90.3566 98.151 90.3462 98.181 89.6815 98.5201C89.2311 98.7498 88.8076 98.8194 87.8646 98.8183C86.7749 98.817 86.548 98.767 85.8697 98.378C85.0209 97.891 84.5873 97.369 84.2588 96.4376C83.9276 95.4991 83.9808 94.4757 84.4076 93.5734Z" fill="black"/>
<path fill-rule="evenodd" clip-rule="evenodd" d="M93.087 91.8732C91.8102 92.6117 91.2865 93.5558 91.2738 95.1424C91.2612 96.7248 91.8188 97.7443 93.0693 98.425C94.0893 98.98 95.5782 98.9911 96.2891 98.4489C96.889 97.9913 97.0577 97.9837 97.1184 98.4118C97.1588 98.6966 97.2692 98.7522 97.8703 98.7908L98.5749 98.836V95.1858V91.5356L97.8703 91.5809C97.2692 91.6194 97.1588 91.6751 97.1184 91.9598C97.0586 92.3808 96.9872 92.3774 96.3182 91.9228C95.8541 91.6074 95.6107 91.5536 94.6893 91.5625C93.8858 91.5703 93.472 91.6506 93.087 91.8732ZM92.8012 95.2155C92.7838 94.0786 93.4697 93.1112 94.4493 92.8911C96.501 92.43 97.9878 94.7481 96.776 96.5186C96.2695 97.2588 95.6589 97.5458 94.7979 97.4487C93.5692 97.3102 92.8203 96.4728 92.8012 95.2155Z" fill="black"/>
<path fill-rule="evenodd" clip-rule="evenodd" d="M111.697 88.8889C111.639 88.9826 111.603 89.7871 111.617 90.6766C111.635 91.7873 111.591 92.2936 111.477 92.2936C111.385 92.2936 111.092 92.1267 110.825 91.9228C110.413 91.6085 110.179 91.552 109.295 91.552C108.041 91.552 107.427 91.7876 106.719 92.542C105.984 93.3235 105.767 93.9512 105.777 95.26C105.79 96.8719 106.301 97.7525 107.664 98.5085C108.518 98.9824 110.166 98.9512 110.825 98.4489C111.44 97.9793 111.627 97.9812 111.627 98.457C111.627 98.8166 111.663 98.8336 112.332 98.7908L113.036 98.7455V93.7768V88.808L112.419 88.7631C112.067 88.7374 111.757 88.7914 111.697 88.8889ZM107.344 94.515C107.572 93.7567 108.352 92.9834 108.988 92.8865C109.797 92.7631 110.356 92.8908 110.831 93.3075C111.456 93.8543 111.643 94.2653 111.65 95.098C111.656 95.9448 111.371 96.5579 110.713 97.1119C110.281 97.475 110.143 97.5096 109.351 97.4523C108.566 97.3956 108.416 97.3299 107.981 96.8553C107.336 96.1521 107.107 95.3079 107.344 94.515Z" fill="black"/>
<path fill-rule="evenodd" clip-rule="evenodd" d="M72.3221 91.7838C71.7487 92.0973 71.041 92.8462 70.7463 93.4511C70.3507 94.2631 70.3773 96.1751 70.795 96.9657C71.1647 97.6656 71.7559 98.2389 72.4562 98.5763C73.5042 99.0815 76.2775 98.7577 76.6955 98.0813C76.8889 97.7685 76.4688 97.0398 76.0951 97.0398C75.9058 97.0398 75.7154 97.0974 75.6719 97.1678C75.5138 97.4237 74.2781 97.664 73.6589 97.5592C72.8293 97.4191 71.9935 96.6925 72.0548 96.1649L72.0996 95.7791L74.4727 95.7472C75.7779 95.7296 76.9294 95.7129 77.0313 95.7101C77.331 95.7018 77.2613 94.1968 76.9267 93.4554C76.5572 92.6362 76.3785 92.4204 75.6732 91.9417C75.1635 91.5959 74.9634 91.5536 73.8958 91.5665C73.185 91.5751 72.5411 91.6639 72.3221 91.7838ZM72.0254 94.2555C72.0254 93.8797 72.8597 92.9186 73.2516 92.8428C74.281 92.644 75.1626 92.9546 75.5175 93.6411C75.9586 94.4939 75.9129 94.5184 73.8794 94.5184C72.2037 94.5184 72.0254 94.4932 72.0254 94.2555Z" fill="black"/>
<path fill-rule="evenodd" clip-rule="evenodd" d="M50.2223 91.5218C49.5214 91.5813 48.8497 91.9091 48.2982 92.4606C47.7572 93.0015 47.519 93.449 47.2573 94.4156C46.8843 95.7933 47.5968 97.4562 48.9658 98.4026C49.474 98.754 49.7033 98.8105 50.6376 98.8148C51.6985 98.8195 52.5954 98.5482 52.5954 98.2225C52.5954 98.143 52.6955 98.0781 52.8179 98.0781C52.9576 98.0781 53.0404 98.2191 53.0404 98.457C53.0404 98.8166 53.0764 98.8336 53.7449 98.7908L54.4494 98.7455V95.1858V91.6261L53.7449 91.5809C53.0764 91.538 53.0404 91.5551 53.0404 91.9146C53.0404 92.1525 52.9576 92.2936 52.8179 92.2936C52.6955 92.2936 52.5954 92.2292 52.5954 92.1504C52.5954 91.7839 51.2703 91.4329 50.2223 91.5218ZM49.0628 93.8149C49.2717 93.4066 49.8443 93.0184 50.4416 92.88C51.8057 92.5641 53.0515 93.6152 53.0629 95.0919C53.0731 96.4084 52.3173 97.3354 51.1416 97.4485C50.0069 97.5575 49.2254 97.0392 48.8383 95.921C48.6293 95.3175 48.7177 94.4897 49.0628 93.8149Z" fill="black"/>
</g>
<defs>
<filter id="filter0_d_3_25444" x="-4.29153e-05" y="-6.58035e-05" width="146.771" height="146.771" filterUnits="userSpaceOnUse" color-interpolation-filters="sRGB">
<feFlood flood-opacity="0" result="BackgroundImageFix"/>
<feColorMatrix in="SourceAlpha" type="matrix" values="0 0 0 0 0 0 0 0 0 0 0 0 0 0 0 0 0 0 127 0" result="hardAlpha"/>
<feOffset dy="8.624"/>
<feGaussianBlur stdDeviation="4.928"/>
<feComposite in2="hardAlpha" operator="out"/>
<feColorMatrix type="matrix" values="0 0 0 0 0 0 0 0 0 0 0 0 0 0 0 0 0 0 0.12 0"/>
<feBlend mode="normal" in2="BackgroundImageFix" result="effect1_dropShadow_3_25444"/>
<feBlend mode="normal" in="SourceGraphic" in2="effect1_dropShadow_3_25444" result="shape"/>
</filter>
</defs>
</svg>
