<svg width="148" height="148" viewBox="0 0 148 148" fill="none" xmlns="http://www.w3.org/2000/svg">
<g filter="url(#filter0_d_3_25434)">
<rect x="9.89795" y="1.2373" width="127.6" height="127.6" rx="11" fill="url(#paint0_linear_3_25434)"/>
<g filter="url(#filter1_d_3_25434)">
<path fill-rule="evenodd" clip-rule="evenodd" d="M32.2474 55.6754C32.1715 55.7511 32.1093 57.1699 32.1093 58.8281V61.8431L30.8702 62.0088L29.6311 62.1743L29.5732 63.8297L29.5151 65.4852L30.826 65.3451L32.137 65.2051L32.0736 65.865C32.0111 66.5141 31.9897 66.5279 30.7711 66.701L29.532 66.8768V68.4543V70.0318L30.8206 69.8942L32.1093 69.7565V71.8128C32.1093 75.238 32.8501 76.7644 35.0281 77.8274C36.0011 78.3022 36.3859 78.3758 37.8492 78.3669C38.9045 78.3603 39.9364 78.2263 40.5845 78.0113L41.6253 77.6664V75.5848C41.6253 73.6788 41.596 73.5153 41.2784 73.6478C40.5526 73.9508 39.3103 74.1018 38.4101 73.9966C37.0025 73.8321 36.7957 73.4904 36.7037 71.177C36.6343 69.436 36.6651 69.2115 36.9946 69.041C37.1972 68.9362 38.4557 68.6914 39.7915 68.4968L42.2201 68.1432V66.5926C42.2201 64.7847 42.3832 64.8648 39.6428 65.3277C36.7208 65.8213 36.7832 65.8261 36.7533 65.1082C36.7242 64.4125 36.6556 64.4349 40.6836 63.8329L42.2201 63.6033V61.9404V60.2776L41.5758 60.3838C40.1361 60.6205 34.3503 61.4822 34.199 61.4822C34.1096 61.4822 34.382 61.2482 34.8043 60.9625C36.2462 59.9863 36.8984 58.7596 36.9381 56.9498L36.9664 55.6483L34.676 55.5929C33.4161 55.5625 32.3234 55.5995 32.2474 55.6754ZM65.812 56.5578C65.2123 56.6519 64.4318 56.7789 64.0773 56.8402L63.433 56.9517V67.5227V78.0938H65.7129H67.9927L67.9971 76.1656L68.0015 74.2375L68.4049 75.1274C69.4941 77.5308 72.2169 78.8271 75.0699 78.301C78.8559 77.6029 80.7044 74.7202 80.6985 69.5228C80.6947 66.138 80.0538 64.2082 78.3789 62.5374C76.9369 61.0989 74.8689 60.5088 72.6624 60.9059C70.5742 61.2818 69.2009 62.2969 68.4049 64.053L68.0015 64.9429L67.9971 60.6417L67.9927 56.3405L67.4476 56.3636C67.1478 56.3763 66.4117 56.4637 65.812 56.5578ZM84.2825 56.6432C83.3739 56.7846 82.5839 56.947 82.527 57.0039C82.4699 57.0609 82.4245 61.8071 82.426 67.5511L82.429 77.9949L84.7269 78.0507L87.0249 78.1062L87.0405 76.172L87.0562 74.2375L87.3476 75.0576C87.7384 76.1575 88.8415 77.2487 90.1799 77.86C91.0418 78.2538 91.6019 78.3633 92.7702 78.3671C95.9981 78.3773 98.0597 76.8863 99.1628 73.7431C99.552 72.6337 99.6138 72.0649 99.6138 69.5902C99.6138 67.1267 99.5508 66.5416 99.167 65.4373C98.506 63.5367 97.4878 62.3106 95.8986 61.5019C94.7077 60.896 94.4147 60.8298 92.9322 60.8325C90.2897 60.8373 88.6061 61.7509 87.6226 63.7138L87.0249 64.9071V60.6239V56.3405L86.4797 56.3632C86.1799 56.3757 85.1911 56.5016 84.2825 56.6432ZM49.1057 60.8986C46.4878 61.3317 44.7169 63.1229 43.8913 66.173C43.4356 67.8567 43.4843 71.6945 43.9821 73.3005C45.0565 76.7666 47.1811 78.407 50.5466 78.3687C53.0729 78.34 54.7708 77.318 55.8112 75.1992L56.2834 74.2375L56.2898 76.1656L56.2959 78.0938H58.5758H60.8557V69.6604V61.2272L59.6166 61.3661C58.9352 61.4424 57.9315 61.5666 57.3863 61.6417L56.395 61.7788L56.2959 63.3609L56.1968 64.9429L55.925 64.1754C55.0941 61.8286 52.1203 60.3996 49.1057 60.8986ZM99.713 61.2609C99.713 61.3568 100.074 62.803 100.516 64.4744C100.958 66.1461 101.812 69.4271 102.413 71.7655C103.015 74.104 103.641 76.4846 103.805 77.0555L104.103 78.0938H106.071C107.154 78.0938 108.039 78.1604 108.039 78.2421C108.039 78.3728 106.998 82.3766 106.728 83.2849C106.635 83.5981 106.81 83.6308 108.571 83.6282C111.172 83.6246 111.308 83.5766 111.549 82.5775C111.658 82.1237 112.965 77.1568 114.453 71.5401C115.941 65.9232 117.159 61.2735 117.159 61.2073C117.159 61.1408 116.136 61.0866 114.885 61.0866H112.61L112.318 62.1249C111.894 63.6298 108.439 76.8445 108.419 77.0393C108.385 77.3702 108.011 75.8704 106.342 68.7058C105.405 64.6846 104.595 61.3253 104.543 61.2405C104.41 61.0263 99.713 61.0463 99.713 61.2609ZM51.0789 64.6392C48.9733 65.3092 47.8018 67.9815 48.3393 70.8903C48.7532 73.1312 49.9073 74.4001 51.7621 74.6536C54.6576 75.0495 56.6801 72.6584 56.4517 69.1091C56.2775 66.4 54.8356 64.6439 52.6848 64.5213C52.1085 64.4885 51.3858 64.5415 51.0789 64.6392ZM70.2645 64.8078C68.5542 65.6093 67.6732 67.527 67.8381 70.0895C67.9983 72.5799 69.0318 74.0332 71.0196 74.5636C71.7704 74.7639 72.1418 74.7649 72.8787 74.5683C74.197 74.2165 74.832 73.6889 75.448 72.433C75.9123 71.4863 75.9888 71.0837 75.9888 69.5902C75.9888 68.091 75.9131 67.6955 75.4407 66.7326C74.7307 65.285 73.7968 64.6441 72.2189 64.5217C71.3563 64.4548 70.8636 64.527 70.2645 64.8078ZM89.4053 64.7513C87.7634 65.4907 86.9951 66.8074 86.8698 69.0958C86.7731 70.864 87.0041 71.976 87.6736 72.9669C89.4933 75.6606 93.6195 75.0807 94.6498 71.9866C94.9811 70.9915 95.0864 68.7135 94.8471 67.7115C94.6052 66.6976 93.9254 65.6623 93.1493 65.1258C92.198 64.4683 90.4269 64.2911 89.4053 64.7513Z" fill="black"/>
</g>
</g>
<defs>
<filter id="filter0_d_3_25434" x="-1.33514e-05" y="5.91278e-05" width="147.396" height="147.396" filterUnits="userSpaceOnUse" color-interpolation-filters="sRGB">
<feFlood flood-opacity="0" result="BackgroundImageFix"/>
<feColorMatrix in="SourceAlpha" type="matrix" values="0 0 0 0 0 0 0 0 0 0 0 0 0 0 0 0 0 0 127 0" result="hardAlpha"/>
<feOffset dy="8.66072"/>
<feGaussianBlur stdDeviation="4.94898"/>
<feComposite in2="hardAlpha" operator="out"/>
<feColorMatrix type="matrix" values="0 0 0 0 0 0 0 0 0 0 0 0 0 0 0 0 0 0 0.12 0"/>
<feBlend mode="normal" in2="BackgroundImageFix" result="effect1_dropShadow_3_25434"/>
<feBlend mode="normal" in="SourceGraphic" in2="effect1_dropShadow_3_25434" result="shape"/>
</filter>
<filter id="filter1_d_3_25434" x="28.2779" y="55.5823" width="90.1185" height="30.5205" filterUnits="userSpaceOnUse" color-interpolation-filters="sRGB">
<feFlood flood-opacity="0" result="BackgroundImageFix"/>
<feColorMatrix in="SourceAlpha" type="matrix" values="0 0 0 0 0 0 0 0 0 0 0 0 0 0 0 0 0 0 127 0" result="hardAlpha"/>
<feOffset dy="1.23725"/>
<feGaussianBlur stdDeviation="0.618623"/>
<feComposite in2="hardAlpha" operator="out"/>
<feColorMatrix type="matrix" values="0 0 0 0 0 0 0 0 0 0 0 0 0 0 0 0 0 0 0.32 0"/>
<feBlend mode="normal" in2="BackgroundImageFix" result="effect1_dropShadow_3_25434"/>
<feBlend mode="normal" in="SourceGraphic" in2="effect1_dropShadow_3_25434" result="shape"/>
</filter>
<linearGradient id="paint0_linear_3_25434" x1="9.47922" y1="2.80002" x2="135.468" y2="127.053" gradientUnits="userSpaceOnUse">
<stop stop-color="#C0FFE1"/>
<stop offset="0.432633" stop-color="#3CFFA1"/>
</linearGradient>
</defs>
</svg>
