<svg width="147" height="147" viewBox="0 0 147 147" fill="none" xmlns="http://www.w3.org/2000/svg">
<g filter="url(#filter0_d_3_25442)">
<rect x="9.85596" y="1.23193" width="127.059" height="127.059" rx="10.9534" fill="url(#paint0_linear_3_25442)" shape-rendering="crispEdges"/>
<g filter="url(#filter1_d_3_25442)">
<path d="M76.7132 53.7772C78.3962 52.0849 80.1471 51.1587 83.0986 50.3997C84.1488 50.1296 85.417 50.0149 87.4728 50.0039C90.3664 49.9883 91.7044 50.1542 93.6326 50.7672C94.5701 51.0653 94.6487 51.1407 94.5511 51.65C94.4922 51.9564 94.2789 53.2529 94.0771 54.5313C93.8751 55.8097 93.6467 56.9275 93.5694 57.0154C93.4921 57.1033 92.721 56.9292 91.8559 56.6285C89.7226 55.8869 86.299 55.6851 84.7237 56.2085C83.002 56.7803 82.2058 57.9984 82.8127 59.1323C83.2036 59.863 83.7796 60.2484 86.8723 61.8495C90.2354 63.5904 91.969 65.0228 92.8024 66.7494C94.6906 70.6624 92.6375 75.5606 88.187 77.7595C84.205 79.7271 79.2342 80.0481 73.4842 78.7089C72.4964 78.4788 71.5719 78.218 71.4297 78.1295C71.23 78.005 71.2896 77.273 71.6917 74.9132C71.978 73.2331 72.2132 71.7924 72.2143 71.7119C72.2155 71.6312 72.8767 71.8376 73.6837 72.1704C76.202 73.2088 77.8086 73.5002 80.4892 73.4043C83.2125 73.3069 84.4252 72.8648 84.9959 71.7612C85.8426 70.1238 85.0692 69.1689 81.3036 67.202C76.8987 64.9018 75.0517 63.1205 74.5462 60.6852C74.0729 58.4058 74.9775 55.5226 76.7132 53.7772Z" fill="#FAFBFF"/>
<path d="M62.598 55.3766C63.0121 52.936 63.3933 50.8204 63.4453 50.675C63.5159 50.477 64.4927 50.4109 67.3498 50.4109C70.875 50.4109 71.1599 50.4392 71.1599 50.7904C71.1599 50.9992 70.1621 57.0135 68.9426 64.1554C67.7232 71.2975 66.6525 77.5689 66.5635 78.0919L66.4017 79.0427L62.4727 79.1002L58.5437 79.1575L58.9348 76.8815C59.4231 74.0386 61.5951 61.2882 62.598 55.3766Z" fill="#FAFBFF"/>
<path fill-rule="evenodd" clip-rule="evenodd" d="M51.7373 50.8863C51.4985 51.5059 44.6611 68.9812 44.4412 69.534C44.2893 69.916 43.9904 68.9646 43.155 65.1637C41.8945 60.4598 35.5909 55.8337 32.5967 54.1087L34.2286 59.9196C35.126 63.1156 36.2922 67.2994 36.8198 69.217C37.3474 71.1346 38.184 74.1299 38.6787 75.8731L39.5782 79.0427L43.7229 79.1C46.9202 79.1442 47.8924 79.0958 47.9761 78.8887C48.0355 78.741 50.7666 72.3919 54.045 64.7796C57.3234 57.1674 60.0532 50.8204 60.1113 50.675C60.194 50.469 59.3031 50.4109 56.0689 50.4109C51.9621 50.4109 51.9188 50.4158 51.7373 50.8863Z" fill="#FAFBFF"/>
<path fill-rule="evenodd" clip-rule="evenodd" d="M107.292 50.6057C106.325 50.9043 105.458 51.4397 105.143 51.9321C104.842 52.4024 103.226 56.0008 98.946 65.7305C97.8215 68.2873 96.0539 72.2879 95.0185 74.621C93.9829 76.954 93.1356 78.9269 93.1356 79.0055C93.1356 79.0841 94.9661 79.1477 97.2032 79.1467L101.271 79.1452L102.039 77.0865L102.807 75.0279L107.866 74.9715L112.925 74.9149L113.291 76.662C113.492 77.6228 113.705 78.5753 113.764 78.7786C113.861 79.112 114.224 79.1484 117.45 79.1484C119.721 79.1484 121.028 79.0704 121.028 78.9348C121.028 78.7363 117.034 60.5294 115.466 53.5805L114.775 50.5165L111.298 50.4794C109.386 50.4589 107.583 50.5159 107.292 50.6057ZM106.793 64.8853C107.651 62.6771 108.565 60.3215 108.825 59.6504C109.085 58.9795 109.337 58.5497 109.385 58.6955C109.562 59.2244 111.676 68.9016 111.628 68.9586C111.6 68.9907 110.151 68.9907 108.406 68.9586L105.234 68.9001L106.793 64.8853Z" fill="#FAFBFF"/>
<path d="M42.3239 61.2931C41.8077 58.8525 41.1767 55.8833 40.9219 54.6945C40.0255 50.5144 40.2789 50.6222 31.3498 50.6222C27.5611 50.6222 24.4614 50.6938 24.4614 50.7815C24.4614 50.8692 25.5788 51.3018 26.9443 51.7427C28.3099 52.1837 30.1403 52.8965 31.0119 53.3267L32.5967 54.1087C35.5909 55.8337 41.8945 60.4598 43.155 65.1637C42.9223 64.1054 42.6481 62.8261 42.3239 61.2931Z" fill="#FBAD05"/>
</g>
</g>
<defs>
<filter id="filter0_d_3_25442" x="-4.29153e-05" y="-6.58035e-05" width="146.771" height="146.771" filterUnits="userSpaceOnUse" color-interpolation-filters="sRGB">
<feFlood flood-opacity="0" result="BackgroundImageFix"/>
<feColorMatrix in="SourceAlpha" type="matrix" values="0 0 0 0 0 0 0 0 0 0 0 0 0 0 0 0 0 0 127 0" result="hardAlpha"/>
<feOffset dy="8.624"/>
<feGaussianBlur stdDeviation="4.928"/>
<feComposite in2="hardAlpha" operator="out"/>
<feColorMatrix type="matrix" values="0 0 0 0 0 0 0 0 0 0 0 0 0 0 0 0 0 0 0.12 0"/>
<feBlend mode="normal" in2="BackgroundImageFix" result="effect1_dropShadow_3_25442"/>
<feBlend mode="normal" in="SourceGraphic" in2="effect1_dropShadow_3_25442" result="shape"/>
</filter>
<filter id="filter1_d_3_25442" x="23.2294" y="50.0029" width="99.0304" height="31.9811" filterUnits="userSpaceOnUse" color-interpolation-filters="sRGB">
<feFlood flood-opacity="0" result="BackgroundImageFix"/>
<feColorMatrix in="SourceAlpha" type="matrix" values="0 0 0 0 0 0 0 0 0 0 0 0 0 0 0 0 0 0 127 0" result="hardAlpha"/>
<feOffset dy="1.232"/>
<feGaussianBlur stdDeviation="0.616"/>
<feComposite in2="hardAlpha" operator="out"/>
<feColorMatrix type="matrix" values="0 0 0 0 0 0 0 0 0 0 0 0 0 0 0 0 0 0 0.32 0"/>
<feBlend mode="normal" in2="BackgroundImageFix" result="effect1_dropShadow_3_25442"/>
<feBlend mode="normal" in="SourceGraphic" in2="effect1_dropShadow_3_25442" result="shape"/>
</filter>
<linearGradient id="paint0_linear_3_25442" x1="9.85596" y1="1.23193" x2="136.915" y2="128.291" gradientUnits="userSpaceOnUse">
<stop stop-color="#0951AD"/>
<stop offset="1" stop-color="#013B85"/>
</linearGradient>
</defs>
</svg>
