<svg width="147" height="147" viewBox="0 0 147 147" fill="none" xmlns="http://www.w3.org/2000/svg">
<g filter="url(#filter0_d_3_25438)">
<rect x="9.85596" y="1.23193" width="127.059" height="127.059" rx="10.9534" fill="#00AFA0" shape-rendering="crispEdges"/>
<g filter="url(#filter1_d_3_25438)">
<path fill-rule="evenodd" clip-rule="evenodd" d="M77.6025 37.5573C76.5813 38.5911 77.3049 40.3804 78.744 40.3804C79.5903 40.3804 80.3909 39.5698 80.3909 38.713C80.3909 37.8562 79.5903 37.0457 78.744 37.0457C78.343 37.0457 77.921 37.2347 77.6025 37.5573ZM70.9214 43.1234C68.2475 43.5044 65.6271 45.2962 64.7253 47.3606C64.5056 47.8631 64.1855 49.3823 64.0136 50.7362C63.5068 54.7304 62.8787 56.0764 61.1516 56.8707C59.4491 57.6537 57.3848 57.2562 56.03 55.8846C54.8953 54.736 54.7913 54.2183 54.7041 49.2904L54.6238 44.7572H52.9753H51.327L51.3974 49.7072L51.4678 54.6572L52.1236 56.0589C52.9102 57.74 54.2287 59.1024 55.8488 59.9078C56.9222 60.4415 57.2254 60.493 59.2904 60.493C61.4783 60.493 61.5989 60.4688 62.8544 59.7796C65.2932 58.4407 66.5613 56.4497 67.0152 53.2458C67.6822 48.5386 67.7946 48.2166 69.107 47.2541C70.4893 46.2404 70.5097 46.2716 70.5097 49.4088C70.5097 53.3692 71.0023 54.8223 73.0103 56.7829C73.5031 57.2644 74.4622 57.9199 75.1415 58.2398C76.2192 58.7473 76.6266 58.8217 78.3366 58.8236C80.133 58.8254 80.4098 58.7692 81.652 58.1502C83.2843 57.3365 84.73 55.8459 85.5003 54.1816C86.043 53.0097 86.0531 52.9077 86.1169 48.0399L86.1819 43.0899H84.5215H82.8612V47.2862C82.8612 52.2225 82.7373 52.8125 81.4202 54.1518C80.526 55.0614 79.3248 55.5974 78.1897 55.5939C76.7135 55.5893 74.8669 54.2917 74.1876 52.7814C73.8619 52.0578 73.8119 51.3496 73.808 47.4146L73.8034 42.8814L73.0315 42.9071C72.607 42.9213 71.6574 43.0186 70.9214 43.1234ZM103.658 43.2155C99.5236 44.3404 97.0968 48.6028 98.1724 52.8504C98.3562 53.5762 98.6454 54.3709 98.8153 54.6164C99.3297 55.36 99.1901 55.4476 97.6647 55.3371C95.8297 55.2041 94.765 54.5218 94.0027 52.9899C93.5803 52.141 93.4469 51.4538 93.2838 49.2823L93.0835 46.6168L91.5233 46.677L89.9633 46.7372L89.8604 55.0741C89.7577 63.4001 89.7569 63.412 89.269 64.2065C88.5059 65.4493 87.5173 65.9874 85.4118 66.3057C84.401 66.4587 83.169 66.793 82.6739 67.0487C81.2543 67.7819 79.895 69.2075 79.234 70.6569L78.6411 71.9562V76.6457V81.3351L80.1336 81.3964L81.6261 81.4577L81.6273 77.4364C81.6279 75.2246 81.7255 73.0608 81.8443 72.6279C82.0958 71.7111 83.0749 70.5074 83.9356 70.0568C84.2664 69.8836 85.3428 69.62 86.3277 69.471C87.3125 69.3222 88.4869 69.0093 88.9377 68.7759C90.374 68.0324 91.6526 66.7129 92.3746 65.229C93.0385 63.8651 93.0525 63.7771 93.12 60.5947L93.1887 57.3509L94.4509 57.9841L95.7128 58.6172H101.896H108.079L109.366 57.9107C110.929 57.0522 112.152 55.7533 112.884 54.1727C113.368 53.1268 113.431 52.7364 113.431 50.8014C113.43 48.1968 113.087 47.2452 111.549 45.5803C109.398 43.2524 106.602 42.4146 103.658 43.2155ZM104.427 46.5128C103.358 46.8988 102.736 47.3435 102.148 48.1397C100.04 50.9969 101.828 55.0922 105.295 55.3461C106.865 55.4609 107.851 55.1072 108.887 54.0572C110.223 52.7027 110.607 50.6999 109.852 49.0182C109.357 47.9146 107.978 46.7354 106.844 46.4463C105.711 46.1576 105.385 46.1666 104.427 46.5128ZM55.4277 62.942C54.0696 63.9862 55.1812 66.3099 56.8376 65.8888C57.4628 65.73 58.1582 64.864 58.1582 64.2446C58.1582 63.413 57.3988 62.6814 56.5358 62.6814C56.1128 62.6814 55.6142 62.7988 55.4277 62.942ZM59.805 63.0983C59.2803 63.6296 59.2671 64.7702 59.7785 65.4095C60.3489 66.1227 61.5536 66.0766 62.1992 65.3167C62.7999 64.6096 62.8192 63.9499 62.2603 63.2306C61.716 62.5299 60.4346 62.4609 59.805 63.0983ZM105.805 63.1931C105.527 63.4745 105.3 63.9476 105.3 64.2446C105.3 64.8959 106.143 65.8078 106.745 65.8078C107.886 65.8078 108.595 64.7342 108.159 63.6677C107.733 62.6273 106.591 62.397 105.805 63.1931ZM38.1753 66.5095C36.1371 67.066 34.3366 68.5816 33.3145 70.6014L32.7346 71.7478V76.5414V81.3351L34.2271 81.3964L35.7196 81.4577L35.7245 77.5406C35.7301 73.1069 35.8519 72.3213 36.7009 71.254C37.7131 69.9812 38.6872 69.532 40.2709 69.6083C41.8523 69.6844 42.7953 70.2104 43.6999 71.5208C44.2615 72.3341 44.2629 72.3468 44.3656 76.8355L44.4686 81.3351L45.961 81.3964L47.4535 81.4577V77.5808C47.4535 73.2555 47.6207 72.2473 48.5209 71.1417C49.4777 69.9662 50.5612 69.4987 52.0981 69.5979C53.5778 69.6934 54.6388 70.3124 55.482 71.5721C55.982 72.3193 55.9995 72.4687 56.0996 76.838L56.2025 81.3351H57.7465H59.2904L59.3511 78.0004C59.4666 71.6759 58.7694 69.5099 55.9967 67.5785C53.1762 65.6137 49.3204 65.9163 46.7627 68.3034C45.9001 69.1083 45.8204 69.141 45.6249 68.7711C45.2667 68.0935 43.2939 66.8793 42.0065 66.5441C40.5587 66.1671 39.466 66.1573 38.1753 66.5095ZM66.9955 66.4964C64.855 67.1108 63.0786 68.666 62.0973 70.7849C61.6372 71.7784 61.5548 72.2407 61.5548 73.832C61.5548 75.4276 61.6366 75.8845 62.1024 76.8905C63.9512 80.8831 68.5013 82.4823 72.3684 80.4983C73.6822 79.8243 75.3218 77.9556 75.8474 76.5329C76.4108 75.0087 76.424 72.6736 75.8777 71.2177C75.1285 69.2217 73.358 67.3993 71.5235 66.7363C70.2684 66.2825 68.1343 66.1696 66.9955 66.4964ZM93.9253 66.4378C91.8998 66.9553 89.8495 68.6296 88.7988 70.624C88.3323 71.5093 88.3165 71.6998 88.3165 76.4372V81.3351H89.7575H91.1985L91.3014 76.9583C91.4157 72.0985 91.478 71.8449 92.8577 70.6183C93.8123 69.7698 94.3671 69.5593 95.6481 69.5593C96.8149 69.5593 97.6917 69.9428 98.6664 70.8797C99.7365 71.9078 99.9475 73.0023 99.9475 77.5262V81.4577L101.44 81.3964L102.932 81.3351V76.6404V71.9456L102.263 70.5706C101.04 68.0552 98.7617 66.4872 96.0959 66.3253C95.3272 66.2786 94.3504 66.3292 93.9253 66.4378ZM105.3 73.8411V81.4577L106.792 81.3964L108.285 81.3351L108.339 73.7799L108.393 66.2246H106.846H105.3V73.8411ZM66.9776 69.9691C63.8852 71.67 63.935 76.0994 67.0644 77.7159C68.278 78.3426 70.1566 78.2007 71.3045 77.3951C72.3266 76.6782 73.1859 75.0506 73.1859 73.832C73.1859 72.6108 72.3266 70.9858 71.3 70.2657C70.1776 69.4781 68.1261 69.3374 66.9776 69.9691ZM100.359 84.5657C100.359 84.8714 100.497 84.9825 100.874 84.9825C101.251 84.9825 101.388 84.8714 101.388 84.5657C101.388 84.2599 101.251 84.1488 100.874 84.1488C100.497 84.1488 100.359 84.2599 100.359 84.5657ZM32.8375 87.3793V90.4014H33.3405C33.7847 90.4014 33.8506 90.2985 33.9066 89.5157C33.9648 88.6997 34.0186 88.6253 34.5873 88.5728C36.3917 88.4058 36.9547 87.9204 36.9547 86.5319C36.9547 86.0086 36.8639 85.4087 36.7532 85.1991C36.4736 84.6705 35.4651 84.3572 34.042 84.3572H32.8375V87.3793ZM50.1667 84.8262C50.2139 85.1619 50.3934 85.3139 50.7987 85.361C51.2862 85.4179 51.3648 85.3527 51.3648 84.892C51.3648 84.4341 51.274 84.3572 50.7328 84.3572C50.1953 84.3572 50.1109 84.4273 50.1667 84.8262ZM54.8644 85.2153C54.8644 86.0319 54.8381 86.0682 54.3166 85.9673C53.6062 85.8297 52.6457 86.174 52.3898 86.658C52.018 87.3614 52.1477 89.251 52.6084 89.8437C52.9954 90.342 53.1371 90.3802 54.4097 90.3304L55.7908 90.2762L55.8478 87.3166L55.905 84.3572H55.3846C54.9124 84.3572 54.8644 84.4364 54.8644 85.2153ZM33.8668 86.4414V87.5075L34.7378 87.4433C35.4812 87.3887 35.6387 87.2937 35.8108 86.7951C36.1033 85.9483 35.7566 85.5173 34.7207 85.4396L33.8668 85.3754V86.4414ZM90.9412 85.7476C90.654 85.8081 90.478 85.9981 90.478 86.2476C90.478 86.554 90.6225 86.6499 91.084 86.6499C91.9976 86.6499 92.7404 87.4177 92.7978 88.4214L92.8454 89.2551L91.4428 89.317C90.1299 89.375 90.0442 89.4083 90.1048 89.8381C90.1651 90.2685 90.2888 90.301 92.0734 90.3573L93.9776 90.4171V89.152C93.9776 86.6461 92.8229 85.3516 90.9412 85.7476ZM95.8766 85.7497C94.9377 85.9439 94.3646 87.7076 94.8031 89.0534C95.0676 89.8646 95.925 90.4014 96.9559 90.4014C97.3302 90.4014 97.4772 90.5127 97.4772 90.796C97.4772 91.2597 97.0924 91.4436 96.1222 91.4436C95.5691 91.4436 95.4186 91.528 95.4186 91.8381C95.4186 92.3031 95.8035 92.4857 96.7834 92.4857C97.6785 92.4857 98.4025 91.7506 98.5804 90.6607C98.7601 89.5598 98.7434 86.068 98.5579 85.9565C98.2916 85.7966 96.367 85.6482 95.8766 85.7497ZM41.9596 86.119C41.0877 86.5063 40.6874 87.7251 41.0402 88.9177C41.3364 89.919 41.6598 90.2007 42.6694 90.3379C43.3176 90.4258 43.5776 90.3443 44.1184 89.8837C44.7088 89.3808 44.7774 89.2059 44.7774 88.2061C44.7774 87.3408 44.6732 86.9738 44.3142 86.5728C43.7301 85.9208 42.8067 85.7428 41.9596 86.119ZM58.0157 86.1192C56.8092 86.6553 56.6048 89.1201 57.6948 89.9884C58.5299 90.6532 60.6285 90.4915 60.6285 89.7622C60.6285 89.4433 60.4329 89.3698 59.4468 89.3177C58.5147 89.2683 58.2506 89.178 58.1965 88.8904C58.1374 88.5755 58.2986 88.5257 59.3783 88.5257H60.6285V87.7151C60.6285 86.263 59.3923 85.5079 58.0157 86.1192ZM100.359 88.2268C100.359 90.6611 100.182 91.4436 99.6315 91.4436C99.447 91.4436 99.3299 91.6459 99.3299 91.9646C99.3299 92.3983 99.4281 92.4857 99.9156 92.4857C100.619 92.4857 101.131 91.965 101.308 91.0701L101.438 90.4112L104.861 90.3543L108.285 90.2972V88.5594C108.285 86.896 108.259 86.7991 107.682 86.2966C107.152 85.8358 106.932 85.7822 105.885 85.8589C105.228 85.9071 104.619 86.0184 104.532 86.1063C104.445 86.1945 104.327 86.9389 104.271 87.7607L104.168 89.2551H102.83H101.491L101.432 87.5357C101.373 85.8645 101.358 85.8162 100.866 85.8162H100.359V88.2268ZM37.8224 88.1609C37.8807 90.2849 37.884 90.2972 38.3957 90.2972C38.8912 90.2972 38.9126 90.2418 38.9705 88.8008C39.0298 87.3308 39.0415 87.302 39.6395 87.169C40.1097 87.0644 40.2485 86.9185 40.2485 86.5292C40.2485 85.981 40.0294 85.9054 39.4114 86.2403C39.137 86.3891 39.0133 86.3891 39.0133 86.2403C39.0133 86.1217 38.7321 86.0246 38.3885 86.0246H37.7637L37.8224 88.1609ZM45.5094 86.7424C45.5856 87.1538 45.8048 88.1219 45.9967 88.8937L46.3454 90.2972L47.1746 90.3598C47.6791 90.3977 48.0828 90.316 48.2059 90.1513C48.3171 90.0023 48.5765 89.1301 48.7823 88.213C48.988 87.296 49.2 86.4285 49.2533 86.2851C49.3172 86.1138 49.1444 86.0246 48.7484 86.0246C48.1693 86.0246 48.1363 86.0778 47.8766 87.4314C47.7281 88.2051 47.5322 88.979 47.441 89.1509C47.2281 89.5528 47.1423 89.3372 46.7775 87.4836C46.5321 86.2364 46.4656 86.1234 45.9409 86.0617C45.3904 85.9969 45.3756 86.0202 45.5094 86.7424ZM50.1739 88.1609C50.2322 90.2849 50.2355 90.2972 50.7473 90.2972C51.259 90.2972 51.2623 90.2849 51.3206 88.1609L51.3792 86.0246H50.7473H50.1153L50.1739 88.1609ZM61.7022 88.1807C61.7564 90.1386 61.7916 90.2972 62.1724 90.2972C62.5349 90.2972 62.5965 90.1236 62.6871 88.8452C62.7883 87.4173 62.8011 87.3898 63.459 87.1997C63.9436 87.0596 64.1281 86.8845 64.1281 86.5642C64.1281 86.1657 64.0056 86.1194 62.8859 86.0932L61.6438 86.0644L61.7022 88.1807ZM96.1537 86.9773C95.9689 87.1647 95.8303 87.6576 95.8303 88.1282C95.8303 88.7983 95.9236 88.9944 96.3318 89.1828C97.218 89.5915 97.4772 89.3029 97.4772 87.9069C97.4772 86.7149 97.4512 86.6499 96.9771 86.6499C96.7023 86.6499 96.3318 86.7972 96.1537 86.9773ZM42.3482 87.1084C42.0866 87.3733 42.0166 88.4767 42.2261 89.0296C42.3733 89.4181 43.1482 89.4665 43.501 89.1092C43.6369 88.9717 43.7481 88.5215 43.7481 88.1088C43.7481 87.3041 43.4545 86.8583 42.9246 86.8583C42.7435 86.8583 42.4841 86.9708 42.3482 87.1084ZM53.4372 87.2489C53.1756 87.7439 53.1546 88.7276 53.3975 89.1155C53.4961 89.2731 53.8281 89.3631 54.1664 89.3239C54.7424 89.2574 54.7615 89.218 54.7615 88.1088C54.7615 87.0202 54.7337 86.9592 54.2092 86.8979C53.825 86.8529 53.5902 86.9598 53.4372 87.2489ZM58.3049 86.9877C57.9262 87.3712 58.1944 87.692 58.8937 87.692C59.4831 87.692 59.6159 87.6194 59.5611 87.3272C59.4915 86.956 58.5796 86.7095 58.3049 86.9877ZM105.383 87.1472C105.323 87.306 105.303 87.8452 105.338 88.3456C105.403 89.2549 105.403 89.2551 106.278 89.3191L107.153 89.3833V88.3708C107.153 87.8141 107.041 87.246 106.906 87.1084C106.567 86.7658 105.518 86.7924 105.383 87.1472Z" fill="#FAFBFF"/>
</g>
</g>
<defs>
<filter id="filter0_d_3_25438" x="-4.29153e-05" y="-6.58035e-05" width="146.771" height="146.771" filterUnits="userSpaceOnUse" color-interpolation-filters="sRGB">
<feFlood flood-opacity="0" result="BackgroundImageFix"/>
<feColorMatrix in="SourceAlpha" type="matrix" values="0 0 0 0 0 0 0 0 0 0 0 0 0 0 0 0 0 0 127 0" result="hardAlpha"/>
<feOffset dy="8.624"/>
<feGaussianBlur stdDeviation="4.928"/>
<feComposite in2="hardAlpha" operator="out"/>
<feColorMatrix type="matrix" values="0 0 0 0 0 0 0 0 0 0 0 0 0 0 0 0 0 0 0.12 0"/>
<feBlend mode="normal" in2="BackgroundImageFix" result="effect1_dropShadow_3_25438"/>
<feBlend mode="normal" in="SourceGraphic" in2="effect1_dropShadow_3_25438" result="shape"/>
</filter>
<filter id="filter1_d_3_25438" x="31.5026" y="37.0457" width="83.16" height="57.9041" filterUnits="userSpaceOnUse" color-interpolation-filters="sRGB">
<feFlood flood-opacity="0" result="BackgroundImageFix"/>
<feColorMatrix in="SourceAlpha" type="matrix" values="0 0 0 0 0 0 0 0 0 0 0 0 0 0 0 0 0 0 127 0" result="hardAlpha"/>
<feOffset dy="1.232"/>
<feGaussianBlur stdDeviation="0.616"/>
<feComposite in2="hardAlpha" operator="out"/>
<feColorMatrix type="matrix" values="0 0 0 0 0 0 0 0 0 0 0 0 0 0 0 0 0 0 0.32 0"/>
<feBlend mode="normal" in2="BackgroundImageFix" result="effect1_dropShadow_3_25438"/>
<feBlend mode="normal" in="SourceGraphic" in2="effect1_dropShadow_3_25438" result="shape"/>
</filter>
</defs>
</svg>
