<svg width="13" height="12" viewBox="0 0 13 12" fill="none" xmlns="http://www.w3.org/2000/svg">
<path d="M9.28014 6.97604C9.21614 7.37071 9.09347 7.72804 8.91214 8.04804C8.74147 8.35738 8.52281 8.62404 8.25614 8.84804C8.00014 9.06138 7.70681 9.22671 7.37614 9.34404C7.05614 9.45071 6.72014 9.50404 6.36814 9.50404C5.84547 9.50404 5.37081 9.41338 4.94414 9.23204C4.52814 9.05071 4.17081 8.80004 3.87214 8.48004C3.57347 8.16004 3.33881 7.78671 3.16814 7.36004C3.00814 6.92271 2.92814 6.45338 2.92814 5.95204C2.92814 5.44004 3.00281 4.96538 3.15214 4.52804C3.31214 4.09071 3.53614 3.71204 3.82414 3.39204C4.12281 3.07204 4.48014 2.82138 4.89614 2.64004C5.32281 2.45871 5.80281 2.36804 6.33614 2.36804C6.70947 2.36804 7.05614 2.42138 7.37614 2.52804C7.70681 2.63471 8.00014 2.79471 8.25614 3.00804C8.51214 3.21071 8.72547 3.46671 8.89614 3.77604C9.06681 4.08538 9.17881 4.44271 9.23214 4.84804H7.98414C7.89881 4.47471 7.70681 4.18138 7.40814 3.96804C7.10947 3.75471 6.75214 3.64804 6.33614 3.64804C5.72814 3.64804 5.26414 3.86138 4.94414 4.28804C4.62414 4.70404 4.46414 5.24804 4.46414 5.92004C4.46414 6.22938 4.50681 6.52804 4.59214 6.81604C4.68814 7.09338 4.81614 7.33871 4.97614 7.55204C5.14681 7.75471 5.34947 7.92004 5.58414 8.04804C5.81881 8.16538 6.08014 8.22404 6.36814 8.22404C6.81614 8.22404 7.18414 8.11204 7.47214 7.88804C7.76014 7.66404 7.93081 7.36004 7.98414 6.97604H9.28014ZM1.63214 5.98404C1.63214 6.66671 1.74947 7.29604 1.98414 7.87204C2.21881 8.44804 2.53881 8.94404 2.94414 9.36004C3.34947 9.77604 3.82414 10.1014 4.36814 10.336C4.92281 10.5707 5.51481 10.688 6.14414 10.688C6.76281 10.688 7.34414 10.5707 7.88814 10.336C8.44281 10.1014 8.92281 9.77604 9.32814 9.36004C9.73347 8.94404 10.0535 8.44804 10.2881 7.87204C10.5335 7.29604 10.6561 6.66671 10.6561 5.98404C10.6561 5.30138 10.5335 4.67204 10.2881 4.09604C10.0535 3.52004 9.73347 3.02404 9.32814 2.60804C8.92281 2.19204 8.44281 1.86671 7.88814 1.63204C7.34414 1.39738 6.76281 1.28004 6.14414 1.28004C5.51481 1.28004 4.92281 1.39738 4.36814 1.63204C3.82414 1.86671 3.34947 2.19204 2.94414 2.60804C2.53881 3.02404 2.21881 3.52004 1.98414 4.09604C1.74947 4.67204 1.63214 5.30138 1.63214 5.98404ZM0.000140637 5.98404C0.000140637 5.06671 0.165474 4.24004 0.496141 3.50404C0.837474 2.76804 1.29081 2.14404 1.85614 1.63204C2.42147 1.10938 3.07214 0.709378 3.80814 0.432044C4.55481 0.144045 5.33347 4.48227e-05 6.14414 4.48227e-05C6.95481 4.48227e-05 7.72814 0.144045 8.46414 0.432044C9.21081 0.709378 9.86681 1.10938 10.4321 1.63204C10.9975 2.14404 11.4455 2.76804 11.7761 3.50404C12.1175 4.24004 12.2881 5.06671 12.2881 5.98404C12.2881 6.89071 12.1175 7.71204 11.7761 8.44804C11.4455 9.18404 10.9975 9.81338 10.4321 10.336C9.86681 10.8587 9.21081 11.2587 8.46414 11.536C7.72814 11.8134 6.95481 11.952 6.14414 11.952C5.33347 11.952 4.55481 11.8134 3.80814 11.536C3.07214 11.2587 2.42147 10.8587 1.85614 10.336C1.29081 9.81338 0.837474 9.18404 0.496141 8.44804C0.165474 7.71204 0.000140637 6.89071 0.000140637 5.98404Z" fill="#172B4D"/>
</svg>
