<svg width="64" height="41" viewBox="0 0 64 41" fill="none" xmlns="http://www.w3.org/2000/svg">
<path fill-rule="evenodd" clip-rule="evenodd" d="M29.9032 5.63598L28.5599 7.01806L29.333 8.50645C31.1823 12.0663 31.3599 11.9085 25.5086 11.9085C21.4363 11.9085 19.8438 11.7329 18.1445 11.0954L15.9762 10.2827L15.2949 11.5827C14.6256 12.8602 14.6368 12.9006 15.9487 13.914C17.5036 15.1149 17.2605 16.1695 15.2557 16.9188C11.7695 18.2214 7.78815 17.7762 6.14786 15.9004C5.26264 14.8874 5.17256 14.4681 5.41994 12.5153L5.70223 10.2861L4.35242 9.99399C3.60985 9.83282 2.9052 9.79752 2.78625 9.9149C2.66687 10.0323 2.357 11.3544 2.09669 12.853C1.67779 15.2659 1.7183 15.769 2.45182 17.2514C3.68872 19.7519 6.16165 20.8389 10.6132 20.8389C15.1664 20.8389 18.0695 19.5495 19.3741 16.9478L20.2377 15.2251L32.7218 15.3488L33.1777 13.2506C33.4665 11.9221 33.4958 10.3163 33.2575 8.8726C32.8713 6.53242 32.0163 4.2539 31.5241 4.2539C31.3715 4.2539 30.6423 4.87562 29.9032 5.63598ZM40.7543 5.28557C38.6042 8.16497 38.6335 7.80181 40.3612 10.1752C41.4723 11.701 41.9382 12.7896 41.9382 13.8596C41.9382 16.6786 38.7011 18.7606 35.6214 17.9216C34.3091 17.564 34.0268 17.6171 33.6604 18.2929C32.9868 19.535 33.1377 19.9182 34.5944 20.6615C35.5675 21.1582 36.6924 21.3041 38.5339 21.1727C40.9 21.0034 41.2486 20.8435 42.7842 19.2191C43.7039 18.2461 44.5641 16.9206 44.6951 16.2737C44.9231 15.1494 45.0442 15.0979 47.4715 15.0979C49.2152 15.0979 50.2237 14.8866 50.6939 14.4226C51.3188 13.806 51.5506 13.8336 53.3681 14.7415C56.5181 16.315 60.8804 15.8595 61.4122 13.9017C62.6629 9.3004 60.227 4.67703 56.5547 4.68085C54.2813 4.68298 52.616 5.89666 50.5116 9.08352C48.9424 11.4603 48.4541 11.9085 47.4348 11.9085C45.9152 11.9085 45.2748 11.2744 43.3341 7.85071C41.5826 4.76038 41.3327 4.5116 40.7543 5.28557ZM54.3817 9.20175C53.8904 9.81794 53.4883 10.5647 53.4883 10.8611C53.4883 11.5096 55.7147 12.3337 57.4658 12.3337C58.6643 12.3337 58.7135 12.2632 58.4307 10.9517C57.8123 8.0795 55.9259 7.26428 54.3817 9.20175ZM6.20992 27.6986C5.4514 27.9091 4.71271 28.2702 4.56834 28.5002C4.16322 29.1471 3.49521 28.9948 3.49521 28.2553C3.49521 27.7484 3.11336 27.6229 1.87905 27.7237L0.262895 27.8556L0 40.8258H3.89774L4.0197 36.0464C4.14124 31.278 4.14426 31.2661 5.34969 30.6967C6.38964 30.2059 6.70468 30.2213 7.61231 30.8081C8.6251 31.463 8.66691 31.6752 8.66691 36.1578V40.8258H12.1147V36.5542C12.1147 32.5853 12.1897 32.208 13.1728 31.2385C14.4053 30.0218 15.0143 29.9482 16.3284 30.8566C17.2192 31.4719 17.2864 31.8453 17.2864 36.1723V40.8258H20.7342V35.5429C20.7342 30.5321 20.6786 30.1949 19.6602 28.9999C17.9311 26.9727 14.3243 27.0144 12.5866 29.082C12.0242 29.7514 11.9022 29.7297 10.8627 28.7775C9.50084 27.5294 8.03941 27.1905 6.20992 27.6986ZM26.2253 27.8062C24.0872 28.5845 23.4308 29.1641 22.3762 31.2032C21.2949 33.295 21.525 36.3841 22.9046 38.2956C25.8249 42.3423 32.9373 41.7282 34.9978 37.2516C36.0114 35.0492 36.0114 33.4196 34.9978 31.2172C33.5898 28.1579 29.5619 26.5917 26.2253 27.8062ZM42.723 27.6923C42.1351 27.9236 41.3107 28.4195 40.8913 28.7945C40.1837 29.4265 40.1281 29.4094 40.1281 28.5594C40.1281 27.7739 39.882 27.6429 38.4042 27.6429H36.6803V40.8258H40.1281V37.056C40.1281 33.8449 40.2651 33.1138 41.0525 32.126C41.7908 31.2002 42.2584 30.9986 43.3716 31.127C44.6981 31.2797 44.7865 31.1998 45.1839 29.4864C45.5192 28.0397 45.4799 27.6391 44.9843 27.4512C44.2086 27.1577 44.0336 27.1764 42.723 27.6923ZM51.2274 28.0452C49.2979 29.0888 49.1786 29.1024 49.1786 28.2808C49.1786 27.8352 48.7234 27.6429 47.6701 27.6429H46.1617V40.8258H49.6095V36.1723C49.6095 31.8453 49.6768 31.4719 50.5676 30.8566C51.9191 29.9223 53.3258 30.0346 54.1102 31.1398C54.6119 31.8462 54.7812 33.1878 54.7812 36.4555V40.8258H58.3157L58.1644 35.3069C58.0209 30.0516 57.961 29.736 56.9128 28.7022C55.3872 27.1973 53.2513 26.9502 51.2274 28.0452ZM59.9529 40.8258H63.4007V27.6429H59.9529V40.8258ZM27.2075 30.7405C25.153 31.7662 24.4837 35.0951 25.9753 36.868C27.6613 38.8731 31.0599 38.1399 31.9137 35.588C32.5645 33.642 31.6336 31.2325 29.9928 30.6172C28.5831 30.0882 28.5077 30.0916 27.2075 30.7405Z" fill="black"/>
<path d="M7.1113 22.9638H14.0069V25.5153H7.1113V22.9638Z" fill="#F25714"/>
<path d="M30.8149 2.12628C30.8149 3.30059 29.8502 4.25255 28.66 4.25255C27.4699 4.25255 26.5052 3.30059 26.5052 2.12628C26.5052 0.951966 27.4699 0 28.66 0C29.8502 0 30.8149 0.951966 30.8149 2.12628Z" fill="#00AFA0"/>
<path d="M64 23.8143C64 24.9886 63.0352 25.9406 61.8451 25.9406C60.655 25.9406 59.6903 24.9886 59.6903 23.8143C59.6903 22.64 60.655 21.688 61.8451 21.688C63.0352 21.688 64 22.64 64 23.8143Z" fill="#00AFA0"/>
</svg>
