<svg width="58" height="43" viewBox="0 0 58 43" fill="none" xmlns="http://www.w3.org/2000/svg">
<path fill-rule="evenodd" clip-rule="evenodd" d="M6.066 0.495297C5.46134 0.771177 4.64704 1.30216 4.2561 1.6749L3.54568 2.35293V1.3207C3.54568 0.288467 3.54536 0.288148 2.05055 0.385649L0.555413 0.48315L0.470112 6.95658L0.385125 13.43H2.43739H4.48997V9.18568C4.48997 4.16134 4.73895 3.52007 6.68829 3.52007C7.62975 3.52007 8.055 3.71155 8.55894 4.36241C9.1422 5.11525 9.21145 5.6408 9.21145 9.31738V13.43H11.1H12.9886V8.60323C12.9886 3.2282 12.7066 2.12436 11.021 0.905441C9.80352 0.0250545 7.51172 -0.164833 6.066 0.495297ZM17.4693 0.812096C15.3607 1.89612 14.26 3.67319 14.0179 6.385C13.8715 8.02302 13.9688 8.54313 14.7082 10.0779C15.9185 12.5902 17.413 13.547 20.3573 13.6941C22.3403 13.7935 22.7221 13.7136 23.7832 12.9786C25.2185 11.9844 25.2645 11.9787 25.2645 12.7907C25.2645 13.3447 25.4744 13.43 26.8383 13.43H28.4121V6.87666V0.323312H26.8383C25.4744 0.323312 25.2645 0.408665 25.2645 0.962663C25.2645 1.77144 25.1134 1.76377 23.91 0.893613C22.3548 -0.231005 19.5675 -0.26649 17.4693 0.812096ZM36.2154 0.303173C35.7468 0.455658 34.9422 0.884662 34.4282 1.25644L33.4937 1.93256L33.3923 1.20785C33.3023 0.564986 33.1131 0.48315 31.7171 0.48315H30.1433V6.87666V13.2702L32.1106 13.3654L34.0779 13.4604V9.42831C34.0779 4.36977 34.4229 3.53509 36.5173 3.52486C37.1257 3.52199 37.7952 3.779 38.1698 4.15942C38.7373 4.73579 38.7993 5.2249 38.7993 9.12973V13.4604L40.7666 13.3654L42.7339 13.2702V8.47504C42.7339 3.23236 42.4664 2.25959 40.6451 0.881146C39.7109 0.173704 37.4991 -0.114963 36.2154 0.303173ZM46.954 0.747521C44.8605 1.8699 43.7367 3.70356 43.5765 6.25777C43.3527 9.82407 44.9007 12.4684 47.7764 13.4322C49.4837 14.0045 52.3238 13.7088 53.5351 12.8325C54.5285 12.1145 54.5376 12.1139 54.5376 12.7689C54.5376 13.3571 54.7283 13.43 56.2688 13.43H58V6.87666V0.323312H56.3966C55.1086 0.323312 54.7639 0.438075 54.643 0.907679C54.5011 1.45848 54.4095 1.44921 53.0453 0.747841C51.1063 -0.249227 48.8133 -0.249227 46.954 0.747521ZM18.6462 4.1185C16.1684 6.63499 17.6446 10.5529 21.0708 10.5529C22.2704 10.5529 22.6632 10.3816 23.5647 9.46603C24.4782 8.53833 24.6349 8.1592 24.6349 6.87666C24.6349 5.59412 24.4782 5.21499 23.5647 4.28729C22.6528 3.36119 22.277 3.20039 21.0224 3.20039C19.8209 3.20039 19.384 3.36918 18.6462 4.1185ZM48.0534 4.28729C47.1803 5.17407 46.9832 5.61842 46.9832 6.70084C46.9832 9.23874 48.2624 10.5529 50.7327 10.5529C54.1051 10.5529 55.4413 5.61426 52.5533 3.82568C50.9449 2.82989 49.3248 2.99612 48.0534 4.28729ZM16.7658 21.4401C16.7658 24.9 16.9191 28.1504 17.1205 28.963C17.5776 30.8063 19.7699 33.3135 21.5634 34.0443C24.1237 35.0871 28.3007 34.4589 29.623 32.8321C30.0086 32.3577 30.1509 32.3948 31.1968 33.2435C32.5185 34.316 34.3895 34.8294 37.019 34.8406C38.5683 34.847 38.8831 34.752 39.0156 34.2377C39.1645 33.6591 39.2331 33.6533 40.3238 34.129C41.6669 34.7143 47.467 35.0414 50.5549 34.7054C53.4284 34.3931 55.5776 33.0271 56.8628 30.697C57.785 29.0247 57.8303 28.7722 57.8363 25.2625L57.8426 21.5817L55.8753 21.4865L53.9081 21.3915V24.6193C53.9081 30.2785 53.2656 30.7865 46.2996 30.6353L41.579 30.5326L40.6612 29.4886C40.025 28.7648 39.7436 28.1079 39.7436 27.3458C39.7436 24.9898 41.0845 23.6596 43.4591 23.6596C44.8677 23.6596 46.2007 24.6877 46.5325 26.03C46.7258 26.8123 46.8457 26.8564 48.7736 26.8564H50.8105L50.5879 25.8174C50.2102 24.0538 49.8869 23.4215 48.6499 22.028C47.1211 20.3062 45.4116 19.5179 43.2061 19.5179C40.3965 19.5179 37.6964 21.1895 36.403 23.7296C35.6706 25.1682 35.511 27.7457 36.0562 29.3339L36.5223 30.6925H35.3177C34.499 30.6925 33.8302 30.4457 33.2299 29.9221C32.375 29.1766 32.3416 29.0299 32.1893 25.3667L32.0319 21.5817H30.1433H28.2547L28.0973 25.1538C27.9557 28.3713 27.8647 28.8074 27.1814 29.5445C25.7385 31.1014 23.1489 30.9204 21.7913 29.1676C21.2219 28.4324 21.1725 27.8471 21.1725 21.8583V15.3481H18.9692H16.7658V21.4401ZM28.6183 16.2524C27.4174 17.5999 28.4625 20.1432 30.217 20.1432C31.1093 20.1432 32.504 18.814 32.504 17.963C32.504 17.627 32.2104 16.9733 31.8515 16.5101C31.0609 15.489 29.4153 15.358 28.6183 16.2524ZM54.2458 16.5101C53.389 17.6162 53.4221 18.4 54.366 19.3584C55.853 20.8689 58 19.945 58 17.7952C58 15.6927 55.5329 14.8481 54.2458 16.5101ZM7.16548 18.524C4.89697 19.0851 2.68511 21.0143 1.77513 23.2265C1.02976 25.0384 1.22146 27.5171 2.2627 29.5273C3.13743 31.2161 3.15285 31.3139 2.57715 31.4993C1.68825 31.7861 0.450912 33.5852 0.150311 35.0286C-0.482681 38.0687 0.910154 40.7706 3.82677 42.1596C5.34456 42.8824 6.0106 43 8.58192 43C11.4145 43 14.9348 42.2424 15.3616 41.5413C15.4945 41.323 14.931 38.0326 14.7192 37.7893C14.6736 37.7365 13.7343 38.0019 12.6323 38.3791C9.98419 39.285 6.24227 39.1834 4.90483 38.1691C3.64452 37.2136 3.64483 35.3604 4.90515 34.4033C5.70182 33.7985 6.29106 33.7189 10.6496 33.6271L15.5067 33.5245V31.4693V29.4138H11.75C9.68391 29.4138 7.63731 29.2763 7.2023 29.1085C4.78554 28.175 4.69237 24.0765 7.06003 22.8333C8.89479 21.8694 11.1576 22.637 11.9159 24.4799C12.3591 25.5572 12.4028 25.5777 14.2518 25.5777C15.9971 25.5777 16.136 25.5246 16.1331 24.8584C16.1278 23.5979 14.6698 20.8983 13.5089 19.999C12.3427 19.0956 9.90708 18.2012 8.76794 18.2577C8.40596 18.276 7.68484 18.3955 7.16548 18.524Z" fill="black"/>
</svg>
