<svg width="121" height="48" viewBox="0 0 121 48" fill="none" xmlns="http://www.w3.org/2000/svg">
<path d="M57.6011 14.3003C58.2302 12.522 59.676 11.0868 61.3695 10.5598C62.3434 10.2569 64.4232 10.2503 65.5393 10.5466C66.4533 10.7895 67.9497 11.6247 67.9502 11.8923C67.9508 12.0946 66.7289 13.6838 66.573 13.6838C66.5053 13.6838 66.0515 13.4369 65.5649 13.135C64.7944 12.6571 64.5321 12.5862 63.537 12.5862C62.537 12.5862 62.3024 12.6505 61.6602 13.1002C60.3165 14.0416 59.707 15.8521 60.1738 17.516C60.4458 18.4851 61.5174 19.6247 62.4432 19.9295C63.2322 20.1894 64.4444 20.0861 65.2848 19.6875C65.9024 19.3947 65.9195 19.362 65.9195 18.4771V17.5676H64.5835C63.08 17.5676 63.0421 17.5361 63.0421 16.2873C63.0421 15.7402 63.1098 15.5391 63.296 15.5333C63.4356 15.5289 64.5781 15.5254 65.8348 15.5254C67.0916 15.5254 68.198 15.5289 68.2935 15.5333C68.4064 15.5386 68.4509 16.4413 68.4204 18.1142L68.3737 20.687L67.2644 21.3242C66.4169 21.8108 65.8279 22.0087 64.768 22.1629C61.5445 22.6315 58.9956 21.4408 57.8237 18.9185C57.214 17.6065 57.1202 15.66 57.6011 14.3003Z" fill="black"/>
<path d="M96.3861 22.1411V16.2167V10.2923L97.695 10.3416L99.0037 10.3909L101.799 13.93L104.595 17.469L104.641 13.8878L104.687 10.3065H105.953H107.219V16.2167V22.1269H106.076H104.933L103.903 20.8182C103.337 20.0985 102.155 18.5977 101.276 17.4832C100.397 16.3687 99.548 15.2711 99.3894 15.0441C99.1133 14.6492 99.099 14.7907 99.0553 18.337L99.0096 22.0425L97.6978 22.0918L96.3861 22.1411Z" fill="black"/>
<path d="M57.6175 29.4093C57.9024 28.2801 58.3416 27.7644 59.5179 27.178C60.4238 26.7264 60.7351 26.6599 61.9424 26.6599C63.4718 26.6599 64.8713 27.0454 65.966 27.7681L66.6055 28.1903L66.0508 28.9791C65.7458 29.4127 65.4469 29.8392 65.3867 29.9267C65.3235 30.0182 65.0356 29.9387 64.7096 29.74C64.0302 29.3256 62.4928 28.8551 61.8182 28.8551C61.1686 28.8551 60.3972 29.2708 60.2904 29.6785C60.0602 30.5567 60.8921 31.1478 63.0395 31.6314C64.5889 31.9804 65.8139 32.6231 66.4053 33.3975C66.7844 33.8938 66.8502 34.1491 66.8497 35.1191C66.8492 36.114 66.7842 36.3499 66.3353 36.9871C65.9921 37.4744 65.4911 37.8849 64.8245 38.2248C63.9122 38.6902 63.689 38.7324 62.2075 38.7203C60.8414 38.7091 60.3977 38.6314 59.3736 38.2245C58.7057 37.959 57.8893 37.5092 57.5593 37.2247L56.9591 36.7073L57.6986 35.8716L58.4381 35.0357L59.1038 35.4752C60.6914 36.5235 63.0438 36.8054 63.8114 36.0394C64.0399 35.8114 64.2269 35.4751 64.2269 35.2918C64.2269 34.834 63.5106 34.3123 62.4722 34.0139C61.9944 33.8764 61.0685 33.6125 60.4147 33.4271C58.1566 32.7873 57.1351 31.32 57.6175 29.4093Z" fill="black"/>
<path d="M68.9661 38.6634V32.6545V26.6457L70.2779 26.695L71.5897 26.7443L71.6367 29.0662L71.6838 31.3881H74.2179H76.7521V29.0169V26.6457L78.0638 26.695L79.3756 26.7443V32.6545V38.5647L78.0638 38.6141L76.7521 38.6634V36.2078V33.7521H74.2177H71.6836L71.6365 36.1584L71.5897 38.5647L70.2779 38.6141L68.9661 38.6634Z" fill="black"/>
<path d="M82.253 38.5647L82.2084 32.6123L82.1639 26.6599H83.5224H84.8809L84.8364 32.6123L84.7918 38.5647H83.5224H82.253Z" fill="black"/>
<path d="M87.729 38.446C87.5638 38.1862 87.5333 26.9361 87.6975 26.7725C87.7595 26.7105 89.854 26.6599 92.3521 26.6599H96.8939V27.8419V29.024H93.6779H90.462V30.3708V31.7178L93.3817 31.764L96.3015 31.8102V32.9078V34.0054L93.3866 34.0515L90.4718 34.0978L90.4246 36.3312L90.3774 38.5647L89.1228 38.6149C88.2336 38.6505 87.8278 38.6012 87.729 38.446Z" fill="black"/>
<path d="M97.9094 29.024V27.8394V26.6548L102.945 26.6996L107.98 26.7443V27.8419V28.9395L106.163 28.9875L104.346 29.0353L104.302 33.8001L104.257 38.5647L103.002 38.6149C102.113 38.6505 101.707 38.6012 101.608 38.446C101.532 38.3256 101.468 36.1562 101.466 33.6255L101.464 29.024H99.6866H97.9094Z" fill="black"/>
<path d="M10.0998 0.0780951C10.0374 0.140406 9.98627 2.3824 9.98627 5.06041V9.92924H4.99314H0V18.7797C0 28.3179 0.0231892 28.6357 0.939049 31.6466C1.58409 33.7672 3.04107 36.6684 4.33709 38.4134C7.92809 43.248 12.7745 46.3883 18.5338 47.6123C20.1073 47.9466 20.8676 48.0066 23.4424 47.9995C26.152 47.9919 26.7043 47.94 28.4355 47.5309C32.9144 46.4721 36.5349 44.5082 39.6973 41.4222C41.6265 39.5396 42.8872 37.8373 44.1703 35.3822C45.849 32.1706 46.7134 28.7869 46.7148 25.4224L46.7155 23.776H41.6377H36.5599V19.0479V14.3197H31.8207H27.0814V19.0479V23.776H31.676H36.2707L36.1794 25.4285C35.9191 30.1398 33.0316 34.4185 28.7733 36.4023C27.1862 37.1417 25.878 37.4565 23.92 37.5701C18.164 37.9041 12.9999 34.3016 11.0457 28.5886L10.5836 27.2377L10.5301 18.7523L10.4768 10.267L28.2999 10.2644C38.1025 10.2629 46.2194 10.2008 46.3372 10.1261C46.5037 10.0208 46.5415 8.88415 46.5064 5.02056L46.4616 0.0507414L28.3375 0.00785054C18.3693 -0.0157903 10.1623 0.0157846 10.0998 0.0780951Z" fill="#00CCF1"/>
<path fill-rule="evenodd" clip-rule="evenodd" d="M70.6988 16.1629L70.7434 22.0425H72.0974H73.4515L73.4992 20.0584L73.5468 18.0742L74.5148 18.0773C75.4785 18.0803 75.4848 18.0837 76.0247 18.8794C76.3228 19.3189 76.9406 20.2103 77.3974 20.8605L78.2281 22.0425L79.6325 22.092C80.4048 22.1192 81.0962 22.0812 81.169 22.0075C81.2418 21.9339 80.6585 20.9788 79.873 19.8853C79.0875 18.7915 78.4446 17.8415 78.4446 17.7741C78.4446 17.7066 78.7826 17.4726 79.1956 17.254C79.6088 17.0354 80.1609 16.548 80.4228 16.1711C80.8508 15.5549 80.8989 15.3449 80.8989 14.0928C80.8989 12.8167 80.8561 12.639 80.3896 11.9767C80.0815 11.5395 79.5484 11.0833 79.0408 10.8224C78.2261 10.4036 78.0906 10.3894 74.4278 10.3371L70.6543 10.2832L70.6988 16.1629ZM73.5361 16.0786V14.2902V12.5017L75.1018 12.5021C76.9051 12.5022 77.7099 12.7945 78.0865 13.5855C78.4044 14.2528 78.1638 15.15 77.5442 15.6095C77.1466 15.9043 76.7719 15.9731 75.3015 16.021L73.5361 16.0786Z" fill="black"/>
<path fill-rule="evenodd" clip-rule="evenodd" d="M86.4682 11.1024C86.2256 11.6399 85.8152 12.5735 85.5557 13.1772C85.2964 13.7809 84.8196 14.8827 84.4963 15.6257C84.1729 16.3687 83.553 17.8125 83.1189 18.8341C82.6847 19.8557 82.2171 20.9412 82.0796 21.2461C81.9422 21.5511 81.8298 21.8741 81.8298 21.9638C81.8298 22.0572 82.5156 22.1269 83.4361 22.1269H85.0423L85.5412 21.0293L86.0401 19.9317H88.3949H90.7498L91.2172 21.0293L91.6849 22.1269H93.3585C94.2861 22.1269 95.032 22.0564 95.032 21.9687C95.032 21.8817 94.2404 20.0011 93.2727 17.7893C92.3053 15.5777 91.167 12.9703 90.7437 11.9951L89.9737 10.2221L88.4412 10.1736L86.9089 10.125L86.4682 11.1024ZM86.9577 17.6738C86.9155 17.6318 87.2055 16.8321 87.6021 15.8964C87.9986 14.9609 88.3664 14.2378 88.4194 14.2895C88.4722 14.3412 88.8315 15.1189 89.2178 16.0178L89.92 17.6521L88.4771 17.7012C87.6835 17.7282 86.9998 17.7159 86.9577 17.6738Z" fill="black"/>
<path fill-rule="evenodd" clip-rule="evenodd" d="M109.967 16.1745L110.011 22.0425L112.698 22.0891C116.518 22.1553 117.916 21.7428 119.548 20.0683C120.519 19.0729 120.992 17.8172 121 16.2167C121.008 14.609 120.614 13.4433 119.718 12.4281C118.207 10.7155 116.896 10.3112 112.844 10.3085L109.922 10.3065L109.967 16.1745ZM112.635 16.2655C112.635 14.3192 112.692 12.6676 112.762 12.5951C112.931 12.4195 115.319 12.6056 115.946 12.8433C116.756 13.1507 117.523 13.8263 117.901 14.5654C118.432 15.6044 118.307 17.265 117.624 18.2495C116.935 19.2412 116.001 19.6354 114.116 19.7299L112.635 19.8042V16.2655Z" fill="black"/>
</svg>
