<svg width="74" height="66" viewBox="0 0 74 66" fill="none" xmlns="http://www.w3.org/2000/svg">
<path d="M10.9009 14.9481C28.7358 15.2424 67.3284 41.1901 72.9193 45.0126C73.1605 45.1775 73.4385 44.9452 73.3313 44.6734C69.3803 34.6596 40.9931 18.1415 26.3234 10.6389C26.0765 10.5126 26.1139 10.1652 26.3811 10.0906C28.811 9.41215 34.3947 8.37468 42.164 8.37468C50.6017 8.37468 57.6853 10.1694 60.3856 11.1352C60.5089 11.1793 60.5881 11.2959 60.5881 11.4268V23.665C60.5881 23.7713 60.642 23.8704 60.7313 23.9282L68.8655 29.1915C69.0741 29.3264 69.3493 29.1767 69.3493 28.9283V5.48034C69.3493 5.3595 69.285 5.25157 69.1753 5.20091C65.3075 3.41529 54.0044 0 38.1699 0C22.3584 0 13.3905 3.40537 10.7275 5.19312C10.643 5.24985 10.5977 5.34304 10.5977 5.44482V14.6321C10.5977 14.8052 10.7278 14.9452 10.9009 14.9481Z" fill="#2863E4"/>
<path fill-rule="evenodd" clip-rule="evenodd" d="M61.7389 44.2615C62.1313 43.3692 62.3597 42.5347 62.3887 41.7784C62.3927 41.6743 62.3449 41.5837 62.2584 41.5256M6.66263 17.4778C4.49892 17.1331 2.37619 16.9018 0.314459 16.8033C-0.048103 16.7859 -0.122368 17.2763 0.224521 17.3831M48.0673 41.0852C49.8328 42.2831 51.1122 43.1974 51.8234 43.7146C52.2501 44.0249 52.4724 44.1923 52.4724 44.1923M52.4724 44.1923L52.2119 44.4473L52.4724 44.1923ZM40.2842 56.1254L40.2803 56.1292C40.1767 56.2307 40.0161 56.2458 39.896 56.1646C40.0188 56.2476 40.1783 56.2291 40.2842 56.1254Z" fill="#2863E4"/>
<path fill-rule="evenodd" clip-rule="evenodd" d="M12.4081 29.1047C12.8588 47.3746 37.7123 64.0188 39.9428 65.4763C40.05 65.5464 40.1665 65.534 40.2705 65.4591C46.8113 60.75 58.8183 50.9026 61.7389 44.2615C62.1313 43.3692 62.3597 42.5347 62.3887 41.7784C62.3927 41.6743 62.3449 41.5837 62.2584 41.5256C51.4439 34.251 27.2059 20.7506 6.66263 17.4778C4.49892 17.1331 2.37619 16.9018 0.314459 16.8033C-0.048103 16.7859 -0.122368 17.2763 0.224521 17.3831C21.186 23.8405 39.8686 35.5222 48.0673 41.0852C49.8328 42.2831 51.1122 43.1974 51.8234 43.7146C52.2501 44.0249 52.4724 44.1923 52.4724 44.1923L52.2119 44.4473L40.2842 56.1254L40.2803 56.1292C40.1767 56.2307 40.0161 56.2458 39.896 56.1646C34.078 52.2341 22.878 42.5329 22.7121 33.8226C22.7098 33.7028 22.6419 33.5941 22.5341 33.5415L12.8527 28.8223C12.6444 28.7209 12.4024 28.8732 12.4081 29.1047ZM52.1799 43.9753C52.3344 44.089 52.3489 44.3131 52.2119 44.4473L52.4724 44.1923C52.4724 44.1923 52.3731 44.1175 52.1799 43.9753ZM52.4724 44.1923C52.4724 44.1923 52.2501 44.0249 51.8234 43.7146C51.965 43.8175 52.084 43.9047 52.1799 43.9753C52.3731 44.1175 52.4724 44.1923 52.4724 44.1923Z" fill="#18C92F"/>
</svg>
