<svg width="28" height="28" viewBox="0 0 28 28" fill="none" xmlns="http://www.w3.org/2000/svg">
<path d="M2.40869 13.8986C2.54336 13.164 3.13576 12.4129 4.09175 11.7646C5.81308 10.5971 7.77906 10.6019 9.74686 10.5291C10.3999 10.5049 12.1535 10.4969 13.9987 10.5011C15.8439 10.4969 17.5975 10.5049 18.2505 10.5291C20.2183 10.6019 22.1843 10.5971 23.9057 11.7646C24.8616 12.4129 25.4541 13.164 25.5887 13.8986C25.7043 14.5292 25.6865 16.6931 25.5531 18.2202C25.4828 19.0252 25.4113 19.4171 25.3044 19.5818C24.982 20.0787 24.0514 20.4966 22.6824 20.759C21.3977 21.0053 21.5887 21 13.9987 21C6.40867 21 6.59971 21.0053 5.315 20.759C3.94599 20.4966 3.01538 20.0787 2.693 19.5818C2.58618 19.4171 2.5146 19.0252 2.44426 18.2202C2.31089 16.6931 2.29306 14.5292 2.40869 13.8986Z" stroke="#18C92F" stroke-width="2.4" stroke-linecap="round" stroke-linejoin="round"/>
<path d="M5.25 10.5L6.78213 5.23846C6.92285 4.88844 7.19635 4.59609 7.58179 4.46502C11.3653 3.17833 16.6347 3.17833 20.4182 4.46502C20.8037 4.59609 21.0771 4.88844 21.2179 5.23846L22.75 10.5" stroke="#18C92F" stroke-width="2.4" stroke-linecap="round" stroke-linejoin="round"/>
<path d="M2.91797 14L4.66797 14.5833" stroke="#18C92F" stroke-width="2.4" stroke-linecap="round" stroke-linejoin="round"/>
<path d="M25.082 14L23.332 14.5833" stroke="#18C92F" stroke-width="2.4" stroke-linecap="round" stroke-linejoin="round"/>
<path d="M9.33203 20.4167L9.61865 19.7001C10.0449 18.6346 10.258 18.1018 10.7024 17.8009C11.1468 17.5 11.7207 17.5 12.8683 17.5H15.1291C16.2767 17.5 16.8506 17.5 17.295 17.8009C17.7394 18.1018 17.9525 18.6346 18.3787 19.7001L18.6654 20.4167" stroke="#18C92F" stroke-width="2.4" stroke-linecap="round" stroke-linejoin="round"/>
<path d="M8.16659 21.656V22.5918C8.16666 23.6119 8.12199 23.803 7.81403 24.1009C7.72392 24.1879 7.54078 24.3134 7.4071 24.3797C7.17303 24.4956 7.09453 24.5 5.28034 24.5C3.42538 24.5 3.3922 24.498 3.10637 24.3689C2.94668 24.2966 2.74524 24.1525 2.65872 24.0483C2.35331 23.6808 2.33878 23.5724 2.33594 21.6369L2.33672 17.5" stroke="#18C92F" stroke-width="2.4" stroke-linecap="round" stroke-linejoin="round"/>
<path d="M19.832 21.656V22.5918C19.8319 23.6119 19.8766 23.803 20.1846 24.1009C20.2747 24.1879 20.4578 24.3134 20.5915 24.3797C20.8256 24.4956 20.9041 24.5 22.7182 24.5C24.5732 24.5 24.6064 24.498 24.8922 24.3689C25.0519 24.2966 25.2534 24.1525 25.3399 24.0483C25.6453 23.6808 25.6598 23.5724 25.6627 21.6369L25.6619 17.5" stroke="#18C92F" stroke-width="2.4" stroke-linecap="round" stroke-linejoin="round"/>
<path d="M23.332 10.4993L25.082 9.91602" stroke="#18C92F" stroke-width="2.4" stroke-linecap="round" stroke-linejoin="round"/>
<path d="M4.66797 10.4993L2.91797 9.91602" stroke="#18C92F" stroke-width="2.4" stroke-linecap="round" stroke-linejoin="round"/>
</svg>
