<svg width="28" height="28" viewBox="0 0 28 28" fill="none" xmlns="http://www.w3.org/2000/svg">
<path d="M16.9095 2.33105H11.0762C10.1097 2.33105 9.32617 3.11456 9.32617 4.08105C9.32617 5.04756 10.1097 5.83105 11.0762 5.83105H16.9095C17.876 5.83105 18.6595 5.04756 18.6595 4.08105C18.6595 3.11456 17.876 2.33105 16.9095 2.33105Z" stroke="#18C92F" stroke-width="2.4" stroke-linecap="round" stroke-linejoin="round"/>
<path d="M9.32617 17.4977H13.3262M9.32617 12.8311H18.6595" stroke="#18C92F" stroke-width="2.4" stroke-linecap="round" stroke-linejoin="round"/>
<path d="M18.6621 4.08105C20.4745 4.13568 21.5555 4.33781 22.3036 5.08599C23.3288 6.11111 23.3288 7.761 23.3288 11.0608V18.6637C23.3288 21.9636 23.3288 23.6135 22.3036 24.6387C21.2785 25.6637 19.6286 25.6637 16.3288 25.6637H11.6621C8.36229 25.6637 6.71237 25.6637 5.68725 24.6387C4.66212 23.6135 4.66212 21.9636 4.66211 18.6638L4.66213 11.0609C4.66212 7.76102 4.66212 6.1111 5.68725 5.08597C6.43541 4.3378 7.51638 4.13567 9.32866 4.08105" stroke="#18C92F" stroke-width="2.4" stroke-linecap="round" stroke-linejoin="round"/>
</svg>
