<svg width="20" height="20" viewBox="0 0 20 20" fill="none" xmlns="http://www.w3.org/2000/svg">
<path d="M13.6583 2.5L14.4941 3.31312C14.8674 3.67638 15.0541 3.85801 14.9883 4.01234C14.9226 4.16667 14.6586 4.16667 14.1306 4.16667H7.66315C4.3521 4.16667 1.66797 6.77834 1.66797 10C1.66797 11.2393 2.0652 12.3885 2.74255 13.3333" stroke="#2863E4" stroke-width="1.6" stroke-linecap="round" stroke-linejoin="round"/>
<path d="M6.34297 17.4984L5.50729 16.6853C5.13395 16.322 4.94728 16.1404 5.01298 15.986C5.07868 15.8317 5.34267 15.8317 5.87065 15.8317H12.3382C15.6492 15.8317 18.3333 13.22 18.3333 9.99837C18.3333 8.75904 17.9361 7.6099 17.2588 6.66504" stroke="#2863E4" stroke-width="1.6" stroke-linecap="round" stroke-linejoin="round"/>
</svg>
