<svg width="20" height="20" viewBox="0 0 20 20" fill="none" xmlns="http://www.w3.org/2000/svg">
<path d="M12.0807 1.66504H7.91406C7.22371 1.66504 6.66406 2.22469 6.66406 2.91504C6.66406 3.6054 7.22371 4.16504 7.91406 4.16504H12.0807C12.7711 4.16504 13.3307 3.6054 13.3307 2.91504C13.3307 2.22469 12.7711 1.66504 12.0807 1.66504Z" stroke="#8993A4" stroke-width="1.75" stroke-linecap="round"/>
<path d="M6.66406 12.4984H9.52124M6.66406 9.16504H13.3307" stroke="#8993A4" stroke-width="1.75" stroke-linecap="round"/>
<path d="M13.3281 2.91504C14.6227 2.95406 15.3948 3.09844 15.9292 3.63285C16.6615 4.36508 16.6615 5.54357 16.6615 7.90056V13.3312C16.6615 15.6883 16.6615 16.8668 15.9292 17.5991C15.197 18.3312 14.0185 18.3312 11.6615 18.3312H8.32812C5.97111 18.3312 4.7926 18.3312 4.06037 17.5991C3.32813 16.8668 3.32813 15.6883 3.32812 13.3313L3.32814 7.90061C3.32813 5.54359 3.32813 4.36507 4.06037 3.63284C4.59477 3.09843 5.36689 2.95405 6.66137 2.91504" stroke="#8993A4" stroke-width="1.75" stroke-linecap="round"/>
</svg>
