<svg width="28" height="28" viewBox="0 0 28 28" fill="none" xmlns="http://www.w3.org/2000/svg">
<path d="M16.9154 5.83301H14.582C11.2822 5.83301 9.63228 5.83301 8.60716 6.85813C7.58203 7.88326 7.58203 9.53317 7.58203 12.833V18.6663C7.58203 21.9661 7.58203 23.616 8.60716 24.6412C9.63228 25.6663 11.2822 25.6663 14.582 25.6663H16.149C17.1027 25.6663 17.5797 25.6663 18.0084 25.4888C18.4373 25.3111 18.7744 24.9739 19.4489 24.2995L22.5485 21.1999C23.2229 20.5254 23.5601 20.1883 23.7378 19.7594C23.9154 19.3306 23.9154 18.8537 23.9154 17.9V12.833C23.9154 9.53317 23.9154 7.88326 22.8902 6.85813C21.8651 5.83301 20.2152 5.83301 16.9154 5.83301Z" stroke="#18C92F" stroke-width="2.4" stroke-linecap="round" stroke-linejoin="round"/>
<path d="M17.5 25.0833V23.9167C17.5 21.7168 17.5 20.6169 18.1834 19.9334C18.8669 19.25 19.9668 19.25 22.1667 19.25H23.3333" stroke="#18C92F" stroke-width="2.4" stroke-linecap="round" stroke-linejoin="round"/>
<path d="M7.58203 22.1663C5.64904 22.1663 4.08203 20.5994 4.08203 18.6663V9.33301C4.08203 6.03317 4.08203 4.38326 5.10716 3.35813C6.13228 2.33301 7.7822 2.33301 11.082 2.33301H16.9158C18.8488 2.33302 20.4158 3.90006 20.4158 5.83304" stroke="#18C92F" stroke-width="2.4" stroke-linecap="round" stroke-linejoin="round"/>
<path d="M11.668 15.1667H16.3346M11.668 10.5H19.8346" stroke="#18C92F" stroke-width="2.4" stroke-linecap="round" stroke-linejoin="round"/>
</svg>
