<svg width="298" height="34" viewBox="0 0 298 34" fill="none" xmlns="http://www.w3.org/2000/svg">
<path fill-rule="evenodd" clip-rule="evenodd" d="M81.8395 23.3895C82.0196 22.9798 82.1245 22.5968 82.1378 22.2496C82.1396 22.2018 82.1177 22.1602 82.078 22.1335M56.5556 11.0939C55.5623 10.9356 54.5878 10.8295 53.6413 10.7842C53.4749 10.7762 53.4408 11.0013 53.6 11.0504M75.5632 21.9313C76.3737 22.4813 76.9611 22.901 77.2876 23.1384C77.3018 23.1488 77.3156 23.1588 77.3288 23.1684C77.3365 23.1741 77.3441 23.1796 77.3514 23.1849C77.3555 23.1879 77.3596 23.1909 77.3636 23.1938C77.3658 23.1954 77.368 23.1971 77.3702 23.1987C77.5121 23.3024 77.5855 23.3577 77.5855 23.3577M77.5855 23.3577L77.4659 23.4748L77.5855 23.3577ZM71.9903 28.8359L71.9885 28.8376C71.9409 28.8842 71.8672 28.8911 71.812 28.8539C71.8684 28.8919 71.9416 28.8834 71.9903 28.8359Z" fill="black"/>
<path fill-rule="evenodd" clip-rule="evenodd" d="M81.3112 8.31603C81.3112 8.25652 81.2743 8.20222 81.2182 8.18218C81.2748 8.20241 81.3112 8.25595 81.3112 8.31603ZM65.6077 7.70262C65.4851 7.73687 65.4679 7.89634 65.5813 7.95431C65.4699 7.89734 65.4826 7.73765 65.6031 7.70393C65.6046 7.7035 65.6062 7.70306 65.6077 7.70262Z" fill="black"/>
<path d="M58.5013 9.93254C66.6887 10.0677 84.4055 21.9795 86.9721 23.7343C87.0828 23.81 87.2104 23.7033 87.1612 23.5786C85.3474 18.9815 72.3157 11.3986 65.5813 7.95431C65.4699 7.89734 65.4826 7.73765 65.6031 7.70393C65.6046 7.7035 65.6062 7.70306 65.6077 7.70262C66.7232 7.39115 69.2866 6.91488 72.8532 6.91488C76.7267 6.91488 79.9786 7.73878 81.2182 8.18218C81.2743 8.20222 81.3112 8.25652 81.3112 8.31603V13.9342C81.3112 13.983 81.336 14.0285 81.3769 14.055L85.1111 16.4713C85.2069 16.5332 85.3332 16.4645 85.3332 16.3505V5.58618C85.3332 5.5307 85.3037 5.48115 85.2533 5.4579C83.4777 4.63817 78.2888 3.07031 71.0197 3.07031C63.7611 3.07031 59.6441 4.63362 58.4217 5.45432C58.3829 5.48037 58.362 5.52315 58.362 5.56987V9.78748C58.362 9.86696 58.4218 9.93123 58.5013 9.93254Z" fill="#2863E4"/>
<path fill-rule="evenodd" clip-rule="evenodd" d="M77.3702 23.1987C77.368 23.1971 77.3658 23.1954 77.3636 23.1938C77.3596 23.1909 77.3555 23.1879 77.3514 23.1849C77.3441 23.1796 77.3365 23.1741 77.3288 23.1684M77.3288 23.1684C77.3432 23.1789 77.357 23.189 77.3702 23.1987L77.3288 23.1684Z" fill="black"/>
<path d="M59.1931 16.4314C59.4001 24.8186 70.8096 32.4595 71.8335 33.1286C71.8828 33.1607 71.9363 33.155 71.984 33.1207C74.9867 30.9589 80.4987 26.4382 81.8395 23.3895C82.0196 22.9798 82.1245 22.5968 82.1378 22.2496C82.1396 22.2018 82.1177 22.1602 82.078 22.1335C77.1134 18.794 65.9864 12.5963 56.5556 11.0939C55.5623 10.9356 54.5878 10.8295 53.6413 10.7842C53.4749 10.7762 53.4408 11.0013 53.6 11.0504C63.2229 14.0148 71.7995 19.3775 75.5632 21.9313C76.3737 22.4813 76.9611 22.901 77.2876 23.1384L77.3288 23.1684L77.3514 23.1849L77.3636 23.1938L77.3702 23.1987C77.4003 23.2207 77.4273 23.2405 77.4512 23.2581C77.5344 23.3193 77.5802 23.3537 77.5855 23.3577L77.4659 23.4748L71.9903 28.8359L71.9885 28.8376C71.9409 28.8842 71.8672 28.8911 71.812 28.8539C69.1412 27.0495 63.9996 22.5959 63.9234 18.5973C63.9224 18.5423 63.8912 18.4924 63.8417 18.4683L59.3972 16.3018C59.3017 16.2552 59.1905 16.3251 59.1931 16.4314Z" fill="#18C92F"/>
<path d="M2.87023 14.2742H0.474798L4.12473 3.70124H7.00544L10.6502 14.2742H8.25478L5.60638 6.11732H5.52378L2.87023 14.2742ZM2.72051 10.1183H8.37868V11.8633H2.72051V10.1183ZM11.9228 3.70124H14.6796L17.5913 10.8049H17.7152L20.6269 3.70124H23.3837V14.2742H21.2154V7.39248H21.1276L18.3915 14.2225H16.915L14.1788 7.36666H14.0911V14.2742H11.9228V3.70124ZM25.2254 3.70124H27.9822L30.8939 10.8049H31.0178L33.9295 3.70124H36.6863V14.2742H34.518V7.39248H34.4303L31.6941 14.2225H30.2176L27.4814 7.36666H27.3937V14.2742H25.2254V3.70124ZM47.3715 3.70124V14.2742H45.4407L40.8409 7.61963H40.7634V14.2742H38.528V3.70124H40.4898L45.0535 10.3506H45.1464V3.70124H47.3715Z" fill="black"/>
<path d="M9.78394 24.6607V29.1968H36.3672C35.9868 28.5548 35.7771 27.8192 35.7771 27.0603V26.8529C35.7771 26.2524 35.9361 25.6624 36.2364 25.1423L36.331 24.9781C36.8835 24.0213 37.9041 23.432 39.009 23.4317C40.0064 23.4317 40.9431 23.9126 41.5241 24.7234L41.7495 25.0393C42.1534 25.6033 42.3716 26.279 42.3717 26.9726C42.3717 28.1596 41.7378 29.2575 40.7098 29.851L40.6611 29.8788C40.1409 30.1792 39.5498 30.3382 38.9491 30.3382H9.54315L9.01563 31.2498C8.32462 32.4467 7.04743 33.1845 5.66541 33.1845C4.28338 33.1845 3.0062 32.4467 2.31519 31.2498L2.14538 30.9548C1.75402 30.2769 1.54688 29.5077 1.54688 28.725V26.8696H2.68821V28.725C2.68821 29.3075 2.84093 29.881 3.13221 30.3855L3.30341 30.6806C3.79083 31.5243 4.69098 32.0446 5.66541 32.0446C6.63984 32.0446 7.53999 31.5243 8.02741 30.6806L8.64261 29.6144V24.6607H9.78394ZM47.53 22.0385V30.5261H46.39V22.0385H47.53ZM5.73918 24.5062V25.6476H4.31391V24.5062H5.73918ZM46.5014 19.3758C46.5014 18.2738 47.3953 17.3799 48.4973 17.3799V18.5212C48.025 18.5212 47.6427 18.9035 47.6427 19.3758V19.5178H48.4973V20.6591H45.6468V19.5178H46.5014V19.3758ZM36.917 27.0603C36.917 27.8599 37.2323 28.6262 37.7911 29.1968H38.9491C39.3496 29.1968 39.7436 29.0922 40.0904 28.892L40.1406 28.8628C40.8154 28.4729 41.2318 27.7521 41.2318 26.9726C41.2317 26.5171 41.0877 26.0736 40.8226 25.7032L40.5971 25.3873C40.2303 24.8755 39.6387 24.5717 39.009 24.5717C38.3114 24.5719 37.6666 24.9446 37.3178 25.5487L37.2232 25.713C37.0232 26.0596 36.9171 26.4527 36.917 26.8529V27.0603Z" fill="black" stroke="black" stroke-width="0.712636"/>
<rect x="104" y="5.9231" width="2" height="22" rx="1" fill="#DFE1E6"/>
<path d="M123.776 8.78709H128L132.728 22.2031H132.776L137.384 8.78709H141.56V25.9231H138.704V12.6991H138.656L133.904 25.9231H131.432L126.68 12.6991H126.632V25.9231H123.776V8.78709ZM149.976 26.2591C148.984 26.2591 148.096 26.0991 147.312 25.7791C146.544 25.4431 145.888 24.9871 145.344 24.4111C144.816 23.8351 144.408 23.1471 144.12 22.3471C143.848 21.5471 143.712 20.6671 143.712 19.7071C143.712 18.7631 143.848 17.8911 144.12 17.0911C144.408 16.2911 144.816 15.6031 145.344 15.0271C145.888 14.4511 146.544 14.0031 147.312 13.6831C148.096 13.3471 148.984 13.1791 149.976 13.1791C150.968 13.1791 151.848 13.3471 152.616 13.6831C153.4 14.0031 154.056 14.4511 154.584 15.0271C155.128 15.6031 155.536 16.2911 155.808 17.0911C156.096 17.8911 156.24 18.7631 156.24 19.7071C156.24 20.6671 156.096 21.5471 155.808 22.3471C155.536 23.1471 155.128 23.8351 154.584 24.4111C154.056 24.9871 153.4 25.4431 152.616 25.7791C151.848 26.0991 150.968 26.2591 149.976 26.2591ZM149.976 24.0991C150.584 24.0991 151.112 23.9711 151.56 23.7151C152.008 23.4591 152.376 23.1231 152.664 22.7071C152.952 22.2911 153.16 21.8271 153.288 21.3151C153.432 20.7871 153.504 20.2511 153.504 19.7071C153.504 19.1791 153.432 18.6511 153.288 18.1231C153.16 17.5951 152.952 17.1311 152.664 16.7311C152.376 16.3151 152.008 15.9791 151.56 15.7231C151.112 15.4671 150.584 15.3391 149.976 15.3391C149.368 15.3391 148.84 15.4671 148.392 15.7231C147.944 15.9791 147.576 16.3151 147.288 16.7311C147 17.1311 146.784 17.5951 146.64 18.1231C146.512 18.6511 146.448 19.1791 146.448 19.7071C146.448 20.2511 146.512 20.7871 146.64 21.3151C146.784 21.8271 147 22.2911 147.288 22.7071C147.576 23.1231 147.944 23.4591 148.392 23.7151C148.84 23.9711 149.368 24.0991 149.976 24.0991ZM156.787 13.5151H158.851V9.79509H161.587V13.5151H164.059V15.5551H161.587V22.1791C161.587 22.4671 161.595 22.7151 161.611 22.9231C161.643 23.1311 161.699 23.3071 161.779 23.4511C161.875 23.5951 162.011 23.7071 162.187 23.7871C162.363 23.8511 162.603 23.8831 162.907 23.8831C163.099 23.8831 163.291 23.8831 163.483 23.8831C163.675 23.8671 163.867 23.8351 164.059 23.7871V25.8991C163.755 25.9311 163.459 25.9631 163.171 25.9951C162.883 26.0271 162.587 26.0431 162.283 26.0431C161.563 26.0431 160.979 25.9791 160.531 25.8511C160.099 25.7071 159.755 25.5071 159.499 25.2511C159.259 24.9791 159.091 24.6431 158.995 24.2431C158.915 23.8431 158.867 23.3871 158.851 22.8751V15.5551H156.787V13.5151ZM171.235 26.2591C170.243 26.2591 169.355 26.0991 168.571 25.7791C167.803 25.4431 167.147 24.9871 166.603 24.4111C166.075 23.8351 165.667 23.1471 165.379 22.3471C165.107 21.5471 164.971 20.6671 164.971 19.7071C164.971 18.7631 165.107 17.8911 165.379 17.0911C165.667 16.2911 166.075 15.6031 166.603 15.0271C167.147 14.4511 167.803 14.0031 168.571 13.6831C169.355 13.3471 170.243 13.1791 171.235 13.1791C172.227 13.1791 173.107 13.3471 173.875 13.6831C174.659 14.0031 175.315 14.4511 175.843 15.0271C176.387 15.6031 176.795 16.2911 177.067 17.0911C177.355 17.8911 177.499 18.7631 177.499 19.7071C177.499 20.6671 177.355 21.5471 177.067 22.3471C176.795 23.1471 176.387 23.8351 175.843 24.4111C175.315 24.9871 174.659 25.4431 173.875 25.7791C173.107 26.0991 172.227 26.2591 171.235 26.2591ZM171.235 24.0991C171.843 24.0991 172.371 23.9711 172.819 23.7151C173.267 23.4591 173.635 23.1231 173.923 22.7071C174.211 22.2911 174.419 21.8271 174.547 21.3151C174.691 20.7871 174.763 20.2511 174.763 19.7071C174.763 19.1791 174.691 18.6511 174.547 18.1231C174.419 17.5951 174.211 17.1311 173.923 16.7311C173.635 16.3151 173.267 15.9791 172.819 15.7231C172.371 15.4671 171.843 15.3391 171.235 15.3391C170.627 15.3391 170.099 15.4671 169.651 15.7231C169.203 15.9791 168.835 16.3151 168.547 16.7311C168.259 17.1311 168.043 17.5951 167.899 18.1231C167.771 18.6511 167.707 19.1791 167.707 19.7071C167.707 20.2511 167.771 20.7871 167.899 21.3151C168.043 21.8271 168.259 22.2911 168.547 22.7071C168.835 23.1231 169.203 23.4591 169.651 23.7151C170.099 23.9711 170.627 24.0991 171.235 24.0991ZM179.293 13.5151H181.861V15.9151H181.909C181.989 15.5791 182.141 15.2511 182.365 14.9311C182.605 14.6111 182.885 14.3231 183.205 14.0671C183.541 13.7951 183.909 13.5791 184.309 13.4191C184.709 13.2591 185.117 13.1791 185.533 13.1791C185.853 13.1791 186.069 13.1871 186.181 13.2031C186.309 13.2191 186.437 13.2351 186.565 13.2511V15.8911C186.373 15.8591 186.173 15.8351 185.965 15.8191C185.773 15.7871 185.581 15.7711 185.389 15.7711C184.925 15.7711 184.485 15.8671 184.069 16.0591C183.669 16.2351 183.317 16.5071 183.013 16.8751C182.709 17.2271 182.469 17.6671 182.293 18.1951C182.117 18.7231 182.029 19.3311 182.029 20.0191V25.9231H179.293V13.5151ZM193.835 8.78709H196.835V25.9231H193.835V8.78709ZM199.65 13.5151H202.242V15.3391L202.29 15.3871C202.706 14.6991 203.25 14.1631 203.922 13.7791C204.594 13.3791 205.338 13.1791 206.154 13.1791C207.514 13.1791 208.586 13.5311 209.37 14.2351C210.154 14.9391 210.546 15.9951 210.546 17.4031V25.9231H207.81V18.1231C207.778 17.1471 207.57 16.4431 207.186 16.0111C206.802 15.5631 206.202 15.3391 205.386 15.3391C204.922 15.3391 204.506 15.4271 204.138 15.6031C203.77 15.7631 203.458 15.9951 203.202 16.2991C202.946 16.5871 202.746 16.9311 202.602 17.3311C202.458 17.7311 202.386 18.1551 202.386 18.6031V25.9231H199.65V13.5151ZM215.016 21.9391C215.096 22.7391 215.4 23.2991 215.928 23.6191C216.456 23.9391 217.088 24.0991 217.824 24.0991C218.08 24.0991 218.368 24.0831 218.688 24.0511C219.024 24.0031 219.336 23.9231 219.624 23.8111C219.912 23.6991 220.144 23.5391 220.32 23.3311C220.512 23.1071 220.6 22.8191 220.584 22.4671C220.568 22.1151 220.44 21.8271 220.2 21.6031C219.96 21.3791 219.648 21.2031 219.264 21.0751C218.896 20.9311 218.472 20.8111 217.992 20.7151C217.512 20.6191 217.024 20.5151 216.528 20.4031C216.016 20.2911 215.52 20.1551 215.04 19.9951C214.576 19.8351 214.152 19.6191 213.768 19.3471C213.4 19.0751 213.104 18.7311 212.88 18.3151C212.656 17.8831 212.544 17.3551 212.544 16.7311C212.544 16.0591 212.704 15.4991 213.024 15.0511C213.36 14.5871 213.776 14.2191 214.272 13.9471C214.784 13.6591 215.344 13.4591 215.952 13.3471C216.576 13.2351 217.168 13.1791 217.728 13.1791C218.368 13.1791 218.976 13.2511 219.552 13.3951C220.144 13.5231 220.672 13.7391 221.136 14.0431C221.616 14.3471 222.008 14.7471 222.312 15.2431C222.632 15.7231 222.832 16.3071 222.912 16.9951H220.056C219.928 16.3391 219.624 15.8991 219.144 15.6751C218.68 15.4511 218.144 15.3391 217.536 15.3391C217.344 15.3391 217.112 15.3551 216.84 15.3871C216.584 15.4191 216.336 15.4831 216.096 15.5791C215.872 15.6591 215.68 15.7871 215.52 15.9631C215.36 16.1231 215.28 16.3391 215.28 16.6111C215.28 16.9471 215.392 17.2191 215.616 17.4271C215.856 17.6351 216.16 17.8111 216.528 17.9551C216.912 18.0831 217.344 18.1951 217.824 18.2911C218.304 18.3871 218.8 18.4911 219.312 18.6031C219.808 18.7151 220.296 18.8511 220.776 19.0111C221.256 19.1711 221.68 19.3871 222.048 19.6591C222.432 19.9311 222.736 20.2751 222.96 20.6911C223.2 21.1071 223.32 21.6191 223.32 22.2271C223.32 22.9631 223.152 23.5871 222.816 24.0991C222.48 24.6111 222.04 25.0271 221.496 25.3471C220.968 25.6671 220.376 25.8991 219.72 26.0431C219.064 26.1871 218.416 26.2591 217.776 26.2591C216.992 26.2591 216.264 26.1711 215.592 25.9951C214.936 25.8191 214.36 25.5551 213.864 25.2031C213.384 24.8351 213 24.3871 212.712 23.8591C212.44 23.3151 212.296 22.6751 212.28 21.9391H215.016ZM235.813 25.9231H233.125V24.1951H233.077C232.741 24.8191 232.237 25.3231 231.565 25.7071C230.909 26.0751 230.237 26.2591 229.549 26.2591C227.917 26.2591 226.733 25.8591 225.997 25.0591C225.277 24.2431 224.917 23.0191 224.917 21.3871V13.5151H227.653V21.1231C227.653 22.2111 227.861 22.9791 228.277 23.4271C228.693 23.8751 229.277 24.0991 230.029 24.0991C230.605 24.0991 231.085 24.0111 231.469 23.8351C231.853 23.6591 232.165 23.4271 232.405 23.1391C232.645 22.8351 232.813 22.4751 232.909 22.0591C233.021 21.6431 233.077 21.1951 233.077 20.7151V13.5151H235.813V25.9231ZM238.218 13.5151H240.786V15.9151H240.834C240.914 15.5791 241.066 15.2511 241.29 14.9311C241.53 14.6111 241.81 14.3231 242.13 14.0671C242.466 13.7951 242.834 13.5791 243.234 13.4191C243.634 13.2591 244.042 13.1791 244.458 13.1791C244.778 13.1791 244.994 13.1871 245.106 13.2031C245.234 13.2191 245.362 13.2351 245.49 13.2511V15.8911C245.298 15.8591 245.098 15.8351 244.89 15.8191C244.698 15.7871 244.506 15.7711 244.314 15.7711C243.85 15.7711 243.41 15.8671 242.994 16.0591C242.594 16.2351 242.242 16.5071 241.938 16.8751C241.634 17.2271 241.394 17.6671 241.218 18.1951C241.042 18.7231 240.954 19.3311 240.954 20.0191V25.9231H238.218V13.5151ZM256.568 23.1631C256.568 23.4991 256.608 23.7391 256.688 23.8831C256.784 24.0271 256.96 24.0991 257.216 24.0991C257.296 24.0991 257.392 24.0991 257.504 24.0991C257.616 24.0991 257.744 24.0831 257.888 24.0511V25.9471C257.792 25.9791 257.664 26.0111 257.504 26.0431C257.36 26.0911 257.208 26.1311 257.048 26.1631C256.888 26.1951 256.728 26.2191 256.568 26.2351C256.408 26.2511 256.272 26.2591 256.16 26.2591C255.6 26.2591 255.136 26.1471 254.768 25.9231C254.4 25.6991 254.16 25.3071 254.048 24.7471C253.504 25.2751 252.832 25.6591 252.032 25.8991C251.248 26.1391 250.488 26.2591 249.752 26.2591C249.192 26.2591 248.656 26.1791 248.144 26.0191C247.632 25.8751 247.176 25.6591 246.776 25.3711C246.392 25.0671 246.08 24.6911 245.84 24.2431C245.616 23.7791 245.504 23.2431 245.504 22.6351C245.504 21.8671 245.64 21.2431 245.912 20.7631C246.2 20.2831 246.568 19.9071 247.016 19.6351C247.48 19.3631 247.992 19.1711 248.552 19.0591C249.128 18.9311 249.704 18.8351 250.28 18.7711C250.776 18.6751 251.248 18.6111 251.696 18.5791C252.144 18.5311 252.536 18.4591 252.872 18.3631C253.224 18.2671 253.496 18.1231 253.688 17.9311C253.896 17.7231 254 17.4191 254 17.0191C254 16.6671 253.912 16.3791 253.736 16.1551C253.576 15.9311 253.368 15.7631 253.112 15.6511C252.872 15.5231 252.6 15.4431 252.296 15.4111C251.992 15.3631 251.704 15.3391 251.432 15.3391C250.664 15.3391 250.032 15.4991 249.536 15.8191C249.04 16.1391 248.76 16.6351 248.696 17.3071H245.96C246.008 16.5071 246.2 15.8431 246.536 15.3151C246.872 14.7871 247.296 14.3631 247.808 14.0431C248.336 13.7231 248.928 13.4991 249.584 13.3711C250.24 13.2431 250.912 13.1791 251.6 13.1791C252.208 13.1791 252.808 13.2431 253.4 13.3711C253.992 13.4991 254.52 13.7071 254.984 13.9951C255.464 14.2831 255.848 14.6591 256.136 15.1231C256.424 15.5711 256.568 16.1231 256.568 16.7791V23.1631ZM253.832 19.7071C253.416 19.9791 252.904 20.1471 252.296 20.2111C251.688 20.2591 251.08 20.3391 250.472 20.4511C250.184 20.4991 249.904 20.5711 249.632 20.6671C249.36 20.7471 249.12 20.8671 248.912 21.0271C248.704 21.1711 248.536 21.3711 248.408 21.6271C248.296 21.8671 248.24 22.1631 248.24 22.5151C248.24 22.8191 248.328 23.0751 248.504 23.2831C248.68 23.4911 248.888 23.6591 249.128 23.7871C249.384 23.8991 249.656 23.9791 249.944 24.0271C250.248 24.0751 250.52 24.0991 250.76 24.0991C251.064 24.0991 251.392 24.0591 251.744 23.9791C252.096 23.8991 252.424 23.7631 252.728 23.5711C253.048 23.3791 253.312 23.1391 253.52 22.8511C253.728 22.5471 253.832 22.1791 253.832 21.7471V19.7071ZM259.032 13.5151H261.624V15.3391L261.672 15.3871C262.088 14.6991 262.632 14.1631 263.304 13.7791C263.976 13.3791 264.72 13.1791 265.536 13.1791C266.896 13.1791 267.968 13.5311 268.752 14.2351C269.536 14.9391 269.928 15.9951 269.928 17.4031V25.9231H267.192V18.1231C267.16 17.1471 266.952 16.4431 266.568 16.0111C266.184 15.5631 265.584 15.3391 264.768 15.3391C264.304 15.3391 263.888 15.4271 263.52 15.6031C263.152 15.7631 262.84 15.9951 262.584 16.2991C262.328 16.5871 262.128 16.9311 261.984 17.3311C261.84 17.7311 261.768 18.1551 261.768 18.6031V25.9231H259.032V13.5151ZM280.709 17.6671C280.597 16.8991 280.285 16.3231 279.773 15.9391C279.277 15.5391 278.645 15.3391 277.877 15.3391C277.525 15.3391 277.149 15.4031 276.749 15.5311C276.349 15.6431 275.981 15.8671 275.645 16.2031C275.309 16.5231 275.029 16.9791 274.805 17.5711C274.581 18.1471 274.469 18.9071 274.469 19.8511C274.469 20.3631 274.525 20.8751 274.637 21.3871C274.765 21.8991 274.957 22.3551 275.213 22.7551C275.485 23.1551 275.829 23.4831 276.245 23.7391C276.661 23.9791 277.165 24.0991 277.757 24.0991C278.557 24.0991 279.213 23.8511 279.725 23.3551C280.253 22.8591 280.581 22.1631 280.709 21.2671H283.445C283.189 22.8831 282.573 24.1231 281.597 24.9871C280.637 25.8351 279.357 26.2591 277.757 26.2591C276.781 26.2591 275.917 26.0991 275.165 25.7791C274.429 25.4431 273.805 24.9951 273.293 24.4351C272.781 23.8591 272.389 23.1791 272.117 22.3951C271.861 21.6111 271.733 20.7631 271.733 19.8511C271.733 18.9231 271.861 18.0511 272.117 17.2351C272.373 16.4191 272.757 15.7151 273.269 15.1231C273.781 14.5151 274.413 14.0431 275.165 13.7071C275.933 13.3551 276.829 13.1791 277.853 13.1791C278.573 13.1791 279.253 13.2751 279.893 13.4671C280.549 13.6431 281.125 13.9151 281.621 14.2831C282.133 14.6511 282.549 15.1151 282.869 15.6751C283.189 16.2351 283.381 16.8991 283.445 17.6671H280.709ZM293.709 18.6271C293.677 18.1951 293.581 17.7791 293.421 17.3791C293.277 16.9791 293.069 16.6351 292.797 16.3471C292.541 16.0431 292.221 15.8031 291.837 15.6271C291.469 15.4351 291.053 15.3391 290.589 15.3391C290.109 15.3391 289.669 15.4271 289.269 15.6031C288.885 15.7631 288.549 15.9951 288.261 16.2991C287.989 16.5871 287.765 16.9311 287.589 17.3311C287.429 17.7311 287.341 18.1631 287.325 18.6271H293.709ZM287.325 20.4271C287.325 20.9071 287.389 21.3711 287.517 21.8191C287.661 22.2671 287.869 22.6591 288.141 22.9951C288.413 23.3311 288.757 23.6031 289.173 23.8111C289.589 24.0031 290.085 24.0991 290.661 24.0991C291.461 24.0991 292.101 23.9311 292.581 23.5951C293.077 23.2431 293.445 22.7231 293.685 22.0351H296.277C296.133 22.7071 295.885 23.3071 295.533 23.8351C295.181 24.3631 294.757 24.8111 294.261 25.1791C293.765 25.5311 293.205 25.7951 292.581 25.9711C291.973 26.1631 291.333 26.2591 290.661 26.2591C289.685 26.2591 288.821 26.0991 288.069 25.7791C287.317 25.4591 286.677 25.0111 286.149 24.4351C285.637 23.8591 285.245 23.1711 284.973 22.3711C284.717 21.5711 284.589 20.6911 284.589 19.7311C284.589 18.8511 284.725 18.0191 284.997 17.2351C285.285 16.4351 285.685 15.7391 286.197 15.1471C286.725 14.5391 287.357 14.0591 288.093 13.7071C288.829 13.3551 289.661 13.1791 290.589 13.1791C291.565 13.1791 292.437 13.3871 293.205 13.8031C293.989 14.2031 294.637 14.7391 295.149 15.4111C295.661 16.0831 296.029 16.8591 296.253 17.7391C296.493 18.6031 296.557 19.4991 296.445 20.4271H287.325Z" fill="#172B4D"/>
</svg>
