<svg width="16" height="19" viewBox="0 0 16 19" fill="none" xmlns="http://www.w3.org/2000/svg">
<path fill-rule="evenodd" clip-rule="evenodd" d="M7.4988 0.0942744C7.38217 0.144666 7.11553 0.291338 6.90629 0.420194C6.36719 0.752186 5.3718 1.2448 4.76145 1.48172C3.76127 1.86998 2.84384 2.11084 1.73494 2.27629C0.720771 2.42763 0.390901 2.6189 0.121639 3.2117L0 3.47951V6.31481C0 9.46607 0.00262165 9.50785 0.270998 10.6036C0.567749 11.8153 1.16866 13.0689 1.92621 14.0566C2.43347 14.718 3.23246 15.4809 3.91911 15.9595C4.33627 16.2502 7.32438 17.9801 7.55663 18.0653C7.80295 18.1557 8.19524 18.1561 8.44337 18.0662C8.68445 17.9789 11.4692 16.3699 11.9904 16.0168C13.9311 14.7018 15.3095 12.6299 15.8018 10.2878C15.9966 9.3609 16 9.29168 16 6.29471V3.47951L15.8784 3.2117C15.6273 2.65888 15.2529 2.41842 14.4771 2.31176C12.5171 2.04227 10.7115 1.40427 9.04983 0.393972C8.83204 0.261577 8.56729 0.118927 8.46146 0.076981C8.18672 -0.0319269 7.77361 -0.0244867 7.4988 0.0942744ZM10.922 5.51622C10.7714 5.58552 10.4535 5.91839 9.05858 7.46768C8.13355 8.49502 7.36216 9.33005 7.34435 9.32329C7.3265 9.31654 6.94203 8.96713 6.48991 8.54686C6.03782 8.12659 5.59113 7.74204 5.49729 7.69225C5.13114 7.49804 4.61201 7.6164 4.33176 7.95792C4.17095 8.1539 4.10602 8.35418 4.10602 8.65424C4.10602 9.07865 4.16251 9.14827 5.55404 10.4382C6.24532 11.0791 6.88324 11.6486 6.97172 11.7039C7.10254 11.7857 7.18307 11.8044 7.40337 11.8044C7.88619 11.8044 7.79296 11.89 10.0713 9.35611C11.2034 8.097 12.1649 6.9948 12.2079 6.90685C12.3798 6.55535 12.3297 6.09205 12.0865 5.78431C11.8239 5.45196 11.3159 5.33501 10.922 5.51622Z" fill="#0DB561"/>
</svg>
