<svg width="28" height="28" viewBox="0 0 28 28" fill="none" xmlns="http://www.w3.org/2000/svg">
<path d="M25.6654 13.9987C25.6654 20.442 20.442 25.6654 13.9987 25.6654C7.55537 25.6654 2.33203 20.442 2.33203 13.9987C2.33203 7.55537 7.55537 2.33203 13.9987 2.33203C20.442 2.33203 25.6654 7.55537 25.6654 13.9987Z" stroke="#18C92F" stroke-width="2.5" stroke-linecap="round" stroke-linejoin="round"/>
<path d="M21 15.3984C18.5 15.8984 16.5 17.8984 16 20.3984" stroke="#18C92F" stroke-width="2.5" stroke-linecap="round" stroke-linejoin="round"/>
<path d="M7 15.3984C9.5 15.8984 11.5 17.8984 12 20.3984" stroke="#18C92F" stroke-width="2.5" stroke-linecap="round" stroke-linejoin="round"/>
<path d="M21 10.8008C18.8847 10.1601 16.5097 9.80078 14 9.80078C11.4903 9.80078 9.11528 10.1601 7 10.8008" stroke="#18C92F" stroke-width="2.5" stroke-linecap="round" stroke-linejoin="round"/>
<path d="M14.0106 14.9297H14" stroke="#18C92F" stroke-width="2.5" stroke-linecap="round" stroke-linejoin="round"/>
</svg>
