<svg width="20" height="34" viewBox="0 0 20 34" fill="none" xmlns="http://www.w3.org/2000/svg">
<path d="M4.87584 0.888053C5.15008 0.78234 5.43833 0.674749 5.51641 0.648908C5.77135 0.564714 7.068 0.589521 7.49281 0.686777C8.60578 0.941519 9.74951 1.82884 10.2918 2.85815L10.5722 3.39038L10.9237 2.8076C11.5561 1.75912 12.5281 1.00119 13.6075 0.714872C14.5723 0.459002 16.1957 0.607657 16.732 1.001C16.9105 1.1319 16.8966 1.14825 16.4465 1.33806C14.5863 2.12211 13.5048 2.84152 12.8831 3.70855L12.684 3.98622L13.0579 3.79678C14.16 3.23843 15.6581 3.03791 16.683 3.31154C17.8247 3.61627 19.0264 4.43011 19.605 5.29047C20.2049 6.18259 20.1465 6.27618 19.2618 5.84017C18.2283 5.33088 17.4771 5.15262 16.3518 5.14971C15.6305 5.14792 15.2435 5.19763 14.7242 5.3586C14.3495 5.47483 14.0239 5.60103 14.0006 5.63909C13.9773 5.67724 14.22 5.71924 14.5399 5.73258C15.2901 5.76397 15.9489 5.91516 16.5411 6.19198C18.0109 6.87888 19.2115 8.50873 19.5376 10.2599C19.636 10.7875 19.5714 11.5812 19.4303 11.5812C19.3862 11.5812 19.113 11.2272 18.823 10.7945C17.7265 9.15813 16.2599 8.20427 14.3409 7.87934C13.9085 7.80614 13.9608 7.91852 14.5092 8.24186C15.107 8.59433 15.8588 9.32576 16.2679 9.95299C16.925 10.9608 17.2639 12.5407 17.061 13.6515C16.929 14.3743 16.593 15.2922 16.4998 15.1842C16.4623 15.1406 16.2554 14.5553 16.0402 13.8834C15.6272 12.5937 15.1948 11.7693 14.6188 11.173C14.2912 10.8339 13.1744 9.98381 13.0565 9.98381C13.027 9.98381 13.1052 10.2058 13.2302 10.4771C13.9628 12.067 13.8818 13.6987 13.012 14.8732L12.7275 15.2573L12.6163 14.5703C12.3796 13.1082 11.7772 11.2293 11.4194 10.8372C11.3199 10.7282 11.3071 10.8905 11.3485 11.7299C11.3764 12.2942 11.4251 12.8192 11.4566 12.8968C11.5127 13.035 11.5567 21.1548 11.5783 25.1503C11.5872 26.8 11.6157 27.2029 11.7364 27.3859C11.8541 27.5643 11.862 27.6563 11.7756 27.8445C11.7162 27.974 11.6675 28.3539 11.6675 28.6887C11.6675 29.2584 11.6833 29.3034 11.9146 29.3907C12.133 29.4732 12.1541 29.5191 12.0965 29.7877C11.9167 30.6256 11.9297 31.0566 12.1435 31.3436C12.2583 31.4978 12.3232 31.6707 12.2877 31.7277C12.2097 31.8531 10.8576 32.8535 10.6689 32.9254C10.5216 32.9815 8.9228 31.8525 8.92384 31.693C8.92412 31.6391 9.00901 31.4681 9.11244 31.313C9.34846 30.9592 9.35953 30.3125 9.1361 29.9336C8.97191 29.6553 8.97276 29.651 9.23073 29.4458C9.45842 29.2645 9.49097 29.1734 9.49097 28.716C9.49097 28.4284 9.44394 28.0592 9.3864 27.8955C9.30161 27.6538 9.31269 27.5332 9.44546 27.2554C9.57482 26.9848 9.59469 26.793 9.54027 26.341C9.46239 25.6943 9.46258 25.5761 9.54293 24.5944C9.57472 24.2068 9.56138 23.7863 9.51331 23.66C9.4553 23.5078 9.4657 23.2992 9.54397 23.0409C9.61229 22.8155 9.64428 22.3776 9.61986 22.0019C9.54624 20.8704 9.55229 13.2344 9.63027 12.9948C9.70143 12.7762 9.86061 10.7249 9.81178 10.6563C9.69055 10.4862 8.87737 12.8687 8.64032 14.0882C8.53282 14.6416 8.42995 15.1092 8.41188 15.1272C8.33021 15.2083 7.87654 14.5402 7.67999 14.0494C7.50587 13.6146 7.46243 13.3219 7.45969 12.5679C7.45647 11.6609 7.47028 11.5977 7.85601 10.7529L8.25555 9.87772L7.90332 10.0897C6.33176 11.0355 5.31919 12.568 4.75282 14.8579C4.66064 15.2305 4.64001 15.2523 4.53052 15.0929C4.08083 14.4379 3.88258 12.7039 4.13572 11.6388C4.44933 10.3191 5.33613 9.05439 6.47948 8.29617C7.00914 7.94502 7.03147 7.91655 6.77729 7.91655C6.30186 7.91655 5.41704 8.19065 4.7213 8.55345C3.88551 8.98936 2.90616 9.89595 2.21629 10.8723L1.68814 11.6199L1.60382 11.2011C1.47872 10.5794 1.67527 9.69364 2.15544 8.71526C3.07773 6.83641 4.45491 5.8928 6.46273 5.76416L7.36174 5.70655L7.07434 5.55095C6.68398 5.33962 5.4566 5.09718 4.78698 5.09916C3.73239 5.10235 2.32966 5.52426 1.44749 6.10366C1.26551 6.22318 1.10331 6.28144 1.08713 6.23314C1.02903 6.06015 1.47664 5.33727 1.95444 4.8322C3.56972 3.12483 5.87592 2.72895 8.00108 3.79415C8.54143 4.06496 8.55279 4.06665 8.44112 3.85664C8.37809 3.73805 8.05805 3.38248 7.72995 3.06638C7.13651 2.4946 6.25568 1.97712 5.11791 1.53163C4.31798 1.21844 4.28003 1.11771 4.87584 0.888053Z" fill="black"/>
<path fill-rule="evenodd" clip-rule="evenodd" d="M15.5701 20.0461V20.036C15.5701 20.0101 15.5539 19.9868 15.5295 19.9781C15.5262 19.977 15.523 19.9758 15.5197 19.9747C15.5504 19.9855 15.5701 20.0141 15.5701 20.0461ZM7.04626 19.7187C6.97969 19.737 6.97035 19.8221 7.03189 19.853C7.02228 19.8482 7.0127 19.8434 7.00315 19.8386C6.95389 19.8139 6.95935 19.7431 7.01239 19.7281C7.02339 19.725 7.03468 19.7219 7.04626 19.7187Z" fill="white"/>
<path d="M3.18885 20.909C7.63302 20.9811 17.2497 27.3393 18.6429 28.276C18.703 28.3164 18.7722 28.2595 18.7455 28.1929C17.761 25.7391 10.6873 21.6915 7.03189 19.853C7.02228 19.8482 7.0127 19.8434 7.00315 19.8386C6.95389 19.8139 6.95935 19.7431 7.01239 19.7281C7.02339 19.725 7.03468 19.7219 7.04626 19.7187C7.65175 19.5524 9.04313 19.2982 10.9791 19.2982C13.0817 19.2982 14.8468 19.738 15.5197 19.9747C15.523 19.9758 15.5262 19.977 15.5295 19.9781C15.5539 19.9868 15.5701 20.0101 15.5701 20.036V20.0461V23.045C15.5701 23.071 15.5836 23.0953 15.6058 23.1095L17.6327 24.3992C17.6847 24.4322 17.7533 24.3956 17.7533 24.3347V18.589C17.7533 18.5594 17.7372 18.5329 17.7099 18.5205C16.7461 18.083 13.9296 17.2461 9.98386 17.2461C6.04388 17.2461 3.80921 18.0805 3.14564 18.5186C3.12459 18.5325 3.11328 18.5554 3.11328 18.5803V20.8315C3.11328 20.874 3.14572 20.9083 3.18885 20.909Z" fill="#2863E4"/>
<path d="M4.87584 0.888053C5.15008 0.78234 5.43833 0.674749 5.51641 0.648908C5.77135 0.564714 7.068 0.589521 7.49281 0.686777C8.60578 0.941519 9.74951 1.82884 10.2918 2.85815L10.5722 3.39038L10.9237 2.8076C11.5561 1.75912 12.5281 1.00119 13.6075 0.714872C14.5723 0.459002 16.1957 0.607657 16.732 1.001C16.9105 1.1319 16.8966 1.14825 16.4465 1.33806C14.5863 2.12211 13.5048 2.84152 12.8831 3.70855L12.684 3.98622L13.0579 3.79678C14.16 3.23843 15.6581 3.03791 16.683 3.31154C17.8247 3.61627 19.0264 4.43011 19.605 5.29047C20.2049 6.18259 20.1465 6.27618 19.2618 5.84017C18.2283 5.33088 17.4771 5.15262 16.3518 5.14971C15.6305 5.14792 15.2435 5.19763 14.7242 5.3586C14.3495 5.47483 14.0239 5.60103 14.0006 5.63909C13.9773 5.67724 14.22 5.71924 14.5399 5.73258C15.2901 5.76397 15.9489 5.91516 16.5411 6.19198C18.0109 6.87888 19.2115 8.50873 19.5376 10.2599C19.636 10.7875 19.5714 11.5812 19.4303 11.5812C19.3862 11.5812 19.113 11.2272 18.823 10.7945C17.7265 9.15813 16.2599 8.20427 14.3409 7.87934C13.9085 7.80614 13.9608 7.91852 14.5092 8.24186C15.107 8.59433 15.8588 9.32576 16.2679 9.95299C16.925 10.9608 17.2639 12.5407 17.061 13.6515C16.929 14.3743 16.593 15.2922 16.4998 15.1842C16.4623 15.1406 16.2554 14.5553 16.0402 13.8834C15.6272 12.5937 15.1948 11.7693 14.6188 11.173C14.2912 10.8339 13.1744 9.98381 13.0565 9.98381C13.027 9.98381 13.1052 10.2058 13.2302 10.4771C13.9628 12.067 13.8818 13.6987 13.012 14.8732L12.7275 15.2573L12.6163 14.5703C12.3796 13.1082 11.7772 11.2293 11.4194 10.8372C11.3199 10.7282 11.3071 10.8905 11.3485 11.7299C11.3764 12.2942 11.4251 12.8192 11.4566 12.8968C11.5127 13.035 11.5567 21.1548 11.5783 25.1503C11.5872 26.8 11.6157 27.2029 11.7364 27.3859C11.8541 27.5643 11.862 27.6563 11.7756 27.8445C11.7162 27.974 11.6675 28.3539 11.6675 28.6887C11.6675 29.2584 11.6833 29.3034 11.9146 29.3907C12.133 29.4732 12.1541 29.5191 12.0965 29.7877C11.9167 30.6256 11.9297 31.0566 12.1435 31.3436C12.2583 31.4978 12.3232 31.6707 12.2877 31.7277C12.2097 31.8531 10.8576 32.8535 10.6689 32.9254C10.5216 32.9815 8.9228 31.8525 8.92384 31.693C8.92412 31.6391 9.00901 31.4681 9.11244 31.313C9.34846 30.9592 9.35953 30.3125 9.1361 29.9336C8.97191 29.6553 8.97276 29.651 9.23073 29.4458C9.45842 29.2645 9.49097 29.1734 9.49097 28.716C9.49097 28.4284 9.44394 28.0592 9.3864 27.8955C9.30161 27.6538 9.31269 27.5332 9.44546 27.2554C9.57482 26.9848 9.59469 26.793 9.54027 26.341C9.46239 25.6943 9.46258 25.5761 9.54293 24.5944C9.57472 24.2068 9.56138 23.7863 9.51331 23.66C9.4553 23.5078 9.4657 23.2992 9.54397 23.0409C9.61229 22.8155 9.64428 22.3776 9.61986 22.0019C9.54624 20.8704 9.55229 13.2344 9.63027 12.9948C9.70143 12.7762 9.86061 10.7249 9.81178 10.6563C9.69055 10.4862 8.87737 12.8687 8.64032 14.0882C8.53282 14.6416 8.42995 15.1092 8.41188 15.1272C8.33021 15.2083 7.87654 14.5402 7.67999 14.0494C7.50587 13.6146 7.46243 13.3219 7.45969 12.5679C7.45647 11.6609 7.47028 11.5977 7.85601 10.7529L8.25555 9.87772L7.90332 10.0897C6.33176 11.0355 5.31919 12.568 4.75282 14.8579C4.66064 15.2305 4.64001 15.2523 4.53052 15.0929C4.08083 14.4379 3.88258 12.7039 4.13572 11.6388C4.44933 10.3191 5.33613 9.05439 6.47948 8.29617C7.00914 7.94502 7.03147 7.91655 6.77729 7.91655C6.30186 7.91655 5.41704 8.19065 4.7213 8.55345C3.88551 8.98936 2.90616 9.89595 2.21629 10.8723L1.68814 11.6199L1.60382 11.2011C1.47872 10.5794 1.67527 9.69364 2.15544 8.71526C3.07773 6.83641 4.45491 5.8928 6.46273 5.76416L7.36174 5.70655L7.07434 5.55095C6.68398 5.33962 5.4566 5.09718 4.78698 5.09916C3.73239 5.10235 2.32966 5.52426 1.44749 6.10366C1.26551 6.22318 1.10331 6.28144 1.08713 6.23314C1.02903 6.06015 1.47664 5.33727 1.95444 4.8322C3.56972 3.12483 5.87592 2.72895 8.00108 3.79415C8.54143 4.06496 8.55279 4.06665 8.44112 3.85664C8.37809 3.73805 8.05805 3.38248 7.72995 3.06638C7.13651 2.4946 6.25568 1.97712 5.11791 1.53163C4.31798 1.21844 4.28003 1.11771 4.87584 0.888053Z" fill="black"/>
<path d="M18.6429 28.276C17.2497 27.3394 7.63302 20.9811 3.18885 20.909L3.17518 20.9088C3.14099 20.9084 3.11328 20.8807 3.11328 20.8465V20.8316L7.04492 19.7191C6.97957 19.7382 6.97077 19.8224 7.03189 19.8531C10.6873 21.6915 17.761 25.7391 18.7455 28.1929C18.7506 28.2056 18.7555 28.2182 18.7603 28.2308C18.7807 28.2847 18.7209 28.3286 18.6731 28.2964L18.6429 28.276Z" fill="#2863E4"/>
<path fill-rule="evenodd" clip-rule="evenodd" d="M15.8577 28.0919C15.9555 27.8733 16.0124 27.6688 16.0196 27.4835C16.0206 27.458 16.0087 27.4358 15.9871 27.4215M2.13353 21.5289C1.59436 21.4444 1.06541 21.3877 0.551663 21.3636C0.461318 21.3593 0.442812 21.4795 0.529251 21.5057M12.4509 27.3136C12.8909 27.6072 13.2097 27.8312 13.3869 27.9579C13.3946 27.9634 13.4021 27.9688 13.4093 27.9739C13.4135 27.9769 13.4176 27.9799 13.4216 27.9828C13.4238 27.9844 13.426 27.9859 13.4281 27.9875C13.4294 27.9884 13.4305 27.9892 13.4317 27.9901C13.5087 28.0455 13.5486 28.075 13.5486 28.075M13.5486 28.075L13.4837 28.1375L13.5486 28.075ZM10.5115 30.9991L10.5018 31.0084C10.481 31.0284 10.4491 31.0314 10.425 31.0155C10.4216 31.0132 10.4182 31.011 10.4148 31.0087C10.4454 31.029 10.4851 31.0245 10.5115 30.9991Z" fill="white"/>
<path fill-rule="evenodd" clip-rule="evenodd" d="M13.4317 27.9901C13.4305 27.9892 13.4294 27.9884 13.4281 27.9875C13.426 27.9859 13.4238 27.9844 13.4216 27.9828C13.4176 27.9799 13.4135 27.9769 13.4093 27.9739M13.4093 27.9739C13.4171 27.9795 13.4246 27.9849 13.4317 27.9901L13.4093 27.9739Z" fill="white"/>
<path d="M3.5652 24.3779C3.67751 28.8548 9.87062 32.9332 10.4264 33.2904C10.4531 33.3076 10.4822 33.3045 10.5081 33.2862C12.1379 32.1323 15.1299 29.7193 15.8577 28.0919C15.9555 27.8733 16.0124 27.6688 16.0196 27.4835C16.0206 27.458 16.0087 27.4358 15.9871 27.4215C13.2923 25.639 7.25258 22.3308 2.13353 21.5289C1.59436 21.4444 1.06541 21.3877 0.551663 21.3636C0.461318 21.3593 0.442812 21.4795 0.529251 21.5057C5.75254 23.088 10.4079 25.9504 12.4509 27.3136C12.8909 27.6072 13.2097 27.8312 13.3869 27.9579L13.4093 27.9739L13.4216 27.9828L13.4281 27.9875L13.4317 27.9901C13.4481 28.0018 13.4628 28.0124 13.4757 28.0218C13.5209 28.0545 13.5457 28.0728 13.5486 28.075L13.4837 28.1375L10.5115 30.9991L10.5018 31.0084C10.481 31.0284 10.4491 31.0314 10.425 31.0155C10.4216 31.0132 10.4182 31.011 10.4148 31.0087C8.965 30.0455 6.17416 27.6684 6.13281 25.534C6.13224 25.5046 6.11531 25.478 6.08846 25.4651L3.67598 24.3087C3.6241 24.2839 3.56378 24.3212 3.5652 24.3779Z" fill="#18C92F"/>
<mask id="mask0_3_38215" style="mask-type:alpha" maskUnits="userSpaceOnUse" x="0" y="21" width="17" height="13">
<path fill-rule="evenodd" clip-rule="evenodd" d="M15.8577 28.0922C15.9555 27.8735 16.0124 27.6691 16.0196 27.4837C16.0206 27.4582 16.0087 27.436 15.9871 27.4218M2.13353 21.5291C1.59436 21.4446 1.06541 21.388 0.551663 21.3638C0.461318 21.3596 0.442812 21.4797 0.529251 21.5059M12.4509 27.3139C12.8909 27.6074 13.2097 27.8314 13.3869 27.9582C13.3946 27.9637 13.4021 27.969 13.4093 27.9742C13.4135 27.9772 13.4176 27.9801 13.4216 27.983C13.4238 27.9846 13.426 27.9862 13.4281 27.9877C13.4294 27.9886 13.4305 27.9895 13.4317 27.9903C13.5087 28.0457 13.5486 28.0752 13.5486 28.0752M13.5486 28.0752L13.4837 28.1377L13.5486 28.0752ZM10.5115 30.9993L10.5018 31.0086C10.481 31.0287 10.4491 31.0317 10.425 31.0157C10.4216 31.0135 10.4182 31.0112 10.4148 31.0089C10.4454 31.0292 10.4851 31.0247 10.5115 30.9993Z" fill="white"/>
<path fill-rule="evenodd" clip-rule="evenodd" d="M13.4317 27.9903C13.4305 27.9895 13.4294 27.9886 13.4281 27.9877C13.426 27.9862 13.4238 27.9846 13.4216 27.983C13.4176 27.9801 13.4135 27.9772 13.4093 27.9742M13.4093 27.9742C13.4171 27.9798 13.4246 27.9852 13.4317 27.9903L13.4093 27.9742Z" fill="white"/>
<path d="M3.5652 24.3782C3.67751 28.855 9.87062 32.9335 10.4264 33.2907C10.4531 33.3078 10.4822 33.3048 10.5081 33.2864C12.1379 32.1325 15.1299 29.7195 15.8577 28.0922C15.9555 27.8735 16.0124 27.6691 16.0196 27.4837C16.0206 27.4582 16.0087 27.436 15.9871 27.4218C13.2923 25.6392 7.25258 22.3311 2.13353 21.5291C1.59436 21.4446 1.06541 21.388 0.551663 21.3638C0.461318 21.3596 0.442812 21.4797 0.529251 21.5059C5.75254 23.0882 10.4079 25.9507 12.4509 27.3139C12.8909 27.6074 13.2097 27.8314 13.3869 27.9582L13.4093 27.9742L13.4216 27.983L13.4281 27.9877L13.4317 27.9903C13.4481 28.0021 13.4628 28.0127 13.4757 28.0221C13.5209 28.0547 13.5457 28.0731 13.5486 28.0752L13.4837 28.1377L10.5115 30.9993L10.5018 31.0086C10.481 31.0287 10.4491 31.0317 10.425 31.0157C10.4216 31.0135 10.4182 31.0112 10.4148 31.0089C8.965 30.0458 6.17416 27.6686 6.13281 25.5342C6.13224 25.5049 6.11531 25.4782 6.08846 25.4654L3.67598 24.309C3.6241 24.2841 3.56378 24.3214 3.5652 24.3782Z" fill="#18C92F"/>
</mask>
<g mask="url(#mask0_3_38215)">
<g filter="url(#filter0_f_3_38215)">
<ellipse cx="10.439" cy="25.2873" rx="1.99709" ry="1.9039" transform="rotate(24.1252 10.439 25.2873)" fill="black" fill-opacity="0.4"/>
</g>
</g>
<path d="M9.54312 24.2029C9.57491 23.8153 9.56157 23.3948 9.51349 23.2685L11.5785 24.7588C11.5874 26.4085 11.6158 26.8114 11.7366 26.9943C11.8543 27.1728 11.8622 27.2648 11.7758 27.453L9.54046 25.9494C9.46258 25.3028 9.46277 25.1846 9.54312 24.2029Z" fill="black"/>
<defs>
<filter id="filter0_f_3_38215" x="6.88926" y="21.7992" width="7.10039" height="6.97612" filterUnits="userSpaceOnUse" color-interpolation-filters="sRGB">
<feFlood flood-opacity="0" result="BackgroundImageFix"/>
<feBlend mode="normal" in="SourceGraphic" in2="BackgroundImageFix" result="shape"/>
<feGaussianBlur stdDeviation="0.783886" result="effect1_foregroundBlur_3_38215"/>
</filter>
</defs>
</svg>
