<svg width="20" height="20" viewBox="0 0 20 20" fill="none" xmlns="http://www.w3.org/2000/svg">
<path d="M1.66797 10.0016C1.66797 7.05373 1.66797 5.57977 2.5453 4.59571C2.68563 4.43832 2.84029 4.29275 3.00752 4.16069C4.05308 3.33496 5.61915 3.33496 8.7513 3.33496H11.2513C14.3835 3.33496 15.9496 3.33496 16.9951 4.16069C17.1623 4.29275 17.317 4.43832 17.4573 4.59571C18.3346 5.57977 18.3346 7.05373 18.3346 10.0016C18.3346 12.9495 18.3346 14.4235 17.4573 15.4075C17.317 15.565 17.1623 15.7105 16.9951 15.8425C15.9496 16.6683 14.3835 16.6683 11.2513 16.6683H8.7513C5.61915 16.6683 4.05308 16.6683 3.00752 15.8425C2.84029 15.7105 2.68563 15.565 2.5453 15.4075C1.66797 14.4235 1.66797 12.9495 1.66797 10.0016Z" stroke="#8993A4" stroke-width="1.75" stroke-linecap="round"/>
<path d="M8.33203 13.335H9.58203" stroke="#8993A4" stroke-width="1.75" stroke-linecap="round"/>
<path d="M12.082 13.335H14.9987" stroke="#8993A4" stroke-width="1.75" stroke-linecap="round"/>
<path d="M1.66406 7.5H18.3307" stroke="#8993A4" stroke-width="1.75" stroke-linecap="round"/>
</svg>
