<svg width="40" height="40" viewBox="0 0 40 40" fill="none" xmlns="http://www.w3.org/2000/svg">
<rect width="40" height="40" rx="20" fill="url(#paint0_linear_4241_2850)"/>
<path fill-rule="evenodd" clip-rule="evenodd" d="M13.7351 15.1103C13.6109 15.1676 13.4376 15.298 13.3503 15.4002C13.0586 15.741 8.02722 23.3945 7.91997 23.6605C7.80519 23.9448 7.84556 24.2973 8.02541 24.582C8.14961 24.7786 8.56091 25 8.80192 25C9.27446 25 9.41568 24.8299 11.2613 22.0395L13.0573 19.3241L13.0949 21.7909C13.1369 24.5398 13.1528 24.628 13.649 24.8723C13.9651 25.0278 14.154 25.0327 14.4749 24.8937C14.674 24.8073 15.0608 24.273 16.5248 22.0616L18.3294 19.3359L18.3492 22.168L18.369 25H19.3471H20.3253V20.4089C20.3253 16.0987 20.3168 15.8015 20.1866 15.5496C19.9083 15.0113 19.2505 14.8655 18.7911 15.2403C18.6845 15.3273 17.8084 16.5927 16.8441 18.0523L15.0908 20.7062L15.0532 18.1851C15.0113 15.3841 15.0105 15.3795 14.4913 15.1239C14.1891 14.9752 14.0343 14.9723 13.7351 15.1103ZM21.3217 16.6992L21.3421 18.3984L21.6041 18.3712C21.9896 18.331 22.5364 18.0156 22.8053 17.6784C23.1388 17.2601 23.2626 16.7534 23.2626 15.8061V15H22.282H21.3015L21.3217 16.6992ZM26.7329 15.1141C25.4982 15.357 24.4529 16.1709 24.1953 17.0899C23.9497 17.9665 24.1898 18.8677 24.8458 19.5312C25.3366 20.0277 25.789 20.2539 26.9531 20.585C28.7674 21.1009 28.9595 21.1663 29.172 21.3397C29.661 21.7386 29.6636 22.4223 29.1779 22.8615C28.8164 23.1883 28.3601 23.3109 27.6871 23.2623C26.5527 23.1802 25.7648 22.6405 25.4433 21.7258C25.3438 21.443 25.2372 21.2568 25.1862 21.277C25.1383 21.2961 24.813 21.3715 24.4633 21.4445C24.1136 21.5174 23.8032 21.6008 23.7736 21.6297C23.6922 21.7089 23.9152 22.6097 24.12 23.029C24.3683 23.5371 25.0496 24.1836 25.6172 24.4496C26.2644 24.7528 26.8645 24.8733 27.7063 24.8688C29.357 24.8602 30.7001 24.1707 31.222 23.0643C31.3941 22.6995 31.4269 22.5276 31.4269 21.9922C31.4269 21.4545 31.3943 21.2854 31.219 20.9137C30.9753 20.3971 30.541 19.9779 29.9758 19.7139C29.7534 19.6101 28.9852 19.3698 28.2687 19.1802C26.7653 18.782 26.3153 18.5873 26.1163 18.2489C25.8353 17.7709 26.0278 17.1737 26.5685 16.8462C26.882 16.6562 27.8264 16.5832 28.2898 16.7131C28.7142 16.8321 29.1551 17.2831 29.3263 17.7734C29.5298 18.3565 29.5476 18.3671 30.1164 18.2465C30.3857 18.1894 30.737 18.1188 30.8972 18.0895C31.1879 18.0365 31.1884 18.0358 31.1412 17.7299C31.0068 16.8578 30.4711 16.0118 29.7923 15.5991C28.9671 15.0974 27.7766 14.9087 26.7329 15.1141ZM22.4718 18.8205C22.096 19.0016 21.6555 19.4724 21.4776 19.8828C21.3586 20.1573 21.3393 20.4873 21.3184 22.5977L21.2946 25H22.2786H23.2626V21.8359V18.6719L23.0178 18.6736C22.8833 18.6745 22.6375 18.7406 22.4718 18.8205Z" fill="#FAFBFF"/>
<defs>
<linearGradient id="paint0_linear_4241_2850" x1="0" y1="0" x2="40" y2="40" gradientUnits="userSpaceOnUse">
<stop stop-color="#6322D0"/>
<stop offset="1" stop-color="#5F27BD"/>
</linearGradient>
</defs>
</svg>
