<svg width="40" height="40" viewBox="0 0 40 40" fill="none" xmlns="http://www.w3.org/2000/svg">
<rect width="40" height="40" rx="20" fill="url(#paint0_linear_4241_2869)"/>
<path fill-rule="evenodd" clip-rule="evenodd" d="M16.7426 9.37176C16.6743 9.44536 16.6183 10.8241 16.6183 12.4355V15.3655L15.5039 15.5266L14.3895 15.6874L14.3374 17.2962L14.2852 18.9049L15.4641 18.7689L16.6433 18.6328L16.5862 19.2741C16.5301 19.9048 16.5108 19.9183 15.4147 20.0865L14.3003 20.2573V21.7903V23.3234L15.4593 23.1896L16.6183 23.0559V25.0542C16.6183 28.3828 17.2847 29.8662 19.2436 30.8992C20.1187 31.3606 20.4648 31.4321 21.7809 31.4234C22.73 31.4171 23.6581 31.2868 24.241 31.0779L25.1771 30.7427V28.7198C25.1771 26.8676 25.1508 26.7087 24.8651 26.8374C24.2123 27.1318 23.095 27.2787 22.2853 27.1764C21.0193 27.0165 20.8334 26.6844 20.7506 24.4363C20.6882 22.7443 20.7159 22.5262 21.0122 22.3605C21.1944 22.2587 22.3263 22.0208 23.5278 21.8317L25.7121 21.488V19.9811C25.7121 18.2242 25.8588 18.3021 23.3941 18.752C20.766 19.2316 20.8221 19.2362 20.7952 18.5386C20.769 17.8625 20.7073 17.8842 24.3302 17.2992L25.7121 17.0761V15.4601V13.8442L25.1326 13.9474C23.8377 14.1775 18.6339 15.0148 18.4979 15.0148C18.4175 15.0148 18.6625 14.7874 19.0423 14.5097C20.3391 13.5611 20.9257 12.369 20.9614 10.6102L20.9869 9.34543L18.9269 9.29162C17.7937 9.26202 16.8109 9.29796 16.7426 9.37176Z" fill="black"/>
<defs>
<linearGradient id="paint0_linear_4241_2869" x1="20" y1="0" x2="20" y2="40" gradientUnits="userSpaceOnUse">
<stop stop-color="#3CFFA1"/>
<stop offset="1" stop-color="#3BFFC5"/>
</linearGradient>
</defs>
</svg>
